%TF.GenerationSoftware,KiCad,Pcbnew,7.0.9*%
%TF.CreationDate,2023-12-18T09:55:38-05:00*%
%TF.ProjectId,_HW_EPaper,5f48575f-4550-4617-9065-722e6b696361,v1.0*%
%TF.SameCoordinates,Original*%
%TF.FileFunction,Copper,L1,Top*%
%TF.FilePolarity,Positive*%
%FSLAX46Y46*%
G04 Gerber Fmt 4.6, Leading zero omitted, Abs format (unit mm)*
G04 Created by KiCad (PCBNEW 7.0.9) date 2023-12-18 09:55:38*
%MOMM*%
%LPD*%
G01*
G04 APERTURE LIST*
G04 Aperture macros list*
%AMRoundRect*
0 Rectangle with rounded corners*
0 $1 Rounding radius*
0 $2 $3 $4 $5 $6 $7 $8 $9 X,Y pos of 4 corners*
0 Add a 4 corners polygon primitive as box body*
4,1,4,$2,$3,$4,$5,$6,$7,$8,$9,$2,$3,0*
0 Add four circle primitives for the rounded corners*
1,1,$1+$1,$2,$3*
1,1,$1+$1,$4,$5*
1,1,$1+$1,$6,$7*
1,1,$1+$1,$8,$9*
0 Add four rect primitives between the rounded corners*
20,1,$1+$1,$2,$3,$4,$5,0*
20,1,$1+$1,$4,$5,$6,$7,0*
20,1,$1+$1,$6,$7,$8,$9,0*
20,1,$1+$1,$8,$9,$2,$3,0*%
%AMRotRect*
0 Rectangle, with rotation*
0 The origin of the aperture is its center*
0 $1 length*
0 $2 width*
0 $3 Rotation angle, in degrees counterclockwise*
0 Add horizontal line*
21,1,$1,$2,0,0,$3*%
G04 Aperture macros list end*
%TA.AperFunction,SMDPad,CuDef*%
%ADD10R,1.300000X0.300000*%
%TD*%
%TA.AperFunction,SMDPad,CuDef*%
%ADD11R,2.200000X1.800000*%
%TD*%
%TA.AperFunction,SMDPad,CuDef*%
%ADD12RoundRect,0.135000X0.185000X-0.135000X0.185000X0.135000X-0.185000X0.135000X-0.185000X-0.135000X0*%
%TD*%
%TA.AperFunction,SMDPad,CuDef*%
%ADD13RoundRect,0.147500X-0.147500X-0.172500X0.147500X-0.172500X0.147500X0.172500X-0.147500X0.172500X0*%
%TD*%
%TA.AperFunction,SMDPad,CuDef*%
%ADD14RoundRect,0.140000X0.170000X-0.140000X0.170000X0.140000X-0.170000X0.140000X-0.170000X-0.140000X0*%
%TD*%
%TA.AperFunction,SMDPad,CuDef*%
%ADD15RoundRect,0.140000X0.140000X0.170000X-0.140000X0.170000X-0.140000X-0.170000X0.140000X-0.170000X0*%
%TD*%
%TA.AperFunction,SMDPad,CuDef*%
%ADD16RoundRect,0.135000X-0.185000X0.135000X-0.185000X-0.135000X0.185000X-0.135000X0.185000X0.135000X0*%
%TD*%
%TA.AperFunction,SMDPad,CuDef*%
%ADD17RoundRect,0.250000X0.262500X0.450000X-0.262500X0.450000X-0.262500X-0.450000X0.262500X-0.450000X0*%
%TD*%
%TA.AperFunction,SMDPad,CuDef*%
%ADD18RoundRect,0.250000X0.250000X0.475000X-0.250000X0.475000X-0.250000X-0.475000X0.250000X-0.475000X0*%
%TD*%
%TA.AperFunction,ComponentPad*%
%ADD19C,2.100000*%
%TD*%
%TA.AperFunction,ComponentPad*%
%ADD20C,1.750000*%
%TD*%
%TA.AperFunction,SMDPad,CuDef*%
%ADD21R,0.508000X0.406400*%
%TD*%
%TA.AperFunction,SMDPad,CuDef*%
%ADD22RoundRect,0.135000X-0.135000X-0.185000X0.135000X-0.185000X0.135000X0.185000X-0.135000X0.185000X0*%
%TD*%
%TA.AperFunction,SMDPad,CuDef*%
%ADD23RoundRect,0.140000X-0.140000X-0.170000X0.140000X-0.170000X0.140000X0.170000X-0.140000X0.170000X0*%
%TD*%
%TA.AperFunction,SMDPad,CuDef*%
%ADD24RoundRect,0.135000X0.135000X0.185000X-0.135000X0.185000X-0.135000X-0.185000X0.135000X-0.185000X0*%
%TD*%
%TA.AperFunction,SMDPad,CuDef*%
%ADD25R,0.304800X0.558800*%
%TD*%
%TA.AperFunction,SMDPad,CuDef*%
%ADD26RoundRect,0.150000X-0.650000X-0.150000X0.650000X-0.150000X0.650000X0.150000X-0.650000X0.150000X0*%
%TD*%
%TA.AperFunction,ComponentPad*%
%ADD27R,1.700000X1.700000*%
%TD*%
%TA.AperFunction,ComponentPad*%
%ADD28O,1.700000X1.700000*%
%TD*%
%TA.AperFunction,SMDPad,CuDef*%
%ADD29RoundRect,0.150000X-0.587500X-0.150000X0.587500X-0.150000X0.587500X0.150000X-0.587500X0.150000X0*%
%TD*%
%TA.AperFunction,SMDPad,CuDef*%
%ADD30C,1.500000*%
%TD*%
%TA.AperFunction,SMDPad,CuDef*%
%ADD31RotRect,1.397000X1.498600X135.000000*%
%TD*%
%TA.AperFunction,SMDPad,CuDef*%
%ADD32RoundRect,0.150000X0.825000X0.150000X-0.825000X0.150000X-0.825000X-0.150000X0.825000X-0.150000X0*%
%TD*%
%TA.AperFunction,SMDPad,CuDef*%
%ADD33RoundRect,0.250000X0.300000X0.300000X-0.300000X0.300000X-0.300000X-0.300000X0.300000X-0.300000X0*%
%TD*%
%TA.AperFunction,ComponentPad*%
%ADD34C,4.700000*%
%TD*%
%TA.AperFunction,SMDPad,CuDef*%
%ADD35RoundRect,0.250000X-0.300000X-0.300000X0.300000X-0.300000X0.300000X0.300000X-0.300000X0.300000X0*%
%TD*%
%TA.AperFunction,SMDPad,CuDef*%
%ADD36R,0.400000X1.350000*%
%TD*%
%TA.AperFunction,ComponentPad*%
%ADD37O,0.890000X1.550000*%
%TD*%
%TA.AperFunction,SMDPad,CuDef*%
%ADD38R,1.200000X1.550000*%
%TD*%
%TA.AperFunction,ComponentPad*%
%ADD39O,1.250000X0.950000*%
%TD*%
%TA.AperFunction,SMDPad,CuDef*%
%ADD40R,1.500000X1.550000*%
%TD*%
%TA.AperFunction,SMDPad,CuDef*%
%ADD41RoundRect,0.150000X0.587500X0.150000X-0.587500X0.150000X-0.587500X-0.150000X0.587500X-0.150000X0*%
%TD*%
%TA.AperFunction,SMDPad,CuDef*%
%ADD42RoundRect,0.250000X-0.250000X-0.475000X0.250000X-0.475000X0.250000X0.475000X-0.250000X0.475000X0*%
%TD*%
%TA.AperFunction,SMDPad,CuDef*%
%ADD43RoundRect,0.100000X0.100000X-0.637500X0.100000X0.637500X-0.100000X0.637500X-0.100000X-0.637500X0*%
%TD*%
%TA.AperFunction,SMDPad,CuDef*%
%ADD44RoundRect,0.100000X-0.637500X-0.100000X0.637500X-0.100000X0.637500X0.100000X-0.637500X0.100000X0*%
%TD*%
%TA.AperFunction,SMDPad,CuDef*%
%ADD45RoundRect,0.150000X-0.512500X-0.150000X0.512500X-0.150000X0.512500X0.150000X-0.512500X0.150000X0*%
%TD*%
%TA.AperFunction,SMDPad,CuDef*%
%ADD46RoundRect,0.218750X0.218750X0.256250X-0.218750X0.256250X-0.218750X-0.256250X0.218750X-0.256250X0*%
%TD*%
%TA.AperFunction,ViaPad*%
%ADD47C,0.800000*%
%TD*%
%TA.AperFunction,Conductor*%
%ADD48C,0.250000*%
%TD*%
%TA.AperFunction,Conductor*%
%ADD49C,0.304800*%
%TD*%
%TA.AperFunction,Conductor*%
%ADD50C,0.750000*%
%TD*%
G04 APERTURE END LIST*
D10*
X144393000Y-144815000D03*
X144393000Y-144315000D03*
X144393000Y-143815000D03*
X144393000Y-143315000D03*
X144393000Y-142815000D03*
X144393000Y-142315000D03*
X144393000Y-141815000D03*
X144393000Y-141315000D03*
X144393000Y-140815000D03*
X144393000Y-140315000D03*
X144393000Y-139815000D03*
X144393000Y-139315000D03*
X144393000Y-138815000D03*
X144393000Y-138315000D03*
X144393000Y-137815000D03*
X144393000Y-137315000D03*
X144393000Y-136815000D03*
X144393000Y-136315000D03*
X144393000Y-135815000D03*
X144393000Y-135315000D03*
X144393000Y-134815000D03*
X144393000Y-134315000D03*
X144393000Y-133815000D03*
X144393000Y-133315000D03*
D11*
X147643000Y-146715000D03*
X147643000Y-131415000D03*
D12*
X117856000Y-133733000D03*
X117856000Y-132713000D03*
D13*
X120523000Y-150114000D03*
X121493000Y-150114000D03*
D14*
X114681000Y-133703000D03*
X114681000Y-132743000D03*
D15*
X140319000Y-142494000D03*
X139359000Y-142494000D03*
D16*
X116840000Y-144524000D03*
X116840000Y-145544000D03*
D17*
X139977500Y-146177000D03*
X138152500Y-146177000D03*
D18*
X140015000Y-131572000D03*
X138115000Y-131572000D03*
D19*
X120492000Y-159310500D03*
X113482000Y-159310500D03*
D20*
X119242000Y-161800500D03*
X114742000Y-161800500D03*
D21*
X137883900Y-137653001D03*
X137883900Y-138952999D03*
X139992100Y-138303000D03*
D18*
X140015000Y-135636000D03*
X138115000Y-135636000D03*
D12*
X118491000Y-146687000D03*
X118491000Y-145667000D03*
D18*
X140015000Y-144145000D03*
X138115000Y-144145000D03*
D15*
X115288000Y-153924000D03*
X114328000Y-153924000D03*
D22*
X132586000Y-136652000D03*
X133606000Y-136652000D03*
D21*
X109943900Y-150734001D03*
X109943900Y-152033999D03*
X112052100Y-151384000D03*
D23*
X132108000Y-132207000D03*
X133068000Y-132207000D03*
D24*
X110746000Y-140335000D03*
X109726000Y-140335000D03*
D23*
X133124000Y-143129000D03*
X134084000Y-143129000D03*
D22*
X122553000Y-150114000D03*
X123573000Y-150114000D03*
D25*
X110680500Y-146685000D03*
X110045500Y-146685000D03*
D12*
X115951000Y-133731000D03*
X115951000Y-132711000D03*
D26*
X123400000Y-143129000D03*
X123400000Y-144399000D03*
X123400000Y-145669000D03*
X123400000Y-146939000D03*
X130600000Y-146939000D03*
X130600000Y-145669000D03*
X130600000Y-144399000D03*
X130600000Y-143129000D03*
D12*
X115062000Y-145544000D03*
X115062000Y-144524000D03*
D24*
X115318000Y-155067000D03*
X114298000Y-155067000D03*
D27*
X115057000Y-116078000D03*
D28*
X117597000Y-116078000D03*
D29*
X111076500Y-121986000D03*
X111076500Y-123886000D03*
X112951500Y-122936000D03*
D27*
X122565000Y-116078000D03*
D28*
X125105000Y-116078000D03*
X127645000Y-116078000D03*
X130185000Y-116078000D03*
D30*
X104521000Y-122428000D03*
D22*
X128776000Y-125222000D03*
X129796000Y-125222000D03*
D23*
X128806000Y-122933000D03*
X129766000Y-122933000D03*
D25*
X110680500Y-141605000D03*
X110045500Y-141605000D03*
D22*
X131443000Y-151257000D03*
X132463000Y-151257000D03*
X110384000Y-125730000D03*
X111404000Y-125730000D03*
D24*
X112905000Y-148209000D03*
X111885000Y-148209000D03*
D22*
X109777600Y-142875000D03*
X110797600Y-142875000D03*
D31*
X139773502Y-155140502D03*
X137086498Y-152453498D03*
D12*
X120142000Y-146687000D03*
X120142000Y-145667000D03*
D22*
X132078000Y-133223000D03*
X133098000Y-133223000D03*
D18*
X140015000Y-127254000D03*
X138115000Y-127254000D03*
D24*
X134114000Y-144399000D03*
X133094000Y-144399000D03*
D32*
X125157000Y-127762000D03*
X125157000Y-126492000D03*
X125157000Y-125222000D03*
X125157000Y-123952000D03*
X125157000Y-122682000D03*
X125157000Y-121412000D03*
X125157000Y-120142000D03*
X120207000Y-120142000D03*
X120207000Y-121412000D03*
X120207000Y-122682000D03*
X120207000Y-123952000D03*
X120207000Y-125222000D03*
X120207000Y-126492000D03*
X120207000Y-127762000D03*
D24*
X110746000Y-148209000D03*
X109726000Y-148209000D03*
D30*
X143129000Y-161417000D03*
D25*
X121475500Y-154813000D03*
X120840500Y-154813000D03*
D33*
X139957000Y-129413000D03*
X137157000Y-129413000D03*
D34*
X148590000Y-161290000D03*
D12*
X113919000Y-145544000D03*
X113919000Y-144524000D03*
D22*
X109726000Y-135509000D03*
X110746000Y-135509000D03*
D35*
X132585000Y-123063000D03*
X135385000Y-123063000D03*
X137157000Y-123063000D03*
X139957000Y-123063000D03*
D18*
X140015000Y-133604000D03*
X138115000Y-133604000D03*
D36*
X125065000Y-159636000D03*
X125715000Y-159636000D03*
X126365000Y-159636000D03*
X127015000Y-159636000D03*
X127665000Y-159636000D03*
D37*
X122865000Y-162336000D03*
D38*
X123465000Y-162336000D03*
D39*
X123865000Y-159636000D03*
D40*
X125365000Y-162336000D03*
X127365000Y-162336000D03*
D39*
X128865000Y-159636000D03*
D38*
X129265000Y-162336000D03*
D37*
X129865000Y-162336000D03*
D27*
X106000000Y-147970000D03*
D28*
X106000000Y-145430000D03*
X106000000Y-142890000D03*
X106000000Y-140350000D03*
X106000000Y-137810000D03*
X106000000Y-135270000D03*
X106000000Y-132730000D03*
X106000000Y-130190000D03*
D13*
X128823000Y-126231000D03*
X129793000Y-126231000D03*
D19*
X139288000Y-159310500D03*
X132278000Y-159310500D03*
D20*
X138038000Y-161800500D03*
X133538000Y-161800500D03*
D25*
X110680500Y-137922000D03*
X110045500Y-137922000D03*
D24*
X132463000Y-155067000D03*
X131443000Y-155067000D03*
D41*
X139621500Y-150175000D03*
X139621500Y-148275000D03*
X137746500Y-149225000D03*
D18*
X140015000Y-140843000D03*
X138115000Y-140843000D03*
D34*
X148590000Y-116840000D03*
D27*
X137673000Y-116205000D03*
D28*
X135133000Y-116205000D03*
D42*
X133496000Y-125268000D03*
X135396000Y-125268000D03*
D22*
X110361000Y-116205000D03*
X111381000Y-116205000D03*
D24*
X142369000Y-116205000D03*
X141349000Y-116205000D03*
D42*
X110048000Y-154559000D03*
X111948000Y-154559000D03*
D18*
X123251000Y-152019000D03*
X121351000Y-152019000D03*
D22*
X109790688Y-145415000D03*
X110810688Y-145415000D03*
D18*
X140015000Y-120904000D03*
X138115000Y-120904000D03*
D43*
X114636000Y-141927500D03*
X115286000Y-141927500D03*
X115936000Y-141927500D03*
X116586000Y-141927500D03*
X117236000Y-141927500D03*
X117886000Y-141927500D03*
X118536000Y-141927500D03*
X118536000Y-136202500D03*
X117886000Y-136202500D03*
X117236000Y-136202500D03*
X116586000Y-136202500D03*
X115936000Y-136202500D03*
X115286000Y-136202500D03*
X114636000Y-136202500D03*
D34*
X104140000Y-116840000D03*
D17*
X130579500Y-129794000D03*
X128754500Y-129794000D03*
D27*
X106045000Y-152522000D03*
D28*
X106045000Y-155062000D03*
D44*
X123248500Y-132162000D03*
X123248500Y-132812000D03*
X123248500Y-133462000D03*
X123248500Y-134112000D03*
X123248500Y-134762000D03*
X123248500Y-135412000D03*
X123248500Y-136062000D03*
X128973500Y-136062000D03*
X128973500Y-135412000D03*
X128973500Y-134762000D03*
X128973500Y-134112000D03*
X128973500Y-133462000D03*
X128973500Y-132812000D03*
X128973500Y-132162000D03*
D22*
X131443000Y-149987000D03*
X132463000Y-149987000D03*
D23*
X128806000Y-127254000D03*
X129766000Y-127254000D03*
D24*
X110746000Y-136652000D03*
X109726000Y-136652000D03*
X133606000Y-137668000D03*
X132586000Y-137668000D03*
D23*
X128806000Y-128270000D03*
X129766000Y-128270000D03*
D25*
X110680500Y-144145000D03*
X110045500Y-144145000D03*
D45*
X125801500Y-150307000D03*
X125801500Y-151257000D03*
X125801500Y-152207000D03*
X128076500Y-152207000D03*
X128076500Y-151257000D03*
X128076500Y-150307000D03*
D34*
X104140000Y-161290000D03*
D22*
X109726000Y-139192000D03*
X110746000Y-139192000D03*
D24*
X129796000Y-123952000D03*
X128776000Y-123952000D03*
D46*
X124993500Y-154813000D03*
X123418500Y-154813000D03*
D15*
X132433000Y-153924000D03*
X131473000Y-153924000D03*
D18*
X140015000Y-125222000D03*
X138115000Y-125222000D03*
D23*
X110391000Y-120269000D03*
X111351000Y-120269000D03*
D47*
X105664000Y-126238000D03*
X126999500Y-119125500D03*
X114681000Y-130937000D03*
X134112000Y-141986000D03*
X114300000Y-156210000D03*
X125050000Y-136062000D03*
X114300000Y-152781000D03*
X108966000Y-141605000D03*
X130429000Y-153924000D03*
X146304000Y-141351000D03*
X121539000Y-146939000D03*
X133477000Y-149987000D03*
X118364000Y-127762000D03*
X108589299Y-140339299D03*
X127665000Y-156972000D03*
X133477000Y-151257000D03*
X130429000Y-155067000D03*
X130937000Y-127254000D03*
X116840500Y-146558000D03*
X108712000Y-148209000D03*
X136525000Y-133604000D03*
X136652000Y-140843000D03*
X115951000Y-130937000D03*
X130937000Y-128270000D03*
X120015000Y-152019000D03*
X136779000Y-120904000D03*
X132588000Y-121285000D03*
X119634000Y-154813000D03*
X118610500Y-143555000D03*
X136652000Y-146177000D03*
X134112000Y-132207000D03*
X108966000Y-144145000D03*
X112522000Y-120269000D03*
X136525000Y-131572000D03*
X108966000Y-146685000D03*
X108966000Y-137922000D03*
X115189000Y-122936000D03*
X138049000Y-142494000D03*
X124460000Y-151257000D03*
X141414500Y-136842500D03*
X136779000Y-127254000D03*
X108801500Y-136652000D03*
X112522000Y-125730000D03*
X132588000Y-138811000D03*
X136525000Y-135636000D03*
X136779000Y-125222000D03*
X136652000Y-144145000D03*
X127893299Y-126242299D03*
X130937000Y-122936000D03*
X117856000Y-131445000D03*
X112014000Y-156210000D03*
X130937000Y-123952000D03*
X113411000Y-150368000D03*
X120142000Y-147701000D03*
X136652000Y-139573000D03*
X131953000Y-129794000D03*
X118491000Y-147701000D03*
X114427000Y-151384000D03*
X132461000Y-141732000D03*
X132108000Y-134112000D03*
X113919000Y-146558000D03*
X109220000Y-120269000D03*
X114427000Y-150368000D03*
X115062000Y-146558000D03*
X134112000Y-145542000D03*
X113538000Y-133731000D03*
X113411000Y-151384000D03*
X117348000Y-151638000D03*
X108204000Y-126238000D03*
X116332000Y-153924000D03*
X108495000Y-124841000D03*
X128143000Y-153670000D03*
X112014000Y-136017000D03*
X117221000Y-137795000D03*
X127127000Y-124841000D03*
X142621000Y-140826503D03*
X146309783Y-140312990D03*
X130937000Y-133111003D03*
X131303550Y-135927500D03*
X142621000Y-139827000D03*
X146254811Y-139315000D03*
X130937000Y-132111500D03*
X142621000Y-138815058D03*
X118364000Y-122682000D03*
X116586000Y-143637000D03*
X143510000Y-131318000D03*
X146304000Y-138315000D03*
X134620000Y-137668000D03*
X136539999Y-137653001D03*
X121397550Y-136120950D03*
X113411000Y-141859000D03*
X119380000Y-129667000D03*
X119380000Y-134112000D03*
X121285000Y-133223000D03*
X132334000Y-118618000D03*
X120142000Y-142621000D03*
X132588000Y-145669000D03*
D48*
X103759000Y-128143000D02*
X105664000Y-126238000D01*
X103759000Y-145034000D02*
X103759000Y-128143000D01*
X126999500Y-119125500D02*
X128806000Y-120932000D01*
X110680500Y-145545188D02*
X110680500Y-147129500D01*
X108040000Y-147410000D02*
X107315000Y-146685000D01*
X110680500Y-145545188D02*
X110680500Y-146685000D01*
X110810688Y-145415000D02*
X110680500Y-145545188D01*
X128776000Y-123952000D02*
X125157000Y-123952000D01*
X128806000Y-120932000D02*
X128806000Y-122933000D01*
X128806000Y-123922000D02*
X128776000Y-123952000D01*
X110680500Y-147129500D02*
X110400000Y-147410000D01*
X110400000Y-147410000D02*
X108040000Y-147410000D01*
X105410000Y-146685000D02*
X103759000Y-145034000D01*
X107315000Y-146685000D02*
X105410000Y-146685000D01*
X128806000Y-122933000D02*
X128806000Y-123922000D01*
X138115000Y-135636000D02*
X136525000Y-135636000D01*
X111948000Y-154559000D02*
X111948000Y-156144000D01*
X113151500Y-122936000D02*
X115189000Y-122936000D01*
X129766000Y-122933000D02*
X130934000Y-122933000D01*
X120207000Y-127762000D02*
X118364000Y-127762000D01*
X125801500Y-151257000D02*
X124460000Y-151257000D01*
X110045500Y-141605000D02*
X108966000Y-141605000D01*
X138115000Y-140843000D02*
X136652000Y-140843000D01*
X116840000Y-146557500D02*
X116840000Y-145544000D01*
X110045500Y-144145000D02*
X108966000Y-144145000D01*
X132585000Y-123063000D02*
X132585000Y-121288000D01*
X108593598Y-140335000D02*
X108589299Y-140339299D01*
X115951000Y-132711000D02*
X115951000Y-130937000D01*
X108801500Y-136652000D02*
X109726000Y-136652000D01*
X111404000Y-125730000D02*
X112522000Y-125730000D01*
X138115000Y-131572000D02*
X136525000Y-131572000D01*
X138115000Y-120904000D02*
X136779000Y-120904000D01*
X144393000Y-141315000D02*
X146268000Y-141315000D01*
X111351000Y-120269000D02*
X112522000Y-120269000D01*
X116840500Y-146558000D02*
X116840000Y-146557500D01*
X132463000Y-151257000D02*
X133477000Y-151257000D01*
X114681000Y-132743000D02*
X114681000Y-130937000D01*
X146268000Y-141315000D02*
X146304000Y-141351000D01*
X128823000Y-126231000D02*
X127904598Y-126231000D01*
X132585000Y-121288000D02*
X132588000Y-121285000D01*
X111948000Y-156144000D02*
X112014000Y-156210000D01*
X129766000Y-128270000D02*
X130937000Y-128270000D01*
X114328000Y-153924000D02*
X114328000Y-152809000D01*
X131443000Y-155067000D02*
X130429000Y-155067000D01*
X131473000Y-153924000D02*
X130429000Y-153924000D01*
X133068000Y-132207000D02*
X134112000Y-132207000D01*
X118536000Y-143480500D02*
X118536000Y-141927500D01*
X134084000Y-142014000D02*
X134112000Y-141986000D01*
X138115000Y-144145000D02*
X136652000Y-144145000D01*
X138115000Y-133604000D02*
X136525000Y-133604000D01*
X125050000Y-136062000D02*
X123248500Y-136062000D01*
X134084000Y-143129000D02*
X134084000Y-142014000D01*
X130934000Y-122933000D02*
X130937000Y-122936000D01*
X110045500Y-137922000D02*
X108966000Y-137922000D01*
X109726000Y-148209000D02*
X108712000Y-148209000D01*
X141414500Y-136842500D02*
X141442000Y-136815000D01*
X117856000Y-132713000D02*
X117856000Y-131445000D01*
D49*
X127665000Y-159636000D02*
X127665000Y-156972000D01*
D48*
X118610500Y-143555000D02*
X118536000Y-143480500D01*
X109726000Y-140335000D02*
X108593598Y-140335000D01*
X138152500Y-146177000D02*
X136652000Y-146177000D01*
X138115000Y-127254000D02*
X136779000Y-127254000D01*
X114298000Y-155067000D02*
X114298000Y-156208000D01*
X120840500Y-154813000D02*
X119634000Y-154813000D01*
X132586000Y-137668000D02*
X132586000Y-138809000D01*
X138115000Y-125222000D02*
X136779000Y-125222000D01*
X141442000Y-136815000D02*
X144393000Y-136815000D01*
X114298000Y-156208000D02*
X114300000Y-156210000D01*
X129766000Y-127254000D02*
X130937000Y-127254000D01*
X114328000Y-152809000D02*
X114300000Y-152781000D01*
X139359000Y-142494000D02*
X138049000Y-142494000D01*
X121351000Y-152019000D02*
X120015000Y-152019000D01*
X123400000Y-146939000D02*
X121539000Y-146939000D01*
X127904598Y-126231000D02*
X127893299Y-126242299D01*
X110045500Y-146685000D02*
X108966000Y-146685000D01*
X132463000Y-149987000D02*
X133477000Y-149987000D01*
X128806000Y-127254000D02*
X128806000Y-128270000D01*
X128806000Y-129742500D02*
X128754500Y-129794000D01*
X128806000Y-127254000D02*
X128016000Y-127254000D01*
X128806000Y-128270000D02*
X128806000Y-129742500D01*
X127508000Y-127762000D02*
X125157000Y-127762000D01*
X128016000Y-127254000D02*
X127508000Y-127762000D01*
X118491000Y-146687000D02*
X118491000Y-147701000D01*
X134874000Y-146304000D02*
X134112000Y-145542000D01*
X134874000Y-156083000D02*
X134874000Y-146304000D01*
X136525000Y-160287500D02*
X136525000Y-157734000D01*
X117983000Y-154432000D02*
X117983000Y-160541500D01*
X128973500Y-131757500D02*
X128973500Y-132162000D01*
X136525000Y-157734000D02*
X134874000Y-156083000D01*
X132108000Y-134112000D02*
X132108000Y-132207000D01*
X131768000Y-131387000D02*
X129344000Y-131387000D01*
X134114000Y-144399000D02*
X134114000Y-145540000D01*
X110391000Y-120932000D02*
X110391000Y-120269000D01*
X130600000Y-143129000D02*
X133124000Y-143129000D01*
X129344000Y-131387000D02*
X128973500Y-131757500D01*
X109220000Y-120269000D02*
X110391000Y-120269000D01*
X132461000Y-141732000D02*
X133124000Y-142395000D01*
X113566000Y-133703000D02*
X113538000Y-133731000D01*
X132108000Y-132207000D02*
X132108000Y-131727000D01*
X134114000Y-145540000D02*
X134112000Y-145542000D01*
X114427000Y-151384000D02*
X114935000Y-151384000D01*
X114681000Y-136157500D02*
X114636000Y-136202500D01*
X120142000Y-146687000D02*
X120142000Y-147701000D01*
X110876500Y-121417500D02*
X110391000Y-120932000D01*
X110876500Y-121986000D02*
X110876500Y-121417500D01*
X114935000Y-151384000D02*
X117983000Y-154432000D01*
X130579500Y-129794000D02*
X131953000Y-129794000D01*
X137272001Y-138952999D02*
X137883900Y-138952999D01*
X138038000Y-161800500D02*
X136525000Y-160287500D01*
X136652000Y-139573000D02*
X137272001Y-138952999D01*
X117983000Y-160541500D02*
X119242000Y-161800500D01*
X114681000Y-133703000D02*
X114681000Y-136157500D01*
X130937000Y-123952000D02*
X129796000Y-123952000D01*
X115062000Y-145544000D02*
X115062000Y-146558000D01*
X132108000Y-131727000D02*
X131768000Y-131387000D01*
X133124000Y-142395000D02*
X133124000Y-143129000D01*
X114681000Y-133703000D02*
X113566000Y-133703000D01*
X113919000Y-145544000D02*
X113919000Y-146558000D01*
X141351000Y-144145000D02*
X142681000Y-142815000D01*
X140015000Y-144145000D02*
X141351000Y-144145000D01*
X142681000Y-142815000D02*
X144393000Y-142815000D01*
X141605000Y-120904000D02*
X142748000Y-122047000D01*
X143348000Y-133315000D02*
X144393000Y-133315000D01*
X142748000Y-122047000D02*
X142748000Y-132715000D01*
X140015000Y-120904000D02*
X141605000Y-120904000D01*
X142748000Y-132715000D02*
X143348000Y-133315000D01*
X142959000Y-133815000D02*
X142240000Y-133096000D01*
X141478000Y-125222000D02*
X140015000Y-125222000D01*
X139957000Y-123063000D02*
X139957000Y-125164000D01*
X144393000Y-133815000D02*
X142959000Y-133815000D01*
X142240000Y-133096000D02*
X142240000Y-125984000D01*
X142240000Y-125984000D02*
X141478000Y-125222000D01*
X139957000Y-125164000D02*
X140015000Y-125222000D01*
X140015000Y-131572000D02*
X140015000Y-129471000D01*
X141097000Y-131953000D02*
X140716000Y-131572000D01*
X140716000Y-131572000D02*
X140015000Y-131572000D01*
X140015000Y-129471000D02*
X139957000Y-129413000D01*
X142371500Y-134815000D02*
X141097000Y-133540500D01*
X141097000Y-133540500D02*
X141097000Y-131953000D01*
X144393000Y-134815000D02*
X142371500Y-134815000D01*
X141726000Y-135315000D02*
X140015000Y-133604000D01*
X144393000Y-135315000D02*
X141726000Y-135315000D01*
X142697000Y-134315000D02*
X141732000Y-133350000D01*
X144393000Y-134315000D02*
X142697000Y-134315000D01*
X141097000Y-127254000D02*
X140015000Y-127254000D01*
X141732000Y-133350000D02*
X141732000Y-127889000D01*
X141732000Y-127889000D02*
X141097000Y-127254000D01*
X141966500Y-136315000D02*
X141287500Y-135636000D01*
X144393000Y-136315000D02*
X141966500Y-136315000D01*
X141287500Y-135636000D02*
X140015000Y-135636000D01*
X132463000Y-155067000D02*
X132463000Y-156085000D01*
X133858000Y-152781000D02*
X132842000Y-152781000D01*
X132463000Y-156085000D02*
X135001000Y-158623000D01*
X132433000Y-153190000D02*
X132433000Y-153924000D01*
X120207000Y-126492000D02*
X116967000Y-126492000D01*
X109982000Y-128016000D02*
X108204000Y-126238000D01*
X108837604Y-118237000D02*
X107696000Y-119378604D01*
X109601000Y-117475000D02*
X108839000Y-118237000D01*
X135001000Y-160337500D02*
X133538000Y-161800500D01*
X116967000Y-126492000D02*
X115443000Y-128016000D01*
X132463000Y-155067000D02*
X132463000Y-153954000D01*
X133477000Y-148590000D02*
X134366000Y-149479000D01*
X135001000Y-158623000D02*
X135001000Y-160337500D01*
X132842000Y-152781000D02*
X132433000Y-153190000D01*
X132463000Y-153954000D02*
X132433000Y-153924000D01*
X134366000Y-149479000D02*
X134366000Y-152273000D01*
X107696000Y-119378604D02*
X107696000Y-125730000D01*
X107696000Y-125730000D02*
X108204000Y-126238000D01*
X127645000Y-116078000D02*
X126248000Y-117475000D01*
X115443000Y-128016000D02*
X109982000Y-128016000D01*
X120396000Y-148590000D02*
X133477000Y-148590000D01*
X117348000Y-151638000D02*
X120396000Y-148590000D01*
X126248000Y-117475000D02*
X109601000Y-117475000D01*
X134366000Y-152273000D02*
X133858000Y-152781000D01*
X108839000Y-118237000D02*
X108837604Y-118237000D01*
X115288000Y-153924000D02*
X115288000Y-155037000D01*
X109220000Y-125566000D02*
X108495000Y-124841000D01*
X120207000Y-125222000D02*
X116459000Y-125222000D01*
X115288000Y-155037000D02*
X115318000Y-155067000D01*
X109982000Y-127000000D02*
X109220000Y-126238000D01*
X115951000Y-160591500D02*
X114742000Y-161800500D01*
X108495000Y-124841000D02*
X108495000Y-119597000D01*
X128312000Y-117951000D02*
X130185000Y-116078000D01*
X110141000Y-117951000D02*
X128312000Y-117951000D01*
X109220000Y-126238000D02*
X109220000Y-125566000D01*
X108495000Y-119597000D02*
X110141000Y-117951000D01*
X116459000Y-125222000D02*
X114681000Y-127000000D01*
X114681000Y-127000000D02*
X109982000Y-127000000D01*
X115318000Y-155067000D02*
X115318000Y-155831000D01*
X115318000Y-155831000D02*
X115951000Y-156464000D01*
X115288000Y-153924000D02*
X116332000Y-153924000D01*
X115951000Y-156464000D02*
X115951000Y-160591500D01*
X108717000Y-152522000D02*
X106045000Y-152522000D01*
X109943900Y-152033999D02*
X109205001Y-152033999D01*
X110048000Y-154559000D02*
X110048000Y-152138099D01*
X128076500Y-152207000D02*
X128076500Y-153603500D01*
X109205001Y-152033999D02*
X108717000Y-152522000D01*
X110048000Y-152138099D02*
X109943900Y-152033999D01*
X128076500Y-153603500D02*
X128143000Y-153670000D01*
X123251000Y-152019000D02*
X121727000Y-153543000D01*
X116078000Y-151574500D02*
X116078000Y-149606000D01*
X115443000Y-148971000D02*
X113667000Y-148971000D01*
X116078000Y-149606000D02*
X115443000Y-148971000D01*
X125801500Y-152207000D02*
X123439000Y-152207000D01*
X123418500Y-152186500D02*
X123251000Y-152019000D01*
X122993510Y-150806510D02*
X123251000Y-151064000D01*
X123439000Y-152207000D02*
X123251000Y-152019000D01*
X118046500Y-153543000D02*
X116078000Y-151574500D01*
X121475500Y-154813000D02*
X123418500Y-154813000D01*
X123418500Y-154813000D02*
X123418500Y-152186500D01*
X121727000Y-153543000D02*
X118046500Y-153543000D01*
X113667000Y-148971000D02*
X112905000Y-148209000D01*
X121723510Y-150806510D02*
X122993510Y-150806510D01*
X121493000Y-150576000D02*
X121723510Y-150806510D01*
X123251000Y-151064000D02*
X123251000Y-152019000D01*
X121493000Y-150114000D02*
X121493000Y-150576000D01*
X112776000Y-146440305D02*
X112776000Y-142748000D01*
X117565000Y-143600000D02*
X117565000Y-146917153D01*
X111633000Y-141605000D02*
X110680500Y-141605000D01*
X117565000Y-146917153D02*
X117162153Y-147320000D01*
X113655695Y-147320000D02*
X112776000Y-146440305D01*
X117236000Y-141927500D02*
X117236000Y-143271000D01*
X117162153Y-147320000D02*
X113655695Y-147320000D01*
X112776000Y-142748000D02*
X111633000Y-141605000D01*
X110746000Y-139192000D02*
X110680500Y-139257500D01*
X117236000Y-143271000D02*
X117565000Y-143600000D01*
X110680500Y-139257500D02*
X110680500Y-141605000D01*
X117236000Y-137780000D02*
X117221000Y-137795000D01*
X111506000Y-135509000D02*
X112014000Y-136017000D01*
X117236000Y-136202500D02*
X117236000Y-137780000D01*
X110746000Y-135509000D02*
X111506000Y-135509000D01*
X110680500Y-135574500D02*
X110680500Y-137922000D01*
X110746000Y-135509000D02*
X110680500Y-135574500D01*
X123063000Y-138938000D02*
X125603000Y-141478000D01*
X115697000Y-134620000D02*
X115951000Y-134620000D01*
X125603000Y-141478000D02*
X125603000Y-143383000D01*
X125603000Y-143383000D02*
X124587000Y-144399000D01*
X115936000Y-136202500D02*
X115936000Y-138034000D01*
X115951000Y-133731000D02*
X115951000Y-134620000D01*
X115951000Y-134620000D02*
X115951000Y-136187500D01*
X115951000Y-136187500D02*
X115936000Y-136202500D01*
X124587000Y-144399000D02*
X123400000Y-144399000D01*
X115936000Y-138034000D02*
X116840000Y-138938000D01*
X115286000Y-135031000D02*
X115697000Y-134620000D01*
X115286000Y-136202500D02*
X115286000Y-135031000D01*
X116840000Y-138938000D02*
X123063000Y-138938000D01*
X115893000Y-147770000D02*
X113469299Y-147770000D01*
X120142000Y-145667000D02*
X123398000Y-145667000D01*
X111887000Y-143383000D02*
X111379000Y-142875000D01*
X110680500Y-143573500D02*
X110680500Y-144145000D01*
X119638000Y-145667000D02*
X119380000Y-145925000D01*
X113469299Y-147770000D02*
X111887000Y-146187701D01*
X110797600Y-142875000D02*
X110797600Y-143456400D01*
X120142000Y-145667000D02*
X119638000Y-145667000D01*
X123398000Y-145667000D02*
X123400000Y-145669000D01*
X116840000Y-148717000D02*
X115893000Y-147770000D01*
X110797600Y-143456400D02*
X110680500Y-143573500D01*
X111379000Y-142875000D02*
X110797600Y-142875000D01*
X119380000Y-147955000D02*
X118618000Y-148717000D01*
X111887000Y-146187701D02*
X111887000Y-143383000D01*
X118618000Y-148717000D02*
X116840000Y-148717000D01*
X119380000Y-145925000D02*
X119380000Y-147955000D01*
X125065000Y-154884500D02*
X124993500Y-154813000D01*
D49*
X125065000Y-159636000D02*
X125065000Y-154884500D01*
D48*
X113157000Y-138049000D02*
X115286000Y-140178000D01*
X115286000Y-143540000D02*
X115062000Y-143764000D01*
X115062000Y-143764000D02*
X115062000Y-144524000D01*
X110378000Y-132730000D02*
X113157000Y-135509000D01*
X113157000Y-135509000D02*
X113157000Y-138049000D01*
X106000000Y-132730000D02*
X110378000Y-132730000D01*
X115286000Y-140178000D02*
X115286000Y-141927500D01*
X115286000Y-141927500D02*
X115286000Y-143540000D01*
X116967000Y-130556000D02*
X116205000Y-129794000D01*
X104394000Y-133664000D02*
X106000000Y-135270000D01*
X116967000Y-134620000D02*
X116596000Y-134991000D01*
X116967000Y-130556000D02*
X116967000Y-134620000D01*
X121539000Y-121412000D02*
X120207000Y-121412000D01*
X116596000Y-134991000D02*
X116596000Y-136192500D01*
X116967000Y-130556000D02*
X120650000Y-130556000D01*
X120650000Y-130556000D02*
X121920000Y-129286000D01*
X104394000Y-128397000D02*
X104394000Y-133664000D01*
X106807000Y-127635000D02*
X105156000Y-127635000D01*
X121920000Y-121793000D02*
X121539000Y-121412000D01*
X108966000Y-129794000D02*
X106807000Y-127635000D01*
X116205000Y-129794000D02*
X108966000Y-129794000D01*
X116596000Y-136192500D02*
X116586000Y-136202500D01*
X121920000Y-129286000D02*
X121920000Y-121793000D01*
X105156000Y-127635000D02*
X104394000Y-128397000D01*
X107554000Y-137810000D02*
X108077000Y-137287000D01*
X108712000Y-135509000D02*
X109726000Y-135509000D01*
X106000000Y-137810000D02*
X107554000Y-137810000D01*
X108077000Y-136144000D02*
X108712000Y-135509000D01*
X108077000Y-137287000D02*
X108077000Y-136144000D01*
X106000000Y-140350000D02*
X107554000Y-140350000D01*
X107554000Y-140350000D02*
X108712000Y-139192000D01*
X108712000Y-139192000D02*
X109726000Y-139192000D01*
X109762600Y-142890000D02*
X109777600Y-142875000D01*
X106000000Y-142890000D02*
X109762600Y-142890000D01*
X109775688Y-145430000D02*
X109790688Y-145415000D01*
X106000000Y-145430000D02*
X109775688Y-145430000D01*
X142240000Y-148971000D02*
X141036000Y-150175000D01*
X141036000Y-150175000D02*
X139821500Y-150175000D01*
X144393000Y-144315000D02*
X143213000Y-144315000D01*
X142240000Y-145288000D02*
X142240000Y-148971000D01*
X143213000Y-144315000D02*
X142240000Y-145288000D01*
X144393000Y-143815000D02*
X142824000Y-143815000D01*
X141097000Y-146177000D02*
X139977500Y-146177000D01*
X141605000Y-145669000D02*
X141097000Y-146177000D01*
X142824000Y-143815000D02*
X141605000Y-145034000D01*
X139977500Y-146177000D02*
X139977500Y-148119000D01*
X141605000Y-145034000D02*
X141605000Y-145669000D01*
X139977500Y-148119000D02*
X139821500Y-148275000D01*
X142621000Y-140826503D02*
X142632503Y-140815000D01*
X142632503Y-140815000D02*
X144393000Y-140815000D01*
X125157000Y-125222000D02*
X126746000Y-125222000D01*
X126746000Y-125222000D02*
X127127000Y-124841000D01*
X130586003Y-133462000D02*
X128973500Y-133462000D01*
X145343000Y-140315000D02*
X144393000Y-140315000D01*
X146309783Y-140312990D02*
X145345010Y-140312990D01*
X145345010Y-140312990D02*
X145343000Y-140315000D01*
X130937000Y-133111003D02*
X130586003Y-133462000D01*
X131303550Y-134986550D02*
X130429000Y-134112000D01*
X131303550Y-135927500D02*
X131303550Y-134986550D01*
X142621000Y-139827000D02*
X142633000Y-139815000D01*
X130429000Y-134112000D02*
X128973500Y-134112000D01*
X142633000Y-139815000D02*
X144393000Y-139815000D01*
X129951000Y-132812000D02*
X128973500Y-132812000D01*
X130937000Y-132111500D02*
X130651500Y-132111500D01*
X146254811Y-139315000D02*
X144393000Y-139315000D01*
X130651500Y-132111500D02*
X129951000Y-132812000D01*
X116586000Y-143637000D02*
X116586000Y-141927500D01*
X142621000Y-138815058D02*
X144392942Y-138815058D01*
X116840000Y-143891000D02*
X116586000Y-143637000D01*
X144392942Y-138815058D02*
X144393000Y-138815000D01*
X116840000Y-144524000D02*
X116840000Y-143891000D01*
X120207000Y-122682000D02*
X118364000Y-122682000D01*
X122428000Y-121031000D02*
X122428000Y-129921000D01*
X120207000Y-120142000D02*
X120207000Y-119315000D01*
X121121000Y-118401000D02*
X129704000Y-118401000D01*
X118616000Y-133733000D02*
X117856000Y-133733000D01*
X117856000Y-136172500D02*
X117886000Y-136202500D01*
X121539000Y-120142000D02*
X122428000Y-121031000D01*
X120207000Y-120142000D02*
X121539000Y-120142000D01*
X129704000Y-118401000D02*
X130683000Y-119380000D01*
X146304000Y-138315000D02*
X144393000Y-138315000D01*
X120207000Y-119315000D02*
X121121000Y-118401000D01*
X141859000Y-119380000D02*
X143510000Y-121031000D01*
X143510000Y-121031000D02*
X143510000Y-131318000D01*
X122428000Y-129921000D02*
X118616000Y-133733000D01*
X117856000Y-133733000D02*
X117856000Y-136172500D01*
X130683000Y-119380000D02*
X141859000Y-119380000D01*
D50*
X124212000Y-162185000D02*
X124079000Y-162052000D01*
X129026000Y-162185000D02*
X124212000Y-162185000D01*
D48*
X129796000Y-126228000D02*
X129793000Y-126231000D01*
X129796000Y-125222000D02*
X129796000Y-126228000D01*
X120840500Y-149225000D02*
X120523000Y-149542500D01*
X120523000Y-149542500D02*
X120523000Y-150114000D01*
X122174000Y-149225000D02*
X120840500Y-149225000D01*
X122553000Y-150114000D02*
X122553000Y-149604000D01*
X122553000Y-149604000D02*
X122174000Y-149225000D01*
X137883900Y-137653001D02*
X136539999Y-137653001D01*
X136525000Y-137668000D02*
X136539999Y-137653001D01*
X133606000Y-137668000D02*
X134620000Y-137668000D01*
X133606000Y-136652000D02*
X133606000Y-137668000D01*
X111885000Y-148209000D02*
X110746000Y-148209000D01*
X110746000Y-149096000D02*
X110746000Y-148209000D01*
X109943900Y-150734001D02*
X109943900Y-149898100D01*
X109943900Y-149898100D02*
X110746000Y-149096000D01*
X127889000Y-125222000D02*
X128776000Y-125222000D01*
X126619000Y-126492000D02*
X127889000Y-125222000D01*
X125157000Y-126492000D02*
X126619000Y-126492000D01*
X133094000Y-144399000D02*
X130600000Y-144399000D01*
X128397000Y-138176000D02*
X128397000Y-143891000D01*
X124983000Y-134762000D02*
X128397000Y-138176000D01*
X128397000Y-143891000D02*
X128905000Y-144399000D01*
X128905000Y-144399000D02*
X130600000Y-144399000D01*
X123248500Y-134762000D02*
X124983000Y-134762000D01*
X118491000Y-145667000D02*
X118491000Y-144780000D01*
X121793000Y-143129000D02*
X123400000Y-143129000D01*
X118745000Y-144526000D02*
X120396000Y-144526000D01*
X120396000Y-144526000D02*
X121793000Y-143129000D01*
X115936000Y-141927500D02*
X115936000Y-140604000D01*
X123400000Y-141434000D02*
X123400000Y-143129000D01*
X116713000Y-139827000D02*
X121793000Y-139827000D01*
X118491000Y-144780000D02*
X118745000Y-144526000D01*
X115936000Y-140604000D02*
X116713000Y-139827000D01*
X121793000Y-139827000D02*
X123400000Y-141434000D01*
X121397550Y-136120950D02*
X121539000Y-135979500D01*
X113479500Y-141927500D02*
X113411000Y-141859000D01*
X121397550Y-136120950D02*
X122106500Y-135412000D01*
X114636000Y-143047000D02*
X113919000Y-143764000D01*
X114636000Y-141927500D02*
X114636000Y-143047000D01*
X114636000Y-141927500D02*
X113479500Y-141927500D01*
X113919000Y-143764000D02*
X113919000Y-144524000D01*
X122106500Y-135412000D02*
X123248500Y-135412000D01*
X127792000Y-135412000D02*
X128973500Y-135412000D01*
X134874000Y-131445000D02*
X134366000Y-130937000D01*
X134239000Y-133223000D02*
X134874000Y-132588000D01*
X127000000Y-134620000D02*
X127792000Y-135412000D01*
X133098000Y-133223000D02*
X134239000Y-133223000D01*
X128270000Y-130937000D02*
X127000000Y-132207000D01*
X134874000Y-132588000D02*
X134874000Y-131445000D01*
X127000000Y-132207000D02*
X127000000Y-134620000D01*
X134366000Y-130937000D02*
X128270000Y-130937000D01*
X130317000Y-134762000D02*
X130556000Y-135001000D01*
X130556000Y-135001000D02*
X130556000Y-136271000D01*
X128973500Y-134762000D02*
X130317000Y-134762000D01*
X130556000Y-136271000D02*
X130937000Y-136652000D01*
X130937000Y-136652000D02*
X132586000Y-136652000D01*
X110384000Y-125074000D02*
X110876500Y-124581500D01*
X110876500Y-123886000D02*
X120141000Y-123886000D01*
X110384000Y-125730000D02*
X110384000Y-125074000D01*
X120141000Y-123886000D02*
X120207000Y-123952000D01*
X110876500Y-124581500D02*
X110876500Y-123886000D01*
X124653000Y-150307000D02*
X124460000Y-150114000D01*
X124460000Y-150114000D02*
X123573000Y-150114000D01*
X125801500Y-150307000D02*
X124653000Y-150307000D01*
X129601000Y-150307000D02*
X129921000Y-149987000D01*
X129921000Y-149987000D02*
X131443000Y-149987000D01*
X128076500Y-150307000D02*
X129601000Y-150307000D01*
X128076500Y-151257000D02*
X131443000Y-151257000D01*
X119380000Y-134112000D02*
X123248500Y-134112000D01*
X110361000Y-116205000D02*
X109474000Y-116205000D01*
X107061000Y-126492000D02*
X109474000Y-128905000D01*
X107061000Y-118618000D02*
X107061000Y-126492000D01*
X109474000Y-116205000D02*
X107061000Y-118618000D01*
X118618000Y-128905000D02*
X119380000Y-129667000D01*
X109474000Y-128905000D02*
X118618000Y-128905000D01*
X132334000Y-118618000D02*
X141351000Y-118618000D01*
X141351000Y-118618000D02*
X142369000Y-117600000D01*
X121524000Y-133462000D02*
X123248500Y-133462000D01*
X142369000Y-117600000D02*
X142369000Y-116205000D01*
X121285000Y-133223000D02*
X121524000Y-133462000D01*
X125476000Y-131064000D02*
X125476000Y-133985000D01*
X127553000Y-136062000D02*
X128973500Y-136062000D01*
X123444000Y-129032000D02*
X125476000Y-131064000D01*
X123888500Y-122682000D02*
X123444000Y-123126500D01*
X123444000Y-123126500D02*
X123444000Y-129032000D01*
X125476000Y-133985000D02*
X127553000Y-136062000D01*
X125157000Y-122682000D02*
X123888500Y-122682000D01*
X123825000Y-121412000D02*
X125157000Y-121412000D01*
X121793000Y-131445000D02*
X122936000Y-130302000D01*
X122207500Y-132812000D02*
X121793000Y-132397500D01*
X123248500Y-132162000D02*
X122219000Y-132162000D01*
X122219000Y-132162000D02*
X121793000Y-131736000D01*
X123248500Y-132812000D02*
X122207500Y-132812000D01*
X122936000Y-130302000D02*
X122936000Y-122301000D01*
X121793000Y-131736000D02*
X121793000Y-131445000D01*
X122936000Y-122301000D02*
X123825000Y-121412000D01*
X121793000Y-132397500D02*
X121793000Y-131736000D01*
X129159000Y-146939000D02*
X130600000Y-146939000D01*
X126746000Y-140970000D02*
X126746000Y-144526000D01*
X123825000Y-138049000D02*
X126746000Y-140970000D01*
X118536000Y-136202500D02*
X118536000Y-137459000D01*
X119126000Y-138049000D02*
X123825000Y-138049000D01*
X118536000Y-137459000D02*
X119126000Y-138049000D01*
X126746000Y-144526000D02*
X129159000Y-146939000D01*
X132588000Y-145669000D02*
X130600000Y-145669000D01*
X118237000Y-140589000D02*
X117886000Y-140940000D01*
X119507000Y-140589000D02*
X118237000Y-140589000D01*
X117886000Y-140940000D02*
X117886000Y-141927500D01*
X120142000Y-141224000D02*
X119507000Y-140589000D01*
X120142000Y-142621000D02*
X120142000Y-141224000D01*
X143764000Y-151150004D02*
X143764000Y-147447000D01*
X147828000Y-138430000D02*
X146713000Y-137315000D01*
X140015000Y-140843000D02*
X140015000Y-138325900D01*
X140319000Y-142494000D02*
X140015000Y-142190000D01*
X139773502Y-155140502D02*
X143764000Y-151150004D01*
X145796000Y-137315000D02*
X144393000Y-137315000D01*
X141732000Y-141859000D02*
X141097000Y-142494000D01*
X144393000Y-137815000D02*
X145296000Y-137815000D01*
X145296000Y-137815000D02*
X145796000Y-137315000D01*
X141224000Y-138303000D02*
X141224000Y-141589000D01*
X141097000Y-142494000D02*
X140319000Y-142494000D01*
X144393000Y-137815000D02*
X142474000Y-137815000D01*
X147828000Y-143383000D02*
X147828000Y-138430000D01*
X146713000Y-137315000D02*
X145796000Y-137315000D01*
X144393000Y-137315000D02*
X142212000Y-137315000D01*
X141224000Y-141589000D02*
X140319000Y-142494000D01*
X141732000Y-138557000D02*
X141732000Y-141859000D01*
X142212000Y-137315000D02*
X141224000Y-138303000D01*
X140015000Y-142190000D02*
X140015000Y-140843000D01*
X140015000Y-138325900D02*
X139992100Y-138303000D01*
X143764000Y-147447000D02*
X147828000Y-143383000D01*
X142474000Y-137815000D02*
X141732000Y-138557000D01*
X135509000Y-129413000D02*
X133496000Y-127400000D01*
X137157000Y-129413000D02*
X135890000Y-129413000D01*
X133496000Y-127400000D02*
X133496000Y-125268000D01*
X135509000Y-150876000D02*
X135509000Y-129413000D01*
X137086498Y-152453498D02*
X135509000Y-150876000D01*
X135636000Y-129413000D02*
X135890000Y-129413000D01*
X135509000Y-129413000D02*
X135636000Y-129413000D01*
X137546500Y-149225000D02*
X135509000Y-149225000D01*
X135385000Y-123063000D02*
X137157000Y-123063000D01*
X135396000Y-125268000D02*
X135396000Y-123074000D01*
X135396000Y-123074000D02*
X135385000Y-123063000D01*
X114930000Y-116205000D02*
X115057000Y-116078000D01*
X111381000Y-116205000D02*
X114930000Y-116205000D01*
X137673000Y-116205000D02*
X141349000Y-116205000D01*
%TA.AperFunction,Conductor*%
G36*
X115132039Y-149879685D02*
G01*
X115177794Y-149932489D01*
X115189000Y-149984000D01*
X115189000Y-151895000D01*
X115169315Y-151962039D01*
X115116511Y-152007794D01*
X115065000Y-152019000D01*
X114823509Y-152019000D01*
X114758471Y-151999902D01*
X114758359Y-152000098D01*
X114757554Y-151999633D01*
X114756470Y-151999315D01*
X114753577Y-151997337D01*
X114752733Y-151996850D01*
X114579807Y-151919857D01*
X114579802Y-151919855D01*
X114434001Y-151888865D01*
X114394646Y-151880500D01*
X114205354Y-151880500D01*
X114172897Y-151887398D01*
X114020197Y-151919855D01*
X114020192Y-151919857D01*
X113847266Y-151996850D01*
X113841641Y-152000098D01*
X113840674Y-151998424D01*
X113783561Y-152018798D01*
X113776491Y-152019000D01*
X112854854Y-152019000D01*
X112787815Y-151999315D01*
X112742060Y-151946511D01*
X112732116Y-151877353D01*
X112746023Y-151835571D01*
X112749453Y-151829288D01*
X112799696Y-151694579D01*
X112799698Y-151694572D01*
X112806099Y-151635044D01*
X112806100Y-151635027D01*
X112806100Y-151587200D01*
X111972900Y-151587200D01*
X111905861Y-151567515D01*
X111860106Y-151514711D01*
X111848900Y-151463200D01*
X111848900Y-150680800D01*
X112255300Y-150680800D01*
X112255300Y-151180800D01*
X112806100Y-151180800D01*
X112806100Y-151132972D01*
X112806099Y-151132955D01*
X112799698Y-151073427D01*
X112799696Y-151073420D01*
X112749454Y-150938713D01*
X112749450Y-150938706D01*
X112663290Y-150823612D01*
X112663287Y-150823609D01*
X112548193Y-150737449D01*
X112548186Y-150737445D01*
X112413479Y-150687203D01*
X112413472Y-150687201D01*
X112353944Y-150680800D01*
X112255300Y-150680800D01*
X111848900Y-150680800D01*
X111757000Y-150680800D01*
X111689961Y-150661115D01*
X111644206Y-150608311D01*
X111633000Y-150556800D01*
X111633000Y-149984000D01*
X111652685Y-149916961D01*
X111705489Y-149871206D01*
X111757000Y-149860000D01*
X115065000Y-149860000D01*
X115132039Y-149879685D01*
G37*
%TD.AperFunction*%
M02*
