%TF.GenerationSoftware,KiCad,Pcbnew,7.0.9*%
%TF.CreationDate,2023-12-18T09:55:38-05:00*%
%TF.ProjectId,_HW_EPaper,5f48575f-4550-4617-9065-722e6b696361,v1.0*%
%TF.SameCoordinates,Original*%
%TF.FileFunction,Soldermask,Top*%
%TF.FilePolarity,Negative*%
%FSLAX46Y46*%
G04 Gerber Fmt 4.6, Leading zero omitted, Abs format (unit mm)*
G04 Created by KiCad (PCBNEW 7.0.9) date 2023-12-18 09:55:38*
%MOMM*%
%LPD*%
G01*
G04 APERTURE LIST*
G04 Aperture macros list*
%AMRoundRect*
0 Rectangle with rounded corners*
0 $1 Rounding radius*
0 $2 $3 $4 $5 $6 $7 $8 $9 X,Y pos of 4 corners*
0 Add a 4 corners polygon primitive as box body*
4,1,4,$2,$3,$4,$5,$6,$7,$8,$9,$2,$3,0*
0 Add four circle primitives for the rounded corners*
1,1,$1+$1,$2,$3*
1,1,$1+$1,$4,$5*
1,1,$1+$1,$6,$7*
1,1,$1+$1,$8,$9*
0 Add four rect primitives between the rounded corners*
20,1,$1+$1,$2,$3,$4,$5,0*
20,1,$1+$1,$4,$5,$6,$7,0*
20,1,$1+$1,$6,$7,$8,$9,0*
20,1,$1+$1,$8,$9,$2,$3,0*%
%AMRotRect*
0 Rectangle, with rotation*
0 The origin of the aperture is its center*
0 $1 length*
0 $2 width*
0 $3 Rotation angle, in degrees counterclockwise*
0 Add horizontal line*
21,1,$1,$2,0,0,$3*%
G04 Aperture macros list end*
%ADD10R,1.300000X0.300000*%
%ADD11R,2.200000X1.800000*%
%ADD12RoundRect,0.135000X0.185000X-0.135000X0.185000X0.135000X-0.185000X0.135000X-0.185000X-0.135000X0*%
%ADD13RoundRect,0.147500X-0.147500X-0.172500X0.147500X-0.172500X0.147500X0.172500X-0.147500X0.172500X0*%
%ADD14RoundRect,0.140000X0.170000X-0.140000X0.170000X0.140000X-0.170000X0.140000X-0.170000X-0.140000X0*%
%ADD15RoundRect,0.140000X0.140000X0.170000X-0.140000X0.170000X-0.140000X-0.170000X0.140000X-0.170000X0*%
%ADD16RoundRect,0.135000X-0.185000X0.135000X-0.185000X-0.135000X0.185000X-0.135000X0.185000X0.135000X0*%
%ADD17RoundRect,0.250000X0.262500X0.450000X-0.262500X0.450000X-0.262500X-0.450000X0.262500X-0.450000X0*%
%ADD18RoundRect,0.250000X0.250000X0.475000X-0.250000X0.475000X-0.250000X-0.475000X0.250000X-0.475000X0*%
%ADD19C,2.100000*%
%ADD20C,1.750000*%
%ADD21R,0.508000X0.406400*%
%ADD22RoundRect,0.135000X-0.135000X-0.185000X0.135000X-0.185000X0.135000X0.185000X-0.135000X0.185000X0*%
%ADD23RoundRect,0.140000X-0.140000X-0.170000X0.140000X-0.170000X0.140000X0.170000X-0.140000X0.170000X0*%
%ADD24RoundRect,0.135000X0.135000X0.185000X-0.135000X0.185000X-0.135000X-0.185000X0.135000X-0.185000X0*%
%ADD25R,0.304800X0.558800*%
%ADD26RoundRect,0.150000X-0.650000X-0.150000X0.650000X-0.150000X0.650000X0.150000X-0.650000X0.150000X0*%
%ADD27R,1.700000X1.700000*%
%ADD28O,1.700000X1.700000*%
%ADD29RoundRect,0.150000X-0.587500X-0.150000X0.587500X-0.150000X0.587500X0.150000X-0.587500X0.150000X0*%
%ADD30C,3.000000*%
%ADD31RotRect,1.397000X1.498600X135.000000*%
%ADD32RoundRect,0.150000X0.825000X0.150000X-0.825000X0.150000X-0.825000X-0.150000X0.825000X-0.150000X0*%
%ADD33RoundRect,0.250000X0.300000X0.300000X-0.300000X0.300000X-0.300000X-0.300000X0.300000X-0.300000X0*%
%ADD34C,4.700000*%
%ADD35RoundRect,0.250000X-0.300000X-0.300000X0.300000X-0.300000X0.300000X0.300000X-0.300000X0.300000X0*%
%ADD36R,0.400000X1.350000*%
%ADD37O,0.890000X1.550000*%
%ADD38R,1.200000X1.550000*%
%ADD39O,1.250000X0.950000*%
%ADD40R,1.500000X1.550000*%
%ADD41RoundRect,0.150000X0.587500X0.150000X-0.587500X0.150000X-0.587500X-0.150000X0.587500X-0.150000X0*%
%ADD42RoundRect,0.250000X-0.250000X-0.475000X0.250000X-0.475000X0.250000X0.475000X-0.250000X0.475000X0*%
%ADD43RoundRect,0.100000X0.100000X-0.637500X0.100000X0.637500X-0.100000X0.637500X-0.100000X-0.637500X0*%
%ADD44RoundRect,0.100000X-0.637500X-0.100000X0.637500X-0.100000X0.637500X0.100000X-0.637500X0.100000X0*%
%ADD45RoundRect,0.150000X-0.512500X-0.150000X0.512500X-0.150000X0.512500X0.150000X-0.512500X0.150000X0*%
%ADD46RoundRect,0.218750X0.218750X0.256250X-0.218750X0.256250X-0.218750X-0.256250X0.218750X-0.256250X0*%
G04 APERTURE END LIST*
D10*
X144393000Y-144815000D03*
X144393000Y-144315000D03*
X144393000Y-143815000D03*
X144393000Y-143315000D03*
X144393000Y-142815000D03*
X144393000Y-142315000D03*
X144393000Y-141815000D03*
X144393000Y-141315000D03*
X144393000Y-140815000D03*
X144393000Y-140315000D03*
X144393000Y-139815000D03*
X144393000Y-139315000D03*
X144393000Y-138815000D03*
X144393000Y-138315000D03*
X144393000Y-137815000D03*
X144393000Y-137315000D03*
X144393000Y-136815000D03*
X144393000Y-136315000D03*
X144393000Y-135815000D03*
X144393000Y-135315000D03*
X144393000Y-134815000D03*
X144393000Y-134315000D03*
X144393000Y-133815000D03*
X144393000Y-133315000D03*
D11*
X147643000Y-146715000D03*
X147643000Y-131415000D03*
D12*
X117856000Y-133733000D03*
X117856000Y-132713000D03*
D13*
X120523000Y-150114000D03*
X121493000Y-150114000D03*
D14*
X114681000Y-133703000D03*
X114681000Y-132743000D03*
D15*
X140319000Y-142494000D03*
X139359000Y-142494000D03*
D16*
X116840000Y-144524000D03*
X116840000Y-145544000D03*
D17*
X139977500Y-146177000D03*
X138152500Y-146177000D03*
D18*
X140015000Y-131572000D03*
X138115000Y-131572000D03*
D19*
X120492000Y-159310500D03*
X113482000Y-159310500D03*
D20*
X119242000Y-161800500D03*
X114742000Y-161800500D03*
D21*
X137883900Y-137653001D03*
X137883900Y-138952999D03*
X139992100Y-138303000D03*
D18*
X140015000Y-135636000D03*
X138115000Y-135636000D03*
D12*
X118491000Y-146687000D03*
X118491000Y-145667000D03*
D18*
X140015000Y-144145000D03*
X138115000Y-144145000D03*
D15*
X115288000Y-153924000D03*
X114328000Y-153924000D03*
D22*
X132586000Y-136652000D03*
X133606000Y-136652000D03*
D21*
X109943900Y-150734001D03*
X109943900Y-152033999D03*
X112052100Y-151384000D03*
D23*
X132108000Y-132207000D03*
X133068000Y-132207000D03*
D24*
X110746000Y-140335000D03*
X109726000Y-140335000D03*
D23*
X133124000Y-143129000D03*
X134084000Y-143129000D03*
D22*
X122553000Y-150114000D03*
X123573000Y-150114000D03*
D25*
X110680500Y-146685000D03*
X110045500Y-146685000D03*
D12*
X115951000Y-133731000D03*
X115951000Y-132711000D03*
D26*
X123400000Y-143129000D03*
X123400000Y-144399000D03*
X123400000Y-145669000D03*
X123400000Y-146939000D03*
X130600000Y-146939000D03*
X130600000Y-145669000D03*
X130600000Y-144399000D03*
X130600000Y-143129000D03*
D12*
X115062000Y-145544000D03*
X115062000Y-144524000D03*
D24*
X115318000Y-155067000D03*
X114298000Y-155067000D03*
D27*
X115057000Y-116078000D03*
D28*
X117597000Y-116078000D03*
D29*
X111076500Y-121986000D03*
X111076500Y-123886000D03*
X112951500Y-122936000D03*
D27*
X122565000Y-116078000D03*
D28*
X125105000Y-116078000D03*
X127645000Y-116078000D03*
X130185000Y-116078000D03*
D30*
X104521000Y-122428000D03*
D22*
X128776000Y-125222000D03*
X129796000Y-125222000D03*
D23*
X128806000Y-122933000D03*
X129766000Y-122933000D03*
D25*
X110680500Y-141605000D03*
X110045500Y-141605000D03*
D22*
X131443000Y-151257000D03*
X132463000Y-151257000D03*
X110384000Y-125730000D03*
X111404000Y-125730000D03*
D24*
X112905000Y-148209000D03*
X111885000Y-148209000D03*
D22*
X109777600Y-142875000D03*
X110797600Y-142875000D03*
D31*
X139773502Y-155140502D03*
X137086498Y-152453498D03*
D12*
X120142000Y-146687000D03*
X120142000Y-145667000D03*
D22*
X132078000Y-133223000D03*
X133098000Y-133223000D03*
D18*
X140015000Y-127254000D03*
X138115000Y-127254000D03*
D24*
X134114000Y-144399000D03*
X133094000Y-144399000D03*
D32*
X125157000Y-127762000D03*
X125157000Y-126492000D03*
X125157000Y-125222000D03*
X125157000Y-123952000D03*
X125157000Y-122682000D03*
X125157000Y-121412000D03*
X125157000Y-120142000D03*
X120207000Y-120142000D03*
X120207000Y-121412000D03*
X120207000Y-122682000D03*
X120207000Y-123952000D03*
X120207000Y-125222000D03*
X120207000Y-126492000D03*
X120207000Y-127762000D03*
D24*
X110746000Y-148209000D03*
X109726000Y-148209000D03*
D30*
X143129000Y-161417000D03*
D25*
X121475500Y-154813000D03*
X120840500Y-154813000D03*
D33*
X139957000Y-129413000D03*
X137157000Y-129413000D03*
D34*
X148590000Y-161290000D03*
D12*
X113919000Y-145544000D03*
X113919000Y-144524000D03*
D22*
X109726000Y-135509000D03*
X110746000Y-135509000D03*
D35*
X132585000Y-123063000D03*
X135385000Y-123063000D03*
X137157000Y-123063000D03*
X139957000Y-123063000D03*
D18*
X140015000Y-133604000D03*
X138115000Y-133604000D03*
D36*
X125065000Y-159636000D03*
X125715000Y-159636000D03*
X126365000Y-159636000D03*
X127015000Y-159636000D03*
X127665000Y-159636000D03*
D37*
X122865000Y-162336000D03*
D38*
X123465000Y-162336000D03*
D39*
X123865000Y-159636000D03*
D40*
X125365000Y-162336000D03*
X127365000Y-162336000D03*
D39*
X128865000Y-159636000D03*
D38*
X129265000Y-162336000D03*
D37*
X129865000Y-162336000D03*
D27*
X106000000Y-147970000D03*
D28*
X106000000Y-145430000D03*
X106000000Y-142890000D03*
X106000000Y-140350000D03*
X106000000Y-137810000D03*
X106000000Y-135270000D03*
X106000000Y-132730000D03*
X106000000Y-130190000D03*
D13*
X128823000Y-126231000D03*
X129793000Y-126231000D03*
D19*
X139288000Y-159310500D03*
X132278000Y-159310500D03*
D20*
X138038000Y-161800500D03*
X133538000Y-161800500D03*
D25*
X110680500Y-137922000D03*
X110045500Y-137922000D03*
D24*
X132463000Y-155067000D03*
X131443000Y-155067000D03*
D41*
X139621500Y-150175000D03*
X139621500Y-148275000D03*
X137746500Y-149225000D03*
D18*
X140015000Y-140843000D03*
X138115000Y-140843000D03*
D34*
X148590000Y-116840000D03*
D27*
X137673000Y-116205000D03*
D28*
X135133000Y-116205000D03*
D42*
X133496000Y-125268000D03*
X135396000Y-125268000D03*
D22*
X110361000Y-116205000D03*
X111381000Y-116205000D03*
D24*
X142369000Y-116205000D03*
X141349000Y-116205000D03*
D42*
X110048000Y-154559000D03*
X111948000Y-154559000D03*
D18*
X123251000Y-152019000D03*
X121351000Y-152019000D03*
D22*
X109790688Y-145415000D03*
X110810688Y-145415000D03*
D18*
X140015000Y-120904000D03*
X138115000Y-120904000D03*
D43*
X114636000Y-141927500D03*
X115286000Y-141927500D03*
X115936000Y-141927500D03*
X116586000Y-141927500D03*
X117236000Y-141927500D03*
X117886000Y-141927500D03*
X118536000Y-141927500D03*
X118536000Y-136202500D03*
X117886000Y-136202500D03*
X117236000Y-136202500D03*
X116586000Y-136202500D03*
X115936000Y-136202500D03*
X115286000Y-136202500D03*
X114636000Y-136202500D03*
D34*
X104140000Y-116840000D03*
D17*
X130579500Y-129794000D03*
X128754500Y-129794000D03*
D27*
X106045000Y-152522000D03*
D28*
X106045000Y-155062000D03*
D44*
X123248500Y-132162000D03*
X123248500Y-132812000D03*
X123248500Y-133462000D03*
X123248500Y-134112000D03*
X123248500Y-134762000D03*
X123248500Y-135412000D03*
X123248500Y-136062000D03*
X128973500Y-136062000D03*
X128973500Y-135412000D03*
X128973500Y-134762000D03*
X128973500Y-134112000D03*
X128973500Y-133462000D03*
X128973500Y-132812000D03*
X128973500Y-132162000D03*
D22*
X131443000Y-149987000D03*
X132463000Y-149987000D03*
D23*
X128806000Y-127254000D03*
X129766000Y-127254000D03*
D24*
X110746000Y-136652000D03*
X109726000Y-136652000D03*
X133606000Y-137668000D03*
X132586000Y-137668000D03*
D23*
X128806000Y-128270000D03*
X129766000Y-128270000D03*
D25*
X110680500Y-144145000D03*
X110045500Y-144145000D03*
D45*
X125801500Y-150307000D03*
X125801500Y-151257000D03*
X125801500Y-152207000D03*
X128076500Y-152207000D03*
X128076500Y-151257000D03*
X128076500Y-150307000D03*
D34*
X104140000Y-161290000D03*
D22*
X109726000Y-139192000D03*
X110746000Y-139192000D03*
D24*
X129796000Y-123952000D03*
X128776000Y-123952000D03*
D46*
X124993500Y-154813000D03*
X123418500Y-154813000D03*
D15*
X132433000Y-153924000D03*
X131473000Y-153924000D03*
D18*
X140015000Y-125222000D03*
X138115000Y-125222000D03*
D23*
X110391000Y-120269000D03*
X111351000Y-120269000D03*
M02*
