%TF.GenerationSoftware,KiCad,Pcbnew,7.0.9*%
%TF.CreationDate,2023-12-18T09:55:38-05:00*%
%TF.ProjectId,_HW_EPaper,5f48575f-4550-4617-9065-722e6b696361,v1.0*%
%TF.SameCoordinates,Original*%
%TF.FileFunction,Legend,Top*%
%TF.FilePolarity,Positive*%
%FSLAX46Y46*%
G04 Gerber Fmt 4.6, Leading zero omitted, Abs format (unit mm)*
G04 Created by KiCad (PCBNEW 7.0.9) date 2023-12-18 09:55:38*
%MOMM*%
%LPD*%
G01*
G04 APERTURE LIST*
%ADD10C,0.150000*%
%ADD11C,0.127000*%
%ADD12C,0.120000*%
%ADD13C,0.100000*%
%ADD14C,0.152400*%
%ADD15C,0.508000*%
G04 APERTURE END LIST*
D10*
X102698779Y-158238819D02*
X102698779Y-157238819D01*
X102698779Y-157238819D02*
X103032112Y-157953104D01*
X103032112Y-157953104D02*
X103365445Y-157238819D01*
X103365445Y-157238819D02*
X103365445Y-158238819D01*
X103794017Y-157334057D02*
X103841636Y-157286438D01*
X103841636Y-157286438D02*
X103936874Y-157238819D01*
X103936874Y-157238819D02*
X104174969Y-157238819D01*
X104174969Y-157238819D02*
X104270207Y-157286438D01*
X104270207Y-157286438D02*
X104317826Y-157334057D01*
X104317826Y-157334057D02*
X104365445Y-157429295D01*
X104365445Y-157429295D02*
X104365445Y-157524533D01*
X104365445Y-157524533D02*
X104317826Y-157667390D01*
X104317826Y-157667390D02*
X103746398Y-158238819D01*
X103746398Y-158238819D02*
X104365445Y-158238819D01*
X104794017Y-158143580D02*
X104841636Y-158191200D01*
X104841636Y-158191200D02*
X104794017Y-158238819D01*
X104794017Y-158238819D02*
X104746398Y-158191200D01*
X104746398Y-158191200D02*
X104794017Y-158143580D01*
X104794017Y-158143580D02*
X104794017Y-158238819D01*
X105746397Y-157238819D02*
X105270207Y-157238819D01*
X105270207Y-157238819D02*
X105222588Y-157715009D01*
X105222588Y-157715009D02*
X105270207Y-157667390D01*
X105270207Y-157667390D02*
X105365445Y-157619771D01*
X105365445Y-157619771D02*
X105603540Y-157619771D01*
X105603540Y-157619771D02*
X105698778Y-157667390D01*
X105698778Y-157667390D02*
X105746397Y-157715009D01*
X105746397Y-157715009D02*
X105794016Y-157810247D01*
X105794016Y-157810247D02*
X105794016Y-158048342D01*
X105794016Y-158048342D02*
X105746397Y-158143580D01*
X105746397Y-158143580D02*
X105698778Y-158191200D01*
X105698778Y-158191200D02*
X105603540Y-158238819D01*
X105603540Y-158238819D02*
X105365445Y-158238819D01*
X105365445Y-158238819D02*
X105270207Y-158191200D01*
X105270207Y-158191200D02*
X105222588Y-158143580D01*
D11*
X117975837Y-149286371D02*
X118048409Y-149310561D01*
X118048409Y-149310561D02*
X118072599Y-149334752D01*
X118072599Y-149334752D02*
X118096790Y-149383133D01*
X118096790Y-149383133D02*
X118096790Y-149455704D01*
X118096790Y-149455704D02*
X118072599Y-149504085D01*
X118072599Y-149504085D02*
X118048409Y-149528276D01*
X118048409Y-149528276D02*
X118000028Y-149552466D01*
X118000028Y-149552466D02*
X117806504Y-149552466D01*
X117806504Y-149552466D02*
X117806504Y-149044466D01*
X117806504Y-149044466D02*
X117975837Y-149044466D01*
X117975837Y-149044466D02*
X118024218Y-149068656D01*
X118024218Y-149068656D02*
X118048409Y-149092847D01*
X118048409Y-149092847D02*
X118072599Y-149141228D01*
X118072599Y-149141228D02*
X118072599Y-149189609D01*
X118072599Y-149189609D02*
X118048409Y-149237990D01*
X118048409Y-149237990D02*
X118024218Y-149262180D01*
X118024218Y-149262180D02*
X117975837Y-149286371D01*
X117975837Y-149286371D02*
X117806504Y-149286371D01*
X118290313Y-149407323D02*
X118532218Y-149407323D01*
X118241932Y-149552466D02*
X118411266Y-149044466D01*
X118411266Y-149044466D02*
X118580599Y-149552466D01*
X118677361Y-149044466D02*
X118967647Y-149044466D01*
X118822504Y-149552466D02*
X118822504Y-149044466D01*
X119064409Y-149044466D02*
X119354695Y-149044466D01*
X119209552Y-149552466D02*
X119209552Y-149044466D01*
X118096790Y-150321965D02*
X118072599Y-150346156D01*
X118072599Y-150346156D02*
X118000028Y-150370346D01*
X118000028Y-150370346D02*
X117951647Y-150370346D01*
X117951647Y-150370346D02*
X117879075Y-150346156D01*
X117879075Y-150346156D02*
X117830694Y-150297775D01*
X117830694Y-150297775D02*
X117806504Y-150249394D01*
X117806504Y-150249394D02*
X117782313Y-150152632D01*
X117782313Y-150152632D02*
X117782313Y-150080060D01*
X117782313Y-150080060D02*
X117806504Y-149983298D01*
X117806504Y-149983298D02*
X117830694Y-149934917D01*
X117830694Y-149934917D02*
X117879075Y-149886536D01*
X117879075Y-149886536D02*
X117951647Y-149862346D01*
X117951647Y-149862346D02*
X118000028Y-149862346D01*
X118000028Y-149862346D02*
X118072599Y-149886536D01*
X118072599Y-149886536D02*
X118096790Y-149910727D01*
X118314504Y-150370346D02*
X118314504Y-149862346D01*
X118314504Y-150104251D02*
X118604790Y-150104251D01*
X118604790Y-150370346D02*
X118604790Y-149862346D01*
X119136980Y-150370346D02*
X118967646Y-150128441D01*
X118846694Y-150370346D02*
X118846694Y-149862346D01*
X118846694Y-149862346D02*
X119040218Y-149862346D01*
X119040218Y-149862346D02*
X119088599Y-149886536D01*
X119088599Y-149886536D02*
X119112789Y-149910727D01*
X119112789Y-149910727D02*
X119136980Y-149959108D01*
X119136980Y-149959108D02*
X119136980Y-150031679D01*
X119136980Y-150031679D02*
X119112789Y-150080060D01*
X119112789Y-150080060D02*
X119088599Y-150104251D01*
X119088599Y-150104251D02*
X119040218Y-150128441D01*
X119040218Y-150128441D02*
X118846694Y-150128441D01*
X119620789Y-149886536D02*
X119572408Y-149862346D01*
X119572408Y-149862346D02*
X119499837Y-149862346D01*
X119499837Y-149862346D02*
X119427265Y-149886536D01*
X119427265Y-149886536D02*
X119378884Y-149934917D01*
X119378884Y-149934917D02*
X119354694Y-149983298D01*
X119354694Y-149983298D02*
X119330503Y-150080060D01*
X119330503Y-150080060D02*
X119330503Y-150152632D01*
X119330503Y-150152632D02*
X119354694Y-150249394D01*
X119354694Y-150249394D02*
X119378884Y-150297775D01*
X119378884Y-150297775D02*
X119427265Y-150346156D01*
X119427265Y-150346156D02*
X119499837Y-150370346D01*
X119499837Y-150370346D02*
X119548218Y-150370346D01*
X119548218Y-150370346D02*
X119620789Y-150346156D01*
X119620789Y-150346156D02*
X119644980Y-150321965D01*
X119644980Y-150321965D02*
X119644980Y-150152632D01*
X119644980Y-150152632D02*
X119548218Y-150152632D01*
X117806504Y-151188226D02*
X117806504Y-150680226D01*
X118048409Y-151188226D02*
X118048409Y-150680226D01*
X118048409Y-150680226D02*
X118338695Y-151188226D01*
X118338695Y-151188226D02*
X118338695Y-150680226D01*
X118580599Y-151188226D02*
X118580599Y-150680226D01*
X118580599Y-150680226D02*
X118701551Y-150680226D01*
X118701551Y-150680226D02*
X118774123Y-150704416D01*
X118774123Y-150704416D02*
X118822504Y-150752797D01*
X118822504Y-150752797D02*
X118846694Y-150801178D01*
X118846694Y-150801178D02*
X118870885Y-150897940D01*
X118870885Y-150897940D02*
X118870885Y-150970512D01*
X118870885Y-150970512D02*
X118846694Y-151067274D01*
X118846694Y-151067274D02*
X118822504Y-151115655D01*
X118822504Y-151115655D02*
X118774123Y-151164036D01*
X118774123Y-151164036D02*
X118701551Y-151188226D01*
X118701551Y-151188226D02*
X118580599Y-151188226D01*
D10*
X134702779Y-118360866D02*
X135464684Y-118360866D01*
X137464684Y-118360866D02*
X138226589Y-118360866D01*
X137845636Y-118741819D02*
X137845636Y-117979914D01*
X139940874Y-118741819D02*
X139464684Y-118741819D01*
X139464684Y-118741819D02*
X139464684Y-117741819D01*
X140274208Y-118218009D02*
X140607541Y-118218009D01*
X140750398Y-118741819D02*
X140274208Y-118741819D01*
X140274208Y-118741819D02*
X140274208Y-117741819D01*
X140274208Y-117741819D02*
X140750398Y-117741819D01*
X141178970Y-118741819D02*
X141178970Y-117741819D01*
X141178970Y-117741819D02*
X141417065Y-117741819D01*
X141417065Y-117741819D02*
X141559922Y-117789438D01*
X141559922Y-117789438D02*
X141655160Y-117884676D01*
X141655160Y-117884676D02*
X141702779Y-117979914D01*
X141702779Y-117979914D02*
X141750398Y-118170390D01*
X141750398Y-118170390D02*
X141750398Y-118313247D01*
X141750398Y-118313247D02*
X141702779Y-118503723D01*
X141702779Y-118503723D02*
X141655160Y-118598961D01*
X141655160Y-118598961D02*
X141559922Y-118694200D01*
X141559922Y-118694200D02*
X141417065Y-118741819D01*
X141417065Y-118741819D02*
X141178970Y-118741819D01*
X142131351Y-117837057D02*
X142178970Y-117789438D01*
X142178970Y-117789438D02*
X142274208Y-117741819D01*
X142274208Y-117741819D02*
X142512303Y-117741819D01*
X142512303Y-117741819D02*
X142607541Y-117789438D01*
X142607541Y-117789438D02*
X142655160Y-117837057D01*
X142655160Y-117837057D02*
X142702779Y-117932295D01*
X142702779Y-117932295D02*
X142702779Y-118027533D01*
X142702779Y-118027533D02*
X142655160Y-118170390D01*
X142655160Y-118170390D02*
X142083732Y-118741819D01*
X142083732Y-118741819D02*
X142702779Y-118741819D01*
X116160779Y-158508819D02*
X116160779Y-159318342D01*
X116160779Y-159318342D02*
X116208398Y-159413580D01*
X116208398Y-159413580D02*
X116256017Y-159461200D01*
X116256017Y-159461200D02*
X116351255Y-159508819D01*
X116351255Y-159508819D02*
X116541731Y-159508819D01*
X116541731Y-159508819D02*
X116636969Y-159461200D01*
X116636969Y-159461200D02*
X116684588Y-159413580D01*
X116684588Y-159413580D02*
X116732207Y-159318342D01*
X116732207Y-159318342D02*
X116732207Y-158508819D01*
X117208398Y-159508819D02*
X117208398Y-158508819D01*
X117208398Y-158508819D02*
X117589350Y-158508819D01*
X117589350Y-158508819D02*
X117684588Y-158556438D01*
X117684588Y-158556438D02*
X117732207Y-158604057D01*
X117732207Y-158604057D02*
X117779826Y-158699295D01*
X117779826Y-158699295D02*
X117779826Y-158842152D01*
X117779826Y-158842152D02*
X117732207Y-158937390D01*
X117732207Y-158937390D02*
X117684588Y-158985009D01*
X117684588Y-158985009D02*
X117589350Y-159032628D01*
X117589350Y-159032628D02*
X117208398Y-159032628D01*
X102698779Y-120646819D02*
X102698779Y-119646819D01*
X102698779Y-119646819D02*
X103032112Y-120361104D01*
X103032112Y-120361104D02*
X103365445Y-119646819D01*
X103365445Y-119646819D02*
X103365445Y-120646819D01*
X103794017Y-119742057D02*
X103841636Y-119694438D01*
X103841636Y-119694438D02*
X103936874Y-119646819D01*
X103936874Y-119646819D02*
X104174969Y-119646819D01*
X104174969Y-119646819D02*
X104270207Y-119694438D01*
X104270207Y-119694438D02*
X104317826Y-119742057D01*
X104317826Y-119742057D02*
X104365445Y-119837295D01*
X104365445Y-119837295D02*
X104365445Y-119932533D01*
X104365445Y-119932533D02*
X104317826Y-120075390D01*
X104317826Y-120075390D02*
X103746398Y-120646819D01*
X103746398Y-120646819D02*
X104365445Y-120646819D01*
X104794017Y-120551580D02*
X104841636Y-120599200D01*
X104841636Y-120599200D02*
X104794017Y-120646819D01*
X104794017Y-120646819D02*
X104746398Y-120599200D01*
X104746398Y-120599200D02*
X104794017Y-120551580D01*
X104794017Y-120551580D02*
X104794017Y-120646819D01*
X105746397Y-119646819D02*
X105270207Y-119646819D01*
X105270207Y-119646819D02*
X105222588Y-120123009D01*
X105222588Y-120123009D02*
X105270207Y-120075390D01*
X105270207Y-120075390D02*
X105365445Y-120027771D01*
X105365445Y-120027771D02*
X105603540Y-120027771D01*
X105603540Y-120027771D02*
X105698778Y-120075390D01*
X105698778Y-120075390D02*
X105746397Y-120123009D01*
X105746397Y-120123009D02*
X105794016Y-120218247D01*
X105794016Y-120218247D02*
X105794016Y-120456342D01*
X105794016Y-120456342D02*
X105746397Y-120551580D01*
X105746397Y-120551580D02*
X105698778Y-120599200D01*
X105698778Y-120599200D02*
X105603540Y-120646819D01*
X105603540Y-120646819D02*
X105365445Y-120646819D01*
X105365445Y-120646819D02*
X105270207Y-120599200D01*
X105270207Y-120599200D02*
X105222588Y-120551580D01*
X108334133Y-152228779D02*
X108334133Y-152990684D01*
X107953180Y-152609731D02*
X108715085Y-152609731D01*
X108334133Y-154990684D02*
X108334133Y-155752589D01*
D11*
X130633504Y-125168466D02*
X130633504Y-124660466D01*
X130633504Y-124660466D02*
X130802837Y-125023323D01*
X130802837Y-125023323D02*
X130972171Y-124660466D01*
X130972171Y-124660466D02*
X130972171Y-125168466D01*
X131504361Y-125120085D02*
X131480170Y-125144276D01*
X131480170Y-125144276D02*
X131407599Y-125168466D01*
X131407599Y-125168466D02*
X131359218Y-125168466D01*
X131359218Y-125168466D02*
X131286646Y-125144276D01*
X131286646Y-125144276D02*
X131238265Y-125095895D01*
X131238265Y-125095895D02*
X131214075Y-125047514D01*
X131214075Y-125047514D02*
X131189884Y-124950752D01*
X131189884Y-124950752D02*
X131189884Y-124878180D01*
X131189884Y-124878180D02*
X131214075Y-124781418D01*
X131214075Y-124781418D02*
X131238265Y-124733037D01*
X131238265Y-124733037D02*
X131286646Y-124684656D01*
X131286646Y-124684656D02*
X131359218Y-124660466D01*
X131359218Y-124660466D02*
X131407599Y-124660466D01*
X131407599Y-124660466D02*
X131480170Y-124684656D01*
X131480170Y-124684656D02*
X131504361Y-124708847D01*
X131722075Y-124660466D02*
X131722075Y-125071704D01*
X131722075Y-125071704D02*
X131746265Y-125120085D01*
X131746265Y-125120085D02*
X131770456Y-125144276D01*
X131770456Y-125144276D02*
X131818837Y-125168466D01*
X131818837Y-125168466D02*
X131915599Y-125168466D01*
X131915599Y-125168466D02*
X131963980Y-125144276D01*
X131963980Y-125144276D02*
X131988170Y-125120085D01*
X131988170Y-125120085D02*
X132012361Y-125071704D01*
X132012361Y-125071704D02*
X132012361Y-124660466D01*
X130633504Y-125986346D02*
X130633504Y-125478346D01*
X130633504Y-125478346D02*
X130827028Y-125478346D01*
X130827028Y-125478346D02*
X130875409Y-125502536D01*
X130875409Y-125502536D02*
X130899599Y-125526727D01*
X130899599Y-125526727D02*
X130923790Y-125575108D01*
X130923790Y-125575108D02*
X130923790Y-125647679D01*
X130923790Y-125647679D02*
X130899599Y-125696060D01*
X130899599Y-125696060D02*
X130875409Y-125720251D01*
X130875409Y-125720251D02*
X130827028Y-125744441D01*
X130827028Y-125744441D02*
X130633504Y-125744441D01*
X131431790Y-125986346D02*
X131262456Y-125744441D01*
X131141504Y-125986346D02*
X131141504Y-125478346D01*
X131141504Y-125478346D02*
X131335028Y-125478346D01*
X131335028Y-125478346D02*
X131383409Y-125502536D01*
X131383409Y-125502536D02*
X131407599Y-125526727D01*
X131407599Y-125526727D02*
X131431790Y-125575108D01*
X131431790Y-125575108D02*
X131431790Y-125647679D01*
X131431790Y-125647679D02*
X131407599Y-125696060D01*
X131407599Y-125696060D02*
X131383409Y-125720251D01*
X131383409Y-125720251D02*
X131335028Y-125744441D01*
X131335028Y-125744441D02*
X131141504Y-125744441D01*
X131939790Y-125937965D02*
X131915599Y-125962156D01*
X131915599Y-125962156D02*
X131843028Y-125986346D01*
X131843028Y-125986346D02*
X131794647Y-125986346D01*
X131794647Y-125986346D02*
X131722075Y-125962156D01*
X131722075Y-125962156D02*
X131673694Y-125913775D01*
X131673694Y-125913775D02*
X131649504Y-125865394D01*
X131649504Y-125865394D02*
X131625313Y-125768632D01*
X131625313Y-125768632D02*
X131625313Y-125696060D01*
X131625313Y-125696060D02*
X131649504Y-125599298D01*
X131649504Y-125599298D02*
X131673694Y-125550917D01*
X131673694Y-125550917D02*
X131722075Y-125502536D01*
X131722075Y-125502536D02*
X131794647Y-125478346D01*
X131794647Y-125478346D02*
X131843028Y-125478346D01*
X131843028Y-125478346D02*
X131915599Y-125502536D01*
X131915599Y-125502536D02*
X131939790Y-125526727D01*
X132133313Y-125962156D02*
X132205885Y-125986346D01*
X132205885Y-125986346D02*
X132326837Y-125986346D01*
X132326837Y-125986346D02*
X132375218Y-125962156D01*
X132375218Y-125962156D02*
X132399409Y-125937965D01*
X132399409Y-125937965D02*
X132423599Y-125889584D01*
X132423599Y-125889584D02*
X132423599Y-125841203D01*
X132423599Y-125841203D02*
X132399409Y-125792822D01*
X132399409Y-125792822D02*
X132375218Y-125768632D01*
X132375218Y-125768632D02*
X132326837Y-125744441D01*
X132326837Y-125744441D02*
X132230075Y-125720251D01*
X132230075Y-125720251D02*
X132181694Y-125696060D01*
X132181694Y-125696060D02*
X132157504Y-125671870D01*
X132157504Y-125671870D02*
X132133313Y-125623489D01*
X132133313Y-125623489D02*
X132133313Y-125575108D01*
X132133313Y-125575108D02*
X132157504Y-125526727D01*
X132157504Y-125526727D02*
X132181694Y-125502536D01*
X132181694Y-125502536D02*
X132230075Y-125478346D01*
X132230075Y-125478346D02*
X132351028Y-125478346D01*
X132351028Y-125478346D02*
X132423599Y-125502536D01*
X130633504Y-126804226D02*
X130633504Y-126296226D01*
X130875409Y-126804226D02*
X130875409Y-126296226D01*
X130875409Y-126296226D02*
X131165695Y-126804226D01*
X131165695Y-126804226D02*
X131165695Y-126296226D01*
X131407599Y-126804226D02*
X131407599Y-126296226D01*
X131407599Y-126296226D02*
X131528551Y-126296226D01*
X131528551Y-126296226D02*
X131601123Y-126320416D01*
X131601123Y-126320416D02*
X131649504Y-126368797D01*
X131649504Y-126368797D02*
X131673694Y-126417178D01*
X131673694Y-126417178D02*
X131697885Y-126513940D01*
X131697885Y-126513940D02*
X131697885Y-126586512D01*
X131697885Y-126586512D02*
X131673694Y-126683274D01*
X131673694Y-126683274D02*
X131649504Y-126731655D01*
X131649504Y-126731655D02*
X131601123Y-126780036D01*
X131601123Y-126780036D02*
X131528551Y-126804226D01*
X131528551Y-126804226D02*
X131407599Y-126804226D01*
D10*
X145576534Y-129132887D02*
X144687534Y-129132887D01*
X144687534Y-129132887D02*
X144687534Y-128842601D01*
X144687534Y-128842601D02*
X144729867Y-128770030D01*
X144729867Y-128770030D02*
X144772201Y-128733744D01*
X144772201Y-128733744D02*
X144856867Y-128697458D01*
X144856867Y-128697458D02*
X144983867Y-128697458D01*
X144983867Y-128697458D02*
X145068534Y-128733744D01*
X145068534Y-128733744D02*
X145110867Y-128770030D01*
X145110867Y-128770030D02*
X145153201Y-128842601D01*
X145153201Y-128842601D02*
X145153201Y-129132887D01*
X145576534Y-128370887D02*
X144983867Y-128370887D01*
X145153201Y-128370887D02*
X145068534Y-128334601D01*
X145068534Y-128334601D02*
X145026201Y-128298316D01*
X145026201Y-128298316D02*
X144983867Y-128225744D01*
X144983867Y-128225744D02*
X144983867Y-128153173D01*
X144983867Y-127899173D02*
X145745867Y-127899173D01*
X145745867Y-127899173D02*
X145830534Y-127935459D01*
X145830534Y-127935459D02*
X145872867Y-128008030D01*
X145872867Y-128008030D02*
X145872867Y-128044316D01*
X144687534Y-127899173D02*
X144729867Y-127935459D01*
X144729867Y-127935459D02*
X144772201Y-127899173D01*
X144772201Y-127899173D02*
X144729867Y-127862887D01*
X144729867Y-127862887D02*
X144687534Y-127899173D01*
X144687534Y-127899173D02*
X144772201Y-127899173D01*
X145491867Y-127536316D02*
X145534201Y-127500030D01*
X145534201Y-127500030D02*
X145576534Y-127536316D01*
X145576534Y-127536316D02*
X145534201Y-127572602D01*
X145534201Y-127572602D02*
X145491867Y-127536316D01*
X145491867Y-127536316D02*
X145576534Y-127536316D01*
X145026201Y-127536316D02*
X145068534Y-127500030D01*
X145068534Y-127500030D02*
X145110867Y-127536316D01*
X145110867Y-127536316D02*
X145068534Y-127572602D01*
X145068534Y-127572602D02*
X145026201Y-127536316D01*
X145026201Y-127536316D02*
X145110867Y-127536316D01*
X145661201Y-126193746D02*
X145661201Y-125613174D01*
X145576534Y-125431746D02*
X144687534Y-125431746D01*
X145110867Y-125431746D02*
X145110867Y-124996317D01*
X145576534Y-124996317D02*
X144687534Y-124996317D01*
X144687534Y-124706031D02*
X145576534Y-124524603D01*
X145576534Y-124524603D02*
X144941534Y-124379460D01*
X144941534Y-124379460D02*
X145576534Y-124234317D01*
X145576534Y-124234317D02*
X144687534Y-124052889D01*
X145661201Y-123944032D02*
X145661201Y-123363460D01*
X145110867Y-123182032D02*
X145110867Y-122928032D01*
X145576534Y-122819175D02*
X145576534Y-123182032D01*
X145576534Y-123182032D02*
X144687534Y-123182032D01*
X144687534Y-123182032D02*
X144687534Y-122819175D01*
X145576534Y-122492603D02*
X144687534Y-122492603D01*
X144687534Y-122492603D02*
X144687534Y-122202317D01*
X144687534Y-122202317D02*
X144729867Y-122129746D01*
X144729867Y-122129746D02*
X144772201Y-122093460D01*
X144772201Y-122093460D02*
X144856867Y-122057174D01*
X144856867Y-122057174D02*
X144983867Y-122057174D01*
X144983867Y-122057174D02*
X145068534Y-122093460D01*
X145068534Y-122093460D02*
X145110867Y-122129746D01*
X145110867Y-122129746D02*
X145153201Y-122202317D01*
X145153201Y-122202317D02*
X145153201Y-122492603D01*
X145576534Y-121404032D02*
X145110867Y-121404032D01*
X145110867Y-121404032D02*
X145026201Y-121440317D01*
X145026201Y-121440317D02*
X144983867Y-121512889D01*
X144983867Y-121512889D02*
X144983867Y-121658032D01*
X144983867Y-121658032D02*
X145026201Y-121730603D01*
X145534201Y-121404032D02*
X145576534Y-121476603D01*
X145576534Y-121476603D02*
X145576534Y-121658032D01*
X145576534Y-121658032D02*
X145534201Y-121730603D01*
X145534201Y-121730603D02*
X145449534Y-121766889D01*
X145449534Y-121766889D02*
X145364867Y-121766889D01*
X145364867Y-121766889D02*
X145280201Y-121730603D01*
X145280201Y-121730603D02*
X145237867Y-121658032D01*
X145237867Y-121658032D02*
X145237867Y-121476603D01*
X145237867Y-121476603D02*
X145195534Y-121404032D01*
X144983867Y-121041174D02*
X145872867Y-121041174D01*
X145026201Y-121041174D02*
X144983867Y-120968603D01*
X144983867Y-120968603D02*
X144983867Y-120823460D01*
X144983867Y-120823460D02*
X145026201Y-120750888D01*
X145026201Y-120750888D02*
X145068534Y-120714603D01*
X145068534Y-120714603D02*
X145153201Y-120678317D01*
X145153201Y-120678317D02*
X145407201Y-120678317D01*
X145407201Y-120678317D02*
X145491867Y-120714603D01*
X145491867Y-120714603D02*
X145534201Y-120750888D01*
X145534201Y-120750888D02*
X145576534Y-120823460D01*
X145576534Y-120823460D02*
X145576534Y-120968603D01*
X145576534Y-120968603D02*
X145534201Y-121041174D01*
X145534201Y-120061459D02*
X145576534Y-120134031D01*
X145576534Y-120134031D02*
X145576534Y-120279174D01*
X145576534Y-120279174D02*
X145534201Y-120351745D01*
X145534201Y-120351745D02*
X145449534Y-120388031D01*
X145449534Y-120388031D02*
X145110867Y-120388031D01*
X145110867Y-120388031D02*
X145026201Y-120351745D01*
X145026201Y-120351745D02*
X144983867Y-120279174D01*
X144983867Y-120279174D02*
X144983867Y-120134031D01*
X144983867Y-120134031D02*
X145026201Y-120061459D01*
X145026201Y-120061459D02*
X145110867Y-120025174D01*
X145110867Y-120025174D02*
X145195534Y-120025174D01*
X145195534Y-120025174D02*
X145280201Y-120388031D01*
X145576534Y-119698602D02*
X144983867Y-119698602D01*
X145153201Y-119698602D02*
X145068534Y-119662316D01*
X145068534Y-119662316D02*
X145026201Y-119626031D01*
X145026201Y-119626031D02*
X144983867Y-119553459D01*
X144983867Y-119553459D02*
X144983867Y-119480888D01*
X146118824Y-129241744D02*
X147007824Y-128987744D01*
X147007824Y-128987744D02*
X146118824Y-128733744D01*
X146965491Y-128189458D02*
X147007824Y-128262030D01*
X147007824Y-128262030D02*
X147007824Y-128407173D01*
X147007824Y-128407173D02*
X146965491Y-128479744D01*
X146965491Y-128479744D02*
X146880824Y-128516030D01*
X146880824Y-128516030D02*
X146542157Y-128516030D01*
X146542157Y-128516030D02*
X146457491Y-128479744D01*
X146457491Y-128479744D02*
X146415157Y-128407173D01*
X146415157Y-128407173D02*
X146415157Y-128262030D01*
X146415157Y-128262030D02*
X146457491Y-128189458D01*
X146457491Y-128189458D02*
X146542157Y-128153173D01*
X146542157Y-128153173D02*
X146626824Y-128153173D01*
X146626824Y-128153173D02*
X146711491Y-128516030D01*
X147007824Y-127826601D02*
X146415157Y-127826601D01*
X146584491Y-127826601D02*
X146499824Y-127790315D01*
X146499824Y-127790315D02*
X146457491Y-127754030D01*
X146457491Y-127754030D02*
X146415157Y-127681458D01*
X146415157Y-127681458D02*
X146415157Y-127608887D01*
X146923157Y-127354887D02*
X146965491Y-127318601D01*
X146965491Y-127318601D02*
X147007824Y-127354887D01*
X147007824Y-127354887D02*
X146965491Y-127391173D01*
X146965491Y-127391173D02*
X146923157Y-127354887D01*
X146923157Y-127354887D02*
X147007824Y-127354887D01*
X146457491Y-127354887D02*
X146499824Y-127318601D01*
X146499824Y-127318601D02*
X146542157Y-127354887D01*
X146542157Y-127354887D02*
X146499824Y-127391173D01*
X146499824Y-127391173D02*
X146457491Y-127354887D01*
X146457491Y-127354887D02*
X146542157Y-127354887D01*
X146415157Y-125903459D02*
X147007824Y-125722031D01*
X147007824Y-125722031D02*
X146415157Y-125540602D01*
X147007824Y-124851174D02*
X147007824Y-125286603D01*
X147007824Y-125068888D02*
X146118824Y-125068888D01*
X146118824Y-125068888D02*
X146245824Y-125141460D01*
X146245824Y-125141460D02*
X146330491Y-125214031D01*
X146330491Y-125214031D02*
X146372824Y-125286603D01*
X146923157Y-124524603D02*
X146965491Y-124488317D01*
X146965491Y-124488317D02*
X147007824Y-124524603D01*
X147007824Y-124524603D02*
X146965491Y-124560889D01*
X146965491Y-124560889D02*
X146923157Y-124524603D01*
X146923157Y-124524603D02*
X147007824Y-124524603D01*
X146118824Y-124016603D02*
X146118824Y-123944032D01*
X146118824Y-123944032D02*
X146161157Y-123871460D01*
X146161157Y-123871460D02*
X146203491Y-123835175D01*
X146203491Y-123835175D02*
X146288157Y-123798889D01*
X146288157Y-123798889D02*
X146457491Y-123762603D01*
X146457491Y-123762603D02*
X146669157Y-123762603D01*
X146669157Y-123762603D02*
X146838491Y-123798889D01*
X146838491Y-123798889D02*
X146923157Y-123835175D01*
X146923157Y-123835175D02*
X146965491Y-123871460D01*
X146965491Y-123871460D02*
X147007824Y-123944032D01*
X147007824Y-123944032D02*
X147007824Y-124016603D01*
X147007824Y-124016603D02*
X146965491Y-124089175D01*
X146965491Y-124089175D02*
X146923157Y-124125460D01*
X146923157Y-124125460D02*
X146838491Y-124161746D01*
X146838491Y-124161746D02*
X146669157Y-124198032D01*
X146669157Y-124198032D02*
X146457491Y-124198032D01*
X146457491Y-124198032D02*
X146288157Y-124161746D01*
X146288157Y-124161746D02*
X146203491Y-124125460D01*
X146203491Y-124125460D02*
X146161157Y-124089175D01*
X146161157Y-124089175D02*
X146118824Y-124016603D01*
X148439114Y-129132887D02*
X147550114Y-129132887D01*
X147550114Y-129132887D02*
X147550114Y-128951458D01*
X147550114Y-128951458D02*
X147592447Y-128842601D01*
X147592447Y-128842601D02*
X147677114Y-128770030D01*
X147677114Y-128770030D02*
X147761781Y-128733744D01*
X147761781Y-128733744D02*
X147931114Y-128697458D01*
X147931114Y-128697458D02*
X148058114Y-128697458D01*
X148058114Y-128697458D02*
X148227447Y-128733744D01*
X148227447Y-128733744D02*
X148312114Y-128770030D01*
X148312114Y-128770030D02*
X148396781Y-128842601D01*
X148396781Y-128842601D02*
X148439114Y-128951458D01*
X148439114Y-128951458D02*
X148439114Y-129132887D01*
X148439114Y-128044316D02*
X147973447Y-128044316D01*
X147973447Y-128044316D02*
X147888781Y-128080601D01*
X147888781Y-128080601D02*
X147846447Y-128153173D01*
X147846447Y-128153173D02*
X147846447Y-128298316D01*
X147846447Y-128298316D02*
X147888781Y-128370887D01*
X148396781Y-128044316D02*
X148439114Y-128116887D01*
X148439114Y-128116887D02*
X148439114Y-128298316D01*
X148439114Y-128298316D02*
X148396781Y-128370887D01*
X148396781Y-128370887D02*
X148312114Y-128407173D01*
X148312114Y-128407173D02*
X148227447Y-128407173D01*
X148227447Y-128407173D02*
X148142781Y-128370887D01*
X148142781Y-128370887D02*
X148100447Y-128298316D01*
X148100447Y-128298316D02*
X148100447Y-128116887D01*
X148100447Y-128116887D02*
X148058114Y-128044316D01*
X147846447Y-127790315D02*
X147846447Y-127500029D01*
X147550114Y-127681458D02*
X148312114Y-127681458D01*
X148312114Y-127681458D02*
X148396781Y-127645172D01*
X148396781Y-127645172D02*
X148439114Y-127572601D01*
X148439114Y-127572601D02*
X148439114Y-127500029D01*
X148396781Y-126955743D02*
X148439114Y-127028315D01*
X148439114Y-127028315D02*
X148439114Y-127173458D01*
X148439114Y-127173458D02*
X148396781Y-127246029D01*
X148396781Y-127246029D02*
X148312114Y-127282315D01*
X148312114Y-127282315D02*
X147973447Y-127282315D01*
X147973447Y-127282315D02*
X147888781Y-127246029D01*
X147888781Y-127246029D02*
X147846447Y-127173458D01*
X147846447Y-127173458D02*
X147846447Y-127028315D01*
X147846447Y-127028315D02*
X147888781Y-126955743D01*
X147888781Y-126955743D02*
X147973447Y-126919458D01*
X147973447Y-126919458D02*
X148058114Y-126919458D01*
X148058114Y-126919458D02*
X148142781Y-127282315D01*
X148354447Y-126592886D02*
X148396781Y-126556600D01*
X148396781Y-126556600D02*
X148439114Y-126592886D01*
X148439114Y-126592886D02*
X148396781Y-126629172D01*
X148396781Y-126629172D02*
X148354447Y-126592886D01*
X148354447Y-126592886D02*
X148439114Y-126592886D01*
X147888781Y-126592886D02*
X147931114Y-126556600D01*
X147931114Y-126556600D02*
X147973447Y-126592886D01*
X147973447Y-126592886D02*
X147931114Y-126629172D01*
X147931114Y-126629172D02*
X147888781Y-126592886D01*
X147888781Y-126592886D02*
X147973447Y-126592886D01*
X147634781Y-125685744D02*
X147592447Y-125649458D01*
X147592447Y-125649458D02*
X147550114Y-125576887D01*
X147550114Y-125576887D02*
X147550114Y-125395458D01*
X147550114Y-125395458D02*
X147592447Y-125322887D01*
X147592447Y-125322887D02*
X147634781Y-125286601D01*
X147634781Y-125286601D02*
X147719447Y-125250315D01*
X147719447Y-125250315D02*
X147804114Y-125250315D01*
X147804114Y-125250315D02*
X147931114Y-125286601D01*
X147931114Y-125286601D02*
X148439114Y-125722029D01*
X148439114Y-125722029D02*
X148439114Y-125250315D01*
X147550114Y-124996315D02*
X147550114Y-124524601D01*
X147550114Y-124524601D02*
X147888781Y-124778601D01*
X147888781Y-124778601D02*
X147888781Y-124669744D01*
X147888781Y-124669744D02*
X147931114Y-124597173D01*
X147931114Y-124597173D02*
X147973447Y-124560887D01*
X147973447Y-124560887D02*
X148058114Y-124524601D01*
X148058114Y-124524601D02*
X148269781Y-124524601D01*
X148269781Y-124524601D02*
X148354447Y-124560887D01*
X148354447Y-124560887D02*
X148396781Y-124597173D01*
X148396781Y-124597173D02*
X148439114Y-124669744D01*
X148439114Y-124669744D02*
X148439114Y-124887458D01*
X148439114Y-124887458D02*
X148396781Y-124960030D01*
X148396781Y-124960030D02*
X148354447Y-124996315D01*
X147507781Y-123653744D02*
X148650781Y-124306887D01*
X148439114Y-123000601D02*
X148439114Y-123436030D01*
X148439114Y-123218315D02*
X147550114Y-123218315D01*
X147550114Y-123218315D02*
X147677114Y-123290887D01*
X147677114Y-123290887D02*
X147761781Y-123363458D01*
X147761781Y-123363458D02*
X147804114Y-123436030D01*
X147634781Y-122710316D02*
X147592447Y-122674030D01*
X147592447Y-122674030D02*
X147550114Y-122601459D01*
X147550114Y-122601459D02*
X147550114Y-122420030D01*
X147550114Y-122420030D02*
X147592447Y-122347459D01*
X147592447Y-122347459D02*
X147634781Y-122311173D01*
X147634781Y-122311173D02*
X147719447Y-122274887D01*
X147719447Y-122274887D02*
X147804114Y-122274887D01*
X147804114Y-122274887D02*
X147931114Y-122311173D01*
X147931114Y-122311173D02*
X148439114Y-122746601D01*
X148439114Y-122746601D02*
X148439114Y-122274887D01*
X147507781Y-121404030D02*
X148650781Y-122057173D01*
X148439114Y-120750887D02*
X148439114Y-121186316D01*
X148439114Y-120968601D02*
X147550114Y-120968601D01*
X147550114Y-120968601D02*
X147677114Y-121041173D01*
X147677114Y-121041173D02*
X147761781Y-121113744D01*
X147761781Y-121113744D02*
X147804114Y-121186316D01*
X147931114Y-120315459D02*
X147888781Y-120388030D01*
X147888781Y-120388030D02*
X147846447Y-120424316D01*
X147846447Y-120424316D02*
X147761781Y-120460602D01*
X147761781Y-120460602D02*
X147719447Y-120460602D01*
X147719447Y-120460602D02*
X147634781Y-120424316D01*
X147634781Y-120424316D02*
X147592447Y-120388030D01*
X147592447Y-120388030D02*
X147550114Y-120315459D01*
X147550114Y-120315459D02*
X147550114Y-120170316D01*
X147550114Y-120170316D02*
X147592447Y-120097745D01*
X147592447Y-120097745D02*
X147634781Y-120061459D01*
X147634781Y-120061459D02*
X147719447Y-120025173D01*
X147719447Y-120025173D02*
X147761781Y-120025173D01*
X147761781Y-120025173D02*
X147846447Y-120061459D01*
X147846447Y-120061459D02*
X147888781Y-120097745D01*
X147888781Y-120097745D02*
X147931114Y-120170316D01*
X147931114Y-120170316D02*
X147931114Y-120315459D01*
X147931114Y-120315459D02*
X147973447Y-120388030D01*
X147973447Y-120388030D02*
X148015781Y-120424316D01*
X148015781Y-120424316D02*
X148100447Y-120460602D01*
X148100447Y-120460602D02*
X148269781Y-120460602D01*
X148269781Y-120460602D02*
X148354447Y-120424316D01*
X148354447Y-120424316D02*
X148396781Y-120388030D01*
X148396781Y-120388030D02*
X148439114Y-120315459D01*
X148439114Y-120315459D02*
X148439114Y-120170316D01*
X148439114Y-120170316D02*
X148396781Y-120097745D01*
X148396781Y-120097745D02*
X148354447Y-120061459D01*
X148354447Y-120061459D02*
X148269781Y-120025173D01*
X148269781Y-120025173D02*
X148100447Y-120025173D01*
X148100447Y-120025173D02*
X148015781Y-120061459D01*
X148015781Y-120061459D02*
X147973447Y-120097745D01*
X147973447Y-120097745D02*
X147931114Y-120170316D01*
X149870404Y-129132887D02*
X148981404Y-129132887D01*
X148981404Y-129132887D02*
X148981404Y-128951458D01*
X148981404Y-128951458D02*
X149023737Y-128842601D01*
X149023737Y-128842601D02*
X149108404Y-128770030D01*
X149108404Y-128770030D02*
X149193071Y-128733744D01*
X149193071Y-128733744D02*
X149362404Y-128697458D01*
X149362404Y-128697458D02*
X149489404Y-128697458D01*
X149489404Y-128697458D02*
X149658737Y-128733744D01*
X149658737Y-128733744D02*
X149743404Y-128770030D01*
X149743404Y-128770030D02*
X149828071Y-128842601D01*
X149828071Y-128842601D02*
X149870404Y-128951458D01*
X149870404Y-128951458D02*
X149870404Y-129132887D01*
X149404737Y-128370887D02*
X149404737Y-128116887D01*
X149870404Y-128008030D02*
X149870404Y-128370887D01*
X149870404Y-128370887D02*
X148981404Y-128370887D01*
X148981404Y-128370887D02*
X148981404Y-128008030D01*
X149828071Y-127717744D02*
X149870404Y-127608887D01*
X149870404Y-127608887D02*
X149870404Y-127427458D01*
X149870404Y-127427458D02*
X149828071Y-127354887D01*
X149828071Y-127354887D02*
X149785737Y-127318601D01*
X149785737Y-127318601D02*
X149701071Y-127282315D01*
X149701071Y-127282315D02*
X149616404Y-127282315D01*
X149616404Y-127282315D02*
X149531737Y-127318601D01*
X149531737Y-127318601D02*
X149489404Y-127354887D01*
X149489404Y-127354887D02*
X149447071Y-127427458D01*
X149447071Y-127427458D02*
X149404737Y-127572601D01*
X149404737Y-127572601D02*
X149362404Y-127645172D01*
X149362404Y-127645172D02*
X149320071Y-127681458D01*
X149320071Y-127681458D02*
X149235404Y-127717744D01*
X149235404Y-127717744D02*
X149150737Y-127717744D01*
X149150737Y-127717744D02*
X149066071Y-127681458D01*
X149066071Y-127681458D02*
X149023737Y-127645172D01*
X149023737Y-127645172D02*
X148981404Y-127572601D01*
X148981404Y-127572601D02*
X148981404Y-127391172D01*
X148981404Y-127391172D02*
X149023737Y-127282315D01*
X149785737Y-126955744D02*
X149828071Y-126919458D01*
X149828071Y-126919458D02*
X149870404Y-126955744D01*
X149870404Y-126955744D02*
X149828071Y-126992030D01*
X149828071Y-126992030D02*
X149785737Y-126955744D01*
X149785737Y-126955744D02*
X149870404Y-126955744D01*
X149320071Y-126955744D02*
X149362404Y-126919458D01*
X149362404Y-126919458D02*
X149404737Y-126955744D01*
X149404737Y-126955744D02*
X149362404Y-126992030D01*
X149362404Y-126992030D02*
X149320071Y-126955744D01*
X149320071Y-126955744D02*
X149404737Y-126955744D01*
X149828071Y-125468031D02*
X149870404Y-125359174D01*
X149870404Y-125359174D02*
X149870404Y-125177745D01*
X149870404Y-125177745D02*
X149828071Y-125105174D01*
X149828071Y-125105174D02*
X149785737Y-125068888D01*
X149785737Y-125068888D02*
X149701071Y-125032602D01*
X149701071Y-125032602D02*
X149616404Y-125032602D01*
X149616404Y-125032602D02*
X149531737Y-125068888D01*
X149531737Y-125068888D02*
X149489404Y-125105174D01*
X149489404Y-125105174D02*
X149447071Y-125177745D01*
X149447071Y-125177745D02*
X149404737Y-125322888D01*
X149404737Y-125322888D02*
X149362404Y-125395459D01*
X149362404Y-125395459D02*
X149320071Y-125431745D01*
X149320071Y-125431745D02*
X149235404Y-125468031D01*
X149235404Y-125468031D02*
X149150737Y-125468031D01*
X149150737Y-125468031D02*
X149066071Y-125431745D01*
X149066071Y-125431745D02*
X149023737Y-125395459D01*
X149023737Y-125395459D02*
X148981404Y-125322888D01*
X148981404Y-125322888D02*
X148981404Y-125141459D01*
X148981404Y-125141459D02*
X149023737Y-125032602D01*
X149870404Y-124706031D02*
X149277737Y-124706031D01*
X148981404Y-124706031D02*
X149023737Y-124742317D01*
X149023737Y-124742317D02*
X149066071Y-124706031D01*
X149066071Y-124706031D02*
X149023737Y-124669745D01*
X149023737Y-124669745D02*
X148981404Y-124706031D01*
X148981404Y-124706031D02*
X149066071Y-124706031D01*
X149870404Y-124016603D02*
X149404737Y-124016603D01*
X149404737Y-124016603D02*
X149320071Y-124052888D01*
X149320071Y-124052888D02*
X149277737Y-124125460D01*
X149277737Y-124125460D02*
X149277737Y-124270603D01*
X149277737Y-124270603D02*
X149320071Y-124343174D01*
X149828071Y-124016603D02*
X149870404Y-124089174D01*
X149870404Y-124089174D02*
X149870404Y-124270603D01*
X149870404Y-124270603D02*
X149828071Y-124343174D01*
X149828071Y-124343174D02*
X149743404Y-124379460D01*
X149743404Y-124379460D02*
X149658737Y-124379460D01*
X149658737Y-124379460D02*
X149574071Y-124343174D01*
X149574071Y-124343174D02*
X149531737Y-124270603D01*
X149531737Y-124270603D02*
X149531737Y-124089174D01*
X149531737Y-124089174D02*
X149489404Y-124016603D01*
X149277737Y-123726316D02*
X149870404Y-123544888D01*
X149870404Y-123544888D02*
X149277737Y-123363459D01*
X149870404Y-122746603D02*
X149404737Y-122746603D01*
X149404737Y-122746603D02*
X149320071Y-122782888D01*
X149320071Y-122782888D02*
X149277737Y-122855460D01*
X149277737Y-122855460D02*
X149277737Y-123000603D01*
X149277737Y-123000603D02*
X149320071Y-123073174D01*
X149828071Y-122746603D02*
X149870404Y-122819174D01*
X149870404Y-122819174D02*
X149870404Y-123000603D01*
X149870404Y-123000603D02*
X149828071Y-123073174D01*
X149828071Y-123073174D02*
X149743404Y-123109460D01*
X149743404Y-123109460D02*
X149658737Y-123109460D01*
X149658737Y-123109460D02*
X149574071Y-123073174D01*
X149574071Y-123073174D02*
X149531737Y-123000603D01*
X149531737Y-123000603D02*
X149531737Y-122819174D01*
X149531737Y-122819174D02*
X149489404Y-122746603D01*
X149828071Y-122420031D02*
X149870404Y-122347459D01*
X149870404Y-122347459D02*
X149870404Y-122202316D01*
X149870404Y-122202316D02*
X149828071Y-122129745D01*
X149828071Y-122129745D02*
X149743404Y-122093459D01*
X149743404Y-122093459D02*
X149701071Y-122093459D01*
X149701071Y-122093459D02*
X149616404Y-122129745D01*
X149616404Y-122129745D02*
X149574071Y-122202316D01*
X149574071Y-122202316D02*
X149574071Y-122311174D01*
X149574071Y-122311174D02*
X149531737Y-122383745D01*
X149531737Y-122383745D02*
X149447071Y-122420031D01*
X149447071Y-122420031D02*
X149404737Y-122420031D01*
X149404737Y-122420031D02*
X149320071Y-122383745D01*
X149320071Y-122383745D02*
X149277737Y-122311174D01*
X149277737Y-122311174D02*
X149277737Y-122202316D01*
X149277737Y-122202316D02*
X149320071Y-122129745D01*
X149870404Y-121766888D02*
X148981404Y-121766888D01*
X149870404Y-121440317D02*
X149404737Y-121440317D01*
X149404737Y-121440317D02*
X149320071Y-121476602D01*
X149320071Y-121476602D02*
X149277737Y-121549174D01*
X149277737Y-121549174D02*
X149277737Y-121658031D01*
X149277737Y-121658031D02*
X149320071Y-121730602D01*
X149320071Y-121730602D02*
X149362404Y-121766888D01*
X148981404Y-121186316D02*
X148981404Y-120750888D01*
X149870404Y-120968602D02*
X148981404Y-120968602D01*
X149870404Y-120496888D02*
X148981404Y-120496888D01*
X148981404Y-120496888D02*
X148981404Y-120206602D01*
X148981404Y-120206602D02*
X149023737Y-120134031D01*
X149023737Y-120134031D02*
X149066071Y-120097745D01*
X149066071Y-120097745D02*
X149150737Y-120061459D01*
X149150737Y-120061459D02*
X149277737Y-120061459D01*
X149277737Y-120061459D02*
X149362404Y-120097745D01*
X149362404Y-120097745D02*
X149404737Y-120134031D01*
X149404737Y-120134031D02*
X149447071Y-120206602D01*
X149447071Y-120206602D02*
X149447071Y-120496888D01*
X110667969Y-118614819D02*
X110191779Y-118614819D01*
X110191779Y-118614819D02*
X110191779Y-117614819D01*
X111001303Y-118091009D02*
X111334636Y-118091009D01*
X111477493Y-118614819D02*
X111001303Y-118614819D01*
X111001303Y-118614819D02*
X111001303Y-117614819D01*
X111001303Y-117614819D02*
X111477493Y-117614819D01*
X111906065Y-118614819D02*
X111906065Y-117614819D01*
X111906065Y-117614819D02*
X112144160Y-117614819D01*
X112144160Y-117614819D02*
X112287017Y-117662438D01*
X112287017Y-117662438D02*
X112382255Y-117757676D01*
X112382255Y-117757676D02*
X112429874Y-117852914D01*
X112429874Y-117852914D02*
X112477493Y-118043390D01*
X112477493Y-118043390D02*
X112477493Y-118186247D01*
X112477493Y-118186247D02*
X112429874Y-118376723D01*
X112429874Y-118376723D02*
X112382255Y-118471961D01*
X112382255Y-118471961D02*
X112287017Y-118567200D01*
X112287017Y-118567200D02*
X112144160Y-118614819D01*
X112144160Y-118614819D02*
X111906065Y-118614819D01*
X113429874Y-118614819D02*
X112858446Y-118614819D01*
X113144160Y-118614819D02*
X113144160Y-117614819D01*
X113144160Y-117614819D02*
X113048922Y-117757676D01*
X113048922Y-117757676D02*
X112953684Y-117852914D01*
X112953684Y-117852914D02*
X112858446Y-117900533D01*
X114620351Y-118233866D02*
X115382256Y-118233866D01*
X115001303Y-118614819D02*
X115001303Y-117852914D01*
X117382256Y-118233866D02*
X118144161Y-118233866D01*
X142109819Y-142538220D02*
X141109819Y-142538220D01*
X141109819Y-142538220D02*
X141109819Y-142300125D01*
X141109819Y-142300125D02*
X141157438Y-142157268D01*
X141157438Y-142157268D02*
X141252676Y-142062030D01*
X141252676Y-142062030D02*
X141347914Y-142014411D01*
X141347914Y-142014411D02*
X141538390Y-141966792D01*
X141538390Y-141966792D02*
X141681247Y-141966792D01*
X141681247Y-141966792D02*
X141871723Y-142014411D01*
X141871723Y-142014411D02*
X141966961Y-142062030D01*
X141966961Y-142062030D02*
X142062200Y-142157268D01*
X142062200Y-142157268D02*
X142109819Y-142300125D01*
X142109819Y-142300125D02*
X142109819Y-142538220D01*
X142109819Y-141538220D02*
X141443152Y-141538220D01*
X141109819Y-141538220D02*
X141157438Y-141585839D01*
X141157438Y-141585839D02*
X141205057Y-141538220D01*
X141205057Y-141538220D02*
X141157438Y-141490601D01*
X141157438Y-141490601D02*
X141109819Y-141538220D01*
X141109819Y-141538220D02*
X141205057Y-141538220D01*
X142062200Y-141109649D02*
X142109819Y-141014411D01*
X142109819Y-141014411D02*
X142109819Y-140823935D01*
X142109819Y-140823935D02*
X142062200Y-140728697D01*
X142062200Y-140728697D02*
X141966961Y-140681078D01*
X141966961Y-140681078D02*
X141919342Y-140681078D01*
X141919342Y-140681078D02*
X141824104Y-140728697D01*
X141824104Y-140728697D02*
X141776485Y-140823935D01*
X141776485Y-140823935D02*
X141776485Y-140966792D01*
X141776485Y-140966792D02*
X141728866Y-141062030D01*
X141728866Y-141062030D02*
X141633628Y-141109649D01*
X141633628Y-141109649D02*
X141586009Y-141109649D01*
X141586009Y-141109649D02*
X141490771Y-141062030D01*
X141490771Y-141062030D02*
X141443152Y-140966792D01*
X141443152Y-140966792D02*
X141443152Y-140823935D01*
X141443152Y-140823935D02*
X141490771Y-140728697D01*
X141443152Y-140252506D02*
X142443152Y-140252506D01*
X141490771Y-140252506D02*
X141443152Y-140157268D01*
X141443152Y-140157268D02*
X141443152Y-139966792D01*
X141443152Y-139966792D02*
X141490771Y-139871554D01*
X141490771Y-139871554D02*
X141538390Y-139823935D01*
X141538390Y-139823935D02*
X141633628Y-139776316D01*
X141633628Y-139776316D02*
X141919342Y-139776316D01*
X141919342Y-139776316D02*
X142014580Y-139823935D01*
X142014580Y-139823935D02*
X142062200Y-139871554D01*
X142062200Y-139871554D02*
X142109819Y-139966792D01*
X142109819Y-139966792D02*
X142109819Y-140157268D01*
X142109819Y-140157268D02*
X142062200Y-140252506D01*
X142109819Y-139204887D02*
X142062200Y-139300125D01*
X142062200Y-139300125D02*
X141966961Y-139347744D01*
X141966961Y-139347744D02*
X141109819Y-139347744D01*
X142109819Y-138395363D02*
X141586009Y-138395363D01*
X141586009Y-138395363D02*
X141490771Y-138442982D01*
X141490771Y-138442982D02*
X141443152Y-138538220D01*
X141443152Y-138538220D02*
X141443152Y-138728696D01*
X141443152Y-138728696D02*
X141490771Y-138823934D01*
X142062200Y-138395363D02*
X142109819Y-138490601D01*
X142109819Y-138490601D02*
X142109819Y-138728696D01*
X142109819Y-138728696D02*
X142062200Y-138823934D01*
X142062200Y-138823934D02*
X141966961Y-138871553D01*
X141966961Y-138871553D02*
X141871723Y-138871553D01*
X141871723Y-138871553D02*
X141776485Y-138823934D01*
X141776485Y-138823934D02*
X141728866Y-138728696D01*
X141728866Y-138728696D02*
X141728866Y-138490601D01*
X141728866Y-138490601D02*
X141681247Y-138395363D01*
X141443152Y-138014410D02*
X142109819Y-137776315D01*
X141443152Y-137538220D02*
X142109819Y-137776315D01*
X142109819Y-137776315D02*
X142347914Y-137871553D01*
X142347914Y-137871553D02*
X142395533Y-137919172D01*
X142395533Y-137919172D02*
X142443152Y-138014410D01*
X141443152Y-135633458D02*
X141728866Y-136395362D01*
X141728866Y-136395362D02*
X142014580Y-135633458D01*
X141109819Y-133919172D02*
X141109819Y-134395362D01*
X141109819Y-134395362D02*
X141586009Y-134442981D01*
X141586009Y-134442981D02*
X141538390Y-134395362D01*
X141538390Y-134395362D02*
X141490771Y-134300124D01*
X141490771Y-134300124D02*
X141490771Y-134062029D01*
X141490771Y-134062029D02*
X141538390Y-133966791D01*
X141538390Y-133966791D02*
X141586009Y-133919172D01*
X141586009Y-133919172D02*
X141681247Y-133871553D01*
X141681247Y-133871553D02*
X141919342Y-133871553D01*
X141919342Y-133871553D02*
X142014580Y-133919172D01*
X142014580Y-133919172D02*
X142062200Y-133966791D01*
X142062200Y-133966791D02*
X142109819Y-134062029D01*
X142109819Y-134062029D02*
X142109819Y-134300124D01*
X142109819Y-134300124D02*
X142062200Y-134395362D01*
X142062200Y-134395362D02*
X142014580Y-134442981D01*
X141109819Y-133490600D02*
X141300295Y-133490600D01*
X141109819Y-133109648D02*
X141300295Y-133109648D01*
D11*
X107505427Y-149038638D02*
X107469141Y-149099114D01*
X107469141Y-149099114D02*
X107469141Y-149189828D01*
X107469141Y-149189828D02*
X107505427Y-149280543D01*
X107505427Y-149280543D02*
X107577998Y-149341019D01*
X107577998Y-149341019D02*
X107650570Y-149371257D01*
X107650570Y-149371257D02*
X107795713Y-149401495D01*
X107795713Y-149401495D02*
X107904570Y-149401495D01*
X107904570Y-149401495D02*
X108049713Y-149371257D01*
X108049713Y-149371257D02*
X108122284Y-149341019D01*
X108122284Y-149341019D02*
X108194856Y-149280543D01*
X108194856Y-149280543D02*
X108231141Y-149189828D01*
X108231141Y-149189828D02*
X108231141Y-149129352D01*
X108231141Y-149129352D02*
X108194856Y-149038638D01*
X108194856Y-149038638D02*
X108158570Y-149008400D01*
X108158570Y-149008400D02*
X107904570Y-149008400D01*
X107904570Y-149008400D02*
X107904570Y-149129352D01*
X108231141Y-148736257D02*
X107469141Y-148736257D01*
X107469141Y-148736257D02*
X108231141Y-148373400D01*
X108231141Y-148373400D02*
X107469141Y-148373400D01*
X108231141Y-148071019D02*
X107469141Y-148071019D01*
X107469141Y-148071019D02*
X107469141Y-147919829D01*
X107469141Y-147919829D02*
X107505427Y-147829114D01*
X107505427Y-147829114D02*
X107577998Y-147768638D01*
X107577998Y-147768638D02*
X107650570Y-147738400D01*
X107650570Y-147738400D02*
X107795713Y-147708162D01*
X107795713Y-147708162D02*
X107904570Y-147708162D01*
X107904570Y-147708162D02*
X108049713Y-147738400D01*
X108049713Y-147738400D02*
X108122284Y-147768638D01*
X108122284Y-147768638D02*
X108194856Y-147829114D01*
X108194856Y-147829114D02*
X108231141Y-147919829D01*
X108231141Y-147919829D02*
X108231141Y-148071019D01*
X108231141Y-146952209D02*
X107469141Y-146952209D01*
X107469141Y-146952209D02*
X108013427Y-146740542D01*
X108013427Y-146740542D02*
X107469141Y-146528876D01*
X107469141Y-146528876D02*
X108231141Y-146528876D01*
X108158570Y-145863638D02*
X108194856Y-145893876D01*
X108194856Y-145893876D02*
X108231141Y-145984590D01*
X108231141Y-145984590D02*
X108231141Y-146045066D01*
X108231141Y-146045066D02*
X108194856Y-146135781D01*
X108194856Y-146135781D02*
X108122284Y-146196257D01*
X108122284Y-146196257D02*
X108049713Y-146226495D01*
X108049713Y-146226495D02*
X107904570Y-146256733D01*
X107904570Y-146256733D02*
X107795713Y-146256733D01*
X107795713Y-146256733D02*
X107650570Y-146226495D01*
X107650570Y-146226495D02*
X107577998Y-146196257D01*
X107577998Y-146196257D02*
X107505427Y-146135781D01*
X107505427Y-146135781D02*
X107469141Y-146045066D01*
X107469141Y-146045066D02*
X107469141Y-145984590D01*
X107469141Y-145984590D02*
X107505427Y-145893876D01*
X107505427Y-145893876D02*
X107541713Y-145863638D01*
X108231141Y-145289114D02*
X108231141Y-145591495D01*
X108231141Y-145591495D02*
X107469141Y-145591495D01*
X108231141Y-144714590D02*
X107868284Y-144926257D01*
X108231141Y-145077447D02*
X107469141Y-145077447D01*
X107469141Y-145077447D02*
X107469141Y-144835542D01*
X107469141Y-144835542D02*
X107505427Y-144775066D01*
X107505427Y-144775066D02*
X107541713Y-144744828D01*
X107541713Y-144744828D02*
X107614284Y-144714590D01*
X107614284Y-144714590D02*
X107723141Y-144714590D01*
X107723141Y-144714590D02*
X107795713Y-144744828D01*
X107795713Y-144744828D02*
X107831998Y-144775066D01*
X107831998Y-144775066D02*
X107868284Y-144835542D01*
X107868284Y-144835542D02*
X107868284Y-145077447D01*
X107257596Y-147039900D02*
X107257596Y-144657138D01*
X107469141Y-143535303D02*
X108231141Y-143384113D01*
X108231141Y-143384113D02*
X107686856Y-143263160D01*
X107686856Y-143263160D02*
X108231141Y-143142208D01*
X108231141Y-143142208D02*
X107469141Y-142991018D01*
X108231141Y-142749113D02*
X107469141Y-142749113D01*
X107469141Y-142749113D02*
X107469141Y-142507208D01*
X107469141Y-142507208D02*
X107505427Y-142446732D01*
X107505427Y-142446732D02*
X107541713Y-142416494D01*
X107541713Y-142416494D02*
X107614284Y-142386256D01*
X107614284Y-142386256D02*
X107723141Y-142386256D01*
X107723141Y-142386256D02*
X107795713Y-142416494D01*
X107795713Y-142416494D02*
X107831998Y-142446732D01*
X107831998Y-142446732D02*
X107868284Y-142507208D01*
X107868284Y-142507208D02*
X107868284Y-142749113D01*
X107257596Y-143562518D02*
X107257596Y-142328804D01*
X108194856Y-141176731D02*
X108231141Y-141086017D01*
X108231141Y-141086017D02*
X108231141Y-140934826D01*
X108231141Y-140934826D02*
X108194856Y-140874350D01*
X108194856Y-140874350D02*
X108158570Y-140844112D01*
X108158570Y-140844112D02*
X108085998Y-140813874D01*
X108085998Y-140813874D02*
X108013427Y-140813874D01*
X108013427Y-140813874D02*
X107940856Y-140844112D01*
X107940856Y-140844112D02*
X107904570Y-140874350D01*
X107904570Y-140874350D02*
X107868284Y-140934826D01*
X107868284Y-140934826D02*
X107831998Y-141055779D01*
X107831998Y-141055779D02*
X107795713Y-141116255D01*
X107795713Y-141116255D02*
X107759427Y-141146493D01*
X107759427Y-141146493D02*
X107686856Y-141176731D01*
X107686856Y-141176731D02*
X107614284Y-141176731D01*
X107614284Y-141176731D02*
X107541713Y-141146493D01*
X107541713Y-141146493D02*
X107505427Y-141116255D01*
X107505427Y-141116255D02*
X107469141Y-141055779D01*
X107469141Y-141055779D02*
X107469141Y-140904588D01*
X107469141Y-140904588D02*
X107505427Y-140813874D01*
X108158570Y-140178874D02*
X108194856Y-140209112D01*
X108194856Y-140209112D02*
X108231141Y-140299826D01*
X108231141Y-140299826D02*
X108231141Y-140360302D01*
X108231141Y-140360302D02*
X108194856Y-140451017D01*
X108194856Y-140451017D02*
X108122284Y-140511493D01*
X108122284Y-140511493D02*
X108049713Y-140541731D01*
X108049713Y-140541731D02*
X107904570Y-140571969D01*
X107904570Y-140571969D02*
X107795713Y-140571969D01*
X107795713Y-140571969D02*
X107650570Y-140541731D01*
X107650570Y-140541731D02*
X107577998Y-140511493D01*
X107577998Y-140511493D02*
X107505427Y-140451017D01*
X107505427Y-140451017D02*
X107469141Y-140360302D01*
X107469141Y-140360302D02*
X107469141Y-140299826D01*
X107469141Y-140299826D02*
X107505427Y-140209112D01*
X107505427Y-140209112D02*
X107541713Y-140178874D01*
X108231141Y-139906731D02*
X107469141Y-139906731D01*
X108231141Y-139543874D02*
X107795713Y-139816017D01*
X107469141Y-139543874D02*
X107904570Y-139906731D01*
X108231141Y-138787921D02*
X107469141Y-138787921D01*
X107469141Y-138787921D02*
X108013427Y-138576254D01*
X108013427Y-138576254D02*
X107469141Y-138364588D01*
X107469141Y-138364588D02*
X108231141Y-138364588D01*
X107469141Y-137941255D02*
X107469141Y-137820302D01*
X107469141Y-137820302D02*
X107505427Y-137759826D01*
X107505427Y-137759826D02*
X107577998Y-137699350D01*
X107577998Y-137699350D02*
X107723141Y-137669112D01*
X107723141Y-137669112D02*
X107977141Y-137669112D01*
X107977141Y-137669112D02*
X108122284Y-137699350D01*
X108122284Y-137699350D02*
X108194856Y-137759826D01*
X108194856Y-137759826D02*
X108231141Y-137820302D01*
X108231141Y-137820302D02*
X108231141Y-137941255D01*
X108231141Y-137941255D02*
X108194856Y-138001731D01*
X108194856Y-138001731D02*
X108122284Y-138062207D01*
X108122284Y-138062207D02*
X107977141Y-138092445D01*
X107977141Y-138092445D02*
X107723141Y-138092445D01*
X107723141Y-138092445D02*
X107577998Y-138062207D01*
X107577998Y-138062207D02*
X107505427Y-138001731D01*
X107505427Y-138001731D02*
X107469141Y-137941255D01*
X108194856Y-137427207D02*
X108231141Y-137336493D01*
X108231141Y-137336493D02*
X108231141Y-137185302D01*
X108231141Y-137185302D02*
X108194856Y-137124826D01*
X108194856Y-137124826D02*
X108158570Y-137094588D01*
X108158570Y-137094588D02*
X108085998Y-137064350D01*
X108085998Y-137064350D02*
X108013427Y-137064350D01*
X108013427Y-137064350D02*
X107940856Y-137094588D01*
X107940856Y-137094588D02*
X107904570Y-137124826D01*
X107904570Y-137124826D02*
X107868284Y-137185302D01*
X107868284Y-137185302D02*
X107831998Y-137306255D01*
X107831998Y-137306255D02*
X107795713Y-137366731D01*
X107795713Y-137366731D02*
X107759427Y-137396969D01*
X107759427Y-137396969D02*
X107686856Y-137427207D01*
X107686856Y-137427207D02*
X107614284Y-137427207D01*
X107614284Y-137427207D02*
X107541713Y-137396969D01*
X107541713Y-137396969D02*
X107505427Y-137366731D01*
X107505427Y-137366731D02*
X107469141Y-137306255D01*
X107469141Y-137306255D02*
X107469141Y-137155064D01*
X107469141Y-137155064D02*
X107505427Y-137064350D01*
X108231141Y-136792207D02*
X107469141Y-136792207D01*
X108231141Y-136006016D02*
X107469141Y-136006016D01*
X107469141Y-136006016D02*
X108013427Y-135794349D01*
X108013427Y-135794349D02*
X107469141Y-135582683D01*
X107469141Y-135582683D02*
X108231141Y-135582683D01*
X108231141Y-135280302D02*
X107469141Y-135280302D01*
X108194856Y-135008159D02*
X108231141Y-134917445D01*
X108231141Y-134917445D02*
X108231141Y-134766254D01*
X108231141Y-134766254D02*
X108194856Y-134705778D01*
X108194856Y-134705778D02*
X108158570Y-134675540D01*
X108158570Y-134675540D02*
X108085998Y-134645302D01*
X108085998Y-134645302D02*
X108013427Y-134645302D01*
X108013427Y-134645302D02*
X107940856Y-134675540D01*
X107940856Y-134675540D02*
X107904570Y-134705778D01*
X107904570Y-134705778D02*
X107868284Y-134766254D01*
X107868284Y-134766254D02*
X107831998Y-134887207D01*
X107831998Y-134887207D02*
X107795713Y-134947683D01*
X107795713Y-134947683D02*
X107759427Y-134977921D01*
X107759427Y-134977921D02*
X107686856Y-135008159D01*
X107686856Y-135008159D02*
X107614284Y-135008159D01*
X107614284Y-135008159D02*
X107541713Y-134977921D01*
X107541713Y-134977921D02*
X107505427Y-134947683D01*
X107505427Y-134947683D02*
X107469141Y-134887207D01*
X107469141Y-134887207D02*
X107469141Y-134736016D01*
X107469141Y-134736016D02*
X107505427Y-134645302D01*
X107469141Y-134252207D02*
X107469141Y-134131254D01*
X107469141Y-134131254D02*
X107505427Y-134070778D01*
X107505427Y-134070778D02*
X107577998Y-134010302D01*
X107577998Y-134010302D02*
X107723141Y-133980064D01*
X107723141Y-133980064D02*
X107977141Y-133980064D01*
X107977141Y-133980064D02*
X108122284Y-134010302D01*
X108122284Y-134010302D02*
X108194856Y-134070778D01*
X108194856Y-134070778D02*
X108231141Y-134131254D01*
X108231141Y-134131254D02*
X108231141Y-134252207D01*
X108231141Y-134252207D02*
X108194856Y-134312683D01*
X108194856Y-134312683D02*
X108122284Y-134373159D01*
X108122284Y-134373159D02*
X107977141Y-134403397D01*
X107977141Y-134403397D02*
X107723141Y-134403397D01*
X107723141Y-134403397D02*
X107577998Y-134373159D01*
X107577998Y-134373159D02*
X107505427Y-134312683D01*
X107505427Y-134312683D02*
X107469141Y-134252207D01*
X108158570Y-132861254D02*
X108194856Y-132891492D01*
X108194856Y-132891492D02*
X108231141Y-132982206D01*
X108231141Y-132982206D02*
X108231141Y-133042682D01*
X108231141Y-133042682D02*
X108194856Y-133133397D01*
X108194856Y-133133397D02*
X108122284Y-133193873D01*
X108122284Y-133193873D02*
X108049713Y-133224111D01*
X108049713Y-133224111D02*
X107904570Y-133254349D01*
X107904570Y-133254349D02*
X107795713Y-133254349D01*
X107795713Y-133254349D02*
X107650570Y-133224111D01*
X107650570Y-133224111D02*
X107577998Y-133193873D01*
X107577998Y-133193873D02*
X107505427Y-133133397D01*
X107505427Y-133133397D02*
X107469141Y-133042682D01*
X107469141Y-133042682D02*
X107469141Y-132982206D01*
X107469141Y-132982206D02*
X107505427Y-132891492D01*
X107505427Y-132891492D02*
X107541713Y-132861254D01*
X108194856Y-132619349D02*
X108231141Y-132528635D01*
X108231141Y-132528635D02*
X108231141Y-132377444D01*
X108231141Y-132377444D02*
X108194856Y-132316968D01*
X108194856Y-132316968D02*
X108158570Y-132286730D01*
X108158570Y-132286730D02*
X108085998Y-132256492D01*
X108085998Y-132256492D02*
X108013427Y-132256492D01*
X108013427Y-132256492D02*
X107940856Y-132286730D01*
X107940856Y-132286730D02*
X107904570Y-132316968D01*
X107904570Y-132316968D02*
X107868284Y-132377444D01*
X107868284Y-132377444D02*
X107831998Y-132498397D01*
X107831998Y-132498397D02*
X107795713Y-132558873D01*
X107795713Y-132558873D02*
X107759427Y-132589111D01*
X107759427Y-132589111D02*
X107686856Y-132619349D01*
X107686856Y-132619349D02*
X107614284Y-132619349D01*
X107614284Y-132619349D02*
X107541713Y-132589111D01*
X107541713Y-132589111D02*
X107505427Y-132558873D01*
X107505427Y-132558873D02*
X107469141Y-132498397D01*
X107469141Y-132498397D02*
X107469141Y-132347206D01*
X107469141Y-132347206D02*
X107505427Y-132256492D01*
X107257596Y-133311802D02*
X107257596Y-132199040D01*
X107505427Y-130684110D02*
X107469141Y-130744586D01*
X107469141Y-130744586D02*
X107469141Y-130835300D01*
X107469141Y-130835300D02*
X107505427Y-130926015D01*
X107505427Y-130926015D02*
X107577998Y-130986491D01*
X107577998Y-130986491D02*
X107650570Y-131016729D01*
X107650570Y-131016729D02*
X107795713Y-131046967D01*
X107795713Y-131046967D02*
X107904570Y-131046967D01*
X107904570Y-131046967D02*
X108049713Y-131016729D01*
X108049713Y-131016729D02*
X108122284Y-130986491D01*
X108122284Y-130986491D02*
X108194856Y-130926015D01*
X108194856Y-130926015D02*
X108231141Y-130835300D01*
X108231141Y-130835300D02*
X108231141Y-130774824D01*
X108231141Y-130774824D02*
X108194856Y-130684110D01*
X108194856Y-130684110D02*
X108158570Y-130653872D01*
X108158570Y-130653872D02*
X107904570Y-130653872D01*
X107904570Y-130653872D02*
X107904570Y-130774824D01*
X108231141Y-130381729D02*
X107469141Y-130381729D01*
X107469141Y-130381729D02*
X108231141Y-130018872D01*
X108231141Y-130018872D02*
X107469141Y-130018872D01*
X108231141Y-129716491D02*
X107469141Y-129716491D01*
X107469141Y-129716491D02*
X107469141Y-129565301D01*
X107469141Y-129565301D02*
X107505427Y-129474586D01*
X107505427Y-129474586D02*
X107577998Y-129414110D01*
X107577998Y-129414110D02*
X107650570Y-129383872D01*
X107650570Y-129383872D02*
X107795713Y-129353634D01*
X107795713Y-129353634D02*
X107904570Y-129353634D01*
X107904570Y-129353634D02*
X108049713Y-129383872D01*
X108049713Y-129383872D02*
X108122284Y-129414110D01*
X108122284Y-129414110D02*
X108194856Y-129474586D01*
X108194856Y-129474586D02*
X108231141Y-129565301D01*
X108231141Y-129565301D02*
X108231141Y-129716491D01*
D10*
X121661874Y-118770945D02*
X121661874Y-118008945D01*
X121661874Y-118008945D02*
X121873541Y-118553231D01*
X121873541Y-118553231D02*
X122085207Y-118008945D01*
X122085207Y-118008945D02*
X122085207Y-118770945D01*
X122750445Y-118698374D02*
X122720207Y-118734660D01*
X122720207Y-118734660D02*
X122629493Y-118770945D01*
X122629493Y-118770945D02*
X122569017Y-118770945D01*
X122569017Y-118770945D02*
X122478302Y-118734660D01*
X122478302Y-118734660D02*
X122417826Y-118662088D01*
X122417826Y-118662088D02*
X122387588Y-118589517D01*
X122387588Y-118589517D02*
X122357350Y-118444374D01*
X122357350Y-118444374D02*
X122357350Y-118335517D01*
X122357350Y-118335517D02*
X122387588Y-118190374D01*
X122387588Y-118190374D02*
X122417826Y-118117802D01*
X122417826Y-118117802D02*
X122478302Y-118045231D01*
X122478302Y-118045231D02*
X122569017Y-118008945D01*
X122569017Y-118008945D02*
X122629493Y-118008945D01*
X122629493Y-118008945D02*
X122720207Y-118045231D01*
X122720207Y-118045231D02*
X122750445Y-118081517D01*
X123324969Y-118770945D02*
X123022588Y-118770945D01*
X123022588Y-118770945D02*
X123022588Y-118008945D01*
X123899493Y-118770945D02*
X123687826Y-118408088D01*
X123536636Y-118770945D02*
X123536636Y-118008945D01*
X123536636Y-118008945D02*
X123778541Y-118008945D01*
X123778541Y-118008945D02*
X123839017Y-118045231D01*
X123839017Y-118045231D02*
X123869255Y-118081517D01*
X123869255Y-118081517D02*
X123899493Y-118154088D01*
X123899493Y-118154088D02*
X123899493Y-118262945D01*
X123899493Y-118262945D02*
X123869255Y-118335517D01*
X123869255Y-118335517D02*
X123839017Y-118371802D01*
X123839017Y-118371802D02*
X123778541Y-118408088D01*
X123778541Y-118408088D02*
X123536636Y-118408088D01*
X121574184Y-117797400D02*
X123956946Y-117797400D01*
X124988065Y-118045231D02*
X124927589Y-118008945D01*
X124927589Y-118008945D02*
X124836875Y-118008945D01*
X124836875Y-118008945D02*
X124746160Y-118045231D01*
X124746160Y-118045231D02*
X124685684Y-118117802D01*
X124685684Y-118117802D02*
X124655446Y-118190374D01*
X124655446Y-118190374D02*
X124625208Y-118335517D01*
X124625208Y-118335517D02*
X124625208Y-118444374D01*
X124625208Y-118444374D02*
X124655446Y-118589517D01*
X124655446Y-118589517D02*
X124685684Y-118662088D01*
X124685684Y-118662088D02*
X124746160Y-118734660D01*
X124746160Y-118734660D02*
X124836875Y-118770945D01*
X124836875Y-118770945D02*
X124897351Y-118770945D01*
X124897351Y-118770945D02*
X124988065Y-118734660D01*
X124988065Y-118734660D02*
X125018303Y-118698374D01*
X125018303Y-118698374D02*
X125018303Y-118444374D01*
X125018303Y-118444374D02*
X124897351Y-118444374D01*
X125290446Y-118770945D02*
X125290446Y-118008945D01*
X125290446Y-118008945D02*
X125653303Y-118770945D01*
X125653303Y-118770945D02*
X125653303Y-118008945D01*
X125955684Y-118770945D02*
X125955684Y-118008945D01*
X125955684Y-118008945D02*
X126106874Y-118008945D01*
X126106874Y-118008945D02*
X126197589Y-118045231D01*
X126197589Y-118045231D02*
X126258065Y-118117802D01*
X126258065Y-118117802D02*
X126288303Y-118190374D01*
X126288303Y-118190374D02*
X126318541Y-118335517D01*
X126318541Y-118335517D02*
X126318541Y-118444374D01*
X126318541Y-118444374D02*
X126288303Y-118589517D01*
X126288303Y-118589517D02*
X126258065Y-118662088D01*
X126258065Y-118662088D02*
X126197589Y-118734660D01*
X126197589Y-118734660D02*
X126106874Y-118770945D01*
X126106874Y-118770945D02*
X125955684Y-118770945D01*
X127074494Y-118770945D02*
X127074494Y-118008945D01*
X127074494Y-118008945D02*
X127225684Y-118008945D01*
X127225684Y-118008945D02*
X127316399Y-118045231D01*
X127316399Y-118045231D02*
X127376875Y-118117802D01*
X127376875Y-118117802D02*
X127407113Y-118190374D01*
X127407113Y-118190374D02*
X127437351Y-118335517D01*
X127437351Y-118335517D02*
X127437351Y-118444374D01*
X127437351Y-118444374D02*
X127407113Y-118589517D01*
X127407113Y-118589517D02*
X127376875Y-118662088D01*
X127376875Y-118662088D02*
X127316399Y-118734660D01*
X127316399Y-118734660D02*
X127225684Y-118770945D01*
X127225684Y-118770945D02*
X127074494Y-118770945D01*
X127679256Y-118553231D02*
X127981637Y-118553231D01*
X127618780Y-118770945D02*
X127830446Y-118008945D01*
X127830446Y-118008945D02*
X128042113Y-118770945D01*
X128163066Y-118008945D02*
X128525923Y-118008945D01*
X128344494Y-118770945D02*
X128344494Y-118008945D01*
X129584257Y-118698374D02*
X129554019Y-118734660D01*
X129554019Y-118734660D02*
X129463305Y-118770945D01*
X129463305Y-118770945D02*
X129402829Y-118770945D01*
X129402829Y-118770945D02*
X129312114Y-118734660D01*
X129312114Y-118734660D02*
X129251638Y-118662088D01*
X129251638Y-118662088D02*
X129221400Y-118589517D01*
X129221400Y-118589517D02*
X129191162Y-118444374D01*
X129191162Y-118444374D02*
X129191162Y-118335517D01*
X129191162Y-118335517D02*
X129221400Y-118190374D01*
X129221400Y-118190374D02*
X129251638Y-118117802D01*
X129251638Y-118117802D02*
X129312114Y-118045231D01*
X129312114Y-118045231D02*
X129402829Y-118008945D01*
X129402829Y-118008945D02*
X129463305Y-118008945D01*
X129463305Y-118008945D02*
X129554019Y-118045231D01*
X129554019Y-118045231D02*
X129584257Y-118081517D01*
X130158781Y-118770945D02*
X129856400Y-118770945D01*
X129856400Y-118770945D02*
X129856400Y-118008945D01*
X130370448Y-118770945D02*
X130370448Y-118008945D01*
X130733305Y-118770945D02*
X130461162Y-118335517D01*
X130733305Y-118008945D02*
X130370448Y-118444374D01*
X134655112Y-158985009D02*
X134797969Y-159032628D01*
X134797969Y-159032628D02*
X134845588Y-159080247D01*
X134845588Y-159080247D02*
X134893207Y-159175485D01*
X134893207Y-159175485D02*
X134893207Y-159318342D01*
X134893207Y-159318342D02*
X134845588Y-159413580D01*
X134845588Y-159413580D02*
X134797969Y-159461200D01*
X134797969Y-159461200D02*
X134702731Y-159508819D01*
X134702731Y-159508819D02*
X134321779Y-159508819D01*
X134321779Y-159508819D02*
X134321779Y-158508819D01*
X134321779Y-158508819D02*
X134655112Y-158508819D01*
X134655112Y-158508819D02*
X134750350Y-158556438D01*
X134750350Y-158556438D02*
X134797969Y-158604057D01*
X134797969Y-158604057D02*
X134845588Y-158699295D01*
X134845588Y-158699295D02*
X134845588Y-158794533D01*
X134845588Y-158794533D02*
X134797969Y-158889771D01*
X134797969Y-158889771D02*
X134750350Y-158937390D01*
X134750350Y-158937390D02*
X134655112Y-158985009D01*
X134655112Y-158985009D02*
X134321779Y-158985009D01*
X135512255Y-158508819D02*
X135702731Y-158508819D01*
X135702731Y-158508819D02*
X135797969Y-158556438D01*
X135797969Y-158556438D02*
X135893207Y-158651676D01*
X135893207Y-158651676D02*
X135940826Y-158842152D01*
X135940826Y-158842152D02*
X135940826Y-159175485D01*
X135940826Y-159175485D02*
X135893207Y-159365961D01*
X135893207Y-159365961D02*
X135797969Y-159461200D01*
X135797969Y-159461200D02*
X135702731Y-159508819D01*
X135702731Y-159508819D02*
X135512255Y-159508819D01*
X135512255Y-159508819D02*
X135417017Y-159461200D01*
X135417017Y-159461200D02*
X135321779Y-159365961D01*
X135321779Y-159365961D02*
X135274160Y-159175485D01*
X135274160Y-159175485D02*
X135274160Y-158842152D01*
X135274160Y-158842152D02*
X135321779Y-158651676D01*
X135321779Y-158651676D02*
X135417017Y-158556438D01*
X135417017Y-158556438D02*
X135512255Y-158508819D01*
X136226541Y-158508819D02*
X136797969Y-158508819D01*
X136512255Y-159508819D02*
X136512255Y-158508819D01*
X136988446Y-158508819D02*
X137559874Y-158508819D01*
X137274160Y-159508819D02*
X137274160Y-158508819D01*
X147148779Y-158238819D02*
X147148779Y-157238819D01*
X147148779Y-157238819D02*
X147482112Y-157953104D01*
X147482112Y-157953104D02*
X147815445Y-157238819D01*
X147815445Y-157238819D02*
X147815445Y-158238819D01*
X148244017Y-157334057D02*
X148291636Y-157286438D01*
X148291636Y-157286438D02*
X148386874Y-157238819D01*
X148386874Y-157238819D02*
X148624969Y-157238819D01*
X148624969Y-157238819D02*
X148720207Y-157286438D01*
X148720207Y-157286438D02*
X148767826Y-157334057D01*
X148767826Y-157334057D02*
X148815445Y-157429295D01*
X148815445Y-157429295D02*
X148815445Y-157524533D01*
X148815445Y-157524533D02*
X148767826Y-157667390D01*
X148767826Y-157667390D02*
X148196398Y-158238819D01*
X148196398Y-158238819D02*
X148815445Y-158238819D01*
X149244017Y-158143580D02*
X149291636Y-158191200D01*
X149291636Y-158191200D02*
X149244017Y-158238819D01*
X149244017Y-158238819D02*
X149196398Y-158191200D01*
X149196398Y-158191200D02*
X149244017Y-158143580D01*
X149244017Y-158143580D02*
X149244017Y-158238819D01*
X150196397Y-157238819D02*
X149720207Y-157238819D01*
X149720207Y-157238819D02*
X149672588Y-157715009D01*
X149672588Y-157715009D02*
X149720207Y-157667390D01*
X149720207Y-157667390D02*
X149815445Y-157619771D01*
X149815445Y-157619771D02*
X150053540Y-157619771D01*
X150053540Y-157619771D02*
X150148778Y-157667390D01*
X150148778Y-157667390D02*
X150196397Y-157715009D01*
X150196397Y-157715009D02*
X150244016Y-157810247D01*
X150244016Y-157810247D02*
X150244016Y-158048342D01*
X150244016Y-158048342D02*
X150196397Y-158143580D01*
X150196397Y-158143580D02*
X150148778Y-158191200D01*
X150148778Y-158191200D02*
X150053540Y-158238819D01*
X150053540Y-158238819D02*
X149815445Y-158238819D01*
X149815445Y-158238819D02*
X149720207Y-158191200D01*
X149720207Y-158191200D02*
X149672588Y-158143580D01*
X103962017Y-152934112D02*
X103925731Y-153042969D01*
X103925731Y-153042969D02*
X103889445Y-153079255D01*
X103889445Y-153079255D02*
X103816874Y-153115541D01*
X103816874Y-153115541D02*
X103708017Y-153115541D01*
X103708017Y-153115541D02*
X103635445Y-153079255D01*
X103635445Y-153079255D02*
X103599160Y-153042969D01*
X103599160Y-153042969D02*
X103562874Y-152970398D01*
X103562874Y-152970398D02*
X103562874Y-152680112D01*
X103562874Y-152680112D02*
X104324874Y-152680112D01*
X104324874Y-152680112D02*
X104324874Y-152934112D01*
X104324874Y-152934112D02*
X104288588Y-153006684D01*
X104288588Y-153006684D02*
X104252302Y-153042969D01*
X104252302Y-153042969D02*
X104179731Y-153079255D01*
X104179731Y-153079255D02*
X104107160Y-153079255D01*
X104107160Y-153079255D02*
X104034588Y-153042969D01*
X104034588Y-153042969D02*
X103998302Y-153006684D01*
X103998302Y-153006684D02*
X103962017Y-152934112D01*
X103962017Y-152934112D02*
X103962017Y-152680112D01*
X103780588Y-153405826D02*
X103780588Y-153768684D01*
X103562874Y-153333255D02*
X104324874Y-153587255D01*
X104324874Y-153587255D02*
X103562874Y-153841255D01*
X104324874Y-153986398D02*
X104324874Y-154421827D01*
X103562874Y-154204112D02*
X104324874Y-154204112D01*
X104324874Y-154566969D02*
X104324874Y-155002398D01*
X103562874Y-154784683D02*
X104324874Y-154784683D01*
X102626340Y-152680112D02*
X102626340Y-153260684D01*
X102336054Y-152970398D02*
X102916625Y-152970398D01*
X103098054Y-153550970D02*
X103098054Y-154022684D01*
X103098054Y-154022684D02*
X102807768Y-153768684D01*
X102807768Y-153768684D02*
X102807768Y-153877541D01*
X102807768Y-153877541D02*
X102771482Y-153950113D01*
X102771482Y-153950113D02*
X102735197Y-153986398D01*
X102735197Y-153986398D02*
X102662625Y-154022684D01*
X102662625Y-154022684D02*
X102481197Y-154022684D01*
X102481197Y-154022684D02*
X102408625Y-153986398D01*
X102408625Y-153986398D02*
X102372340Y-153950113D01*
X102372340Y-153950113D02*
X102336054Y-153877541D01*
X102336054Y-153877541D02*
X102336054Y-153659827D01*
X102336054Y-153659827D02*
X102372340Y-153587255D01*
X102372340Y-153587255D02*
X102408625Y-153550970D01*
X103098054Y-154240398D02*
X102336054Y-154494398D01*
X102336054Y-154494398D02*
X103098054Y-154748398D01*
X103098054Y-154929827D02*
X103098054Y-155437827D01*
X103098054Y-155437827D02*
X102336054Y-155111255D01*
D12*
X144943000Y-146715000D02*
X146283000Y-146715000D01*
X149003000Y-146715000D02*
X150743000Y-146715000D01*
X150743000Y-146715000D02*
X150743000Y-131415000D01*
X144943000Y-145225000D02*
X144943000Y-146715000D01*
X144943000Y-145225000D02*
X143743000Y-145225000D01*
X144943000Y-132905000D02*
X144943000Y-131415000D01*
X144943000Y-131415000D02*
X146283000Y-131415000D01*
X150743000Y-131415000D02*
X149003000Y-131415000D01*
X117476000Y-133376641D02*
X117476000Y-133069359D01*
X118236000Y-133376641D02*
X118236000Y-133069359D01*
D13*
X119968000Y-150114000D02*
G75*
G03*
X119968000Y-150114000I-50000J0D01*
G01*
D12*
X114321000Y-133330836D02*
X114321000Y-133115164D01*
X115041000Y-133330836D02*
X115041000Y-133115164D01*
X139946836Y-142854000D02*
X139731164Y-142854000D01*
X139946836Y-142134000D02*
X139731164Y-142134000D01*
X117220000Y-144880359D02*
X117220000Y-145187641D01*
X116460000Y-144880359D02*
X116460000Y-145187641D01*
X139292064Y-146912000D02*
X138837936Y-146912000D01*
X139292064Y-145442000D02*
X138837936Y-145442000D01*
X139326252Y-132307000D02*
X138803748Y-132307000D01*
X139326252Y-130837000D02*
X138803748Y-130837000D01*
X120852000Y-164500500D02*
X120852000Y-160600500D01*
X120852000Y-164500500D02*
X113132000Y-164500500D01*
X120852000Y-158000500D02*
X120852000Y-157490500D01*
X120852000Y-157490500D02*
X120332000Y-157490500D01*
X120332000Y-160830500D02*
X120332000Y-160600500D01*
X120332000Y-160830500D02*
X119792000Y-160830500D01*
X120332000Y-158000500D02*
X120332000Y-157490500D01*
X118692000Y-160830500D02*
X115292000Y-160830500D01*
X114192000Y-160830500D02*
X113652000Y-160830500D01*
X113652000Y-160830500D02*
X113652000Y-160600500D01*
X113652000Y-158000500D02*
X113652000Y-157490500D01*
X113652000Y-157490500D02*
X113132000Y-157490500D01*
X113132000Y-164500500D02*
X113132000Y-160600500D01*
X113132000Y-158000500D02*
X113132000Y-157490500D01*
D14*
X139915900Y-137172700D02*
X138322103Y-137172700D01*
X139915900Y-137767060D02*
X139915900Y-137172700D01*
X137960100Y-138188941D02*
X137960100Y-138417059D01*
X139915900Y-139433300D02*
X139915900Y-138838940D01*
X138322103Y-139433300D02*
X139915900Y-139433300D01*
X137960100Y-136029700D02*
G75*
G03*
X137960100Y-136029700I-127000J0D01*
G01*
D12*
X139326252Y-136371000D02*
X138803748Y-136371000D01*
X139326252Y-134901000D02*
X138803748Y-134901000D01*
X118111000Y-146330641D02*
X118111000Y-146023359D01*
X118871000Y-146330641D02*
X118871000Y-146023359D01*
X139326252Y-144880000D02*
X138803748Y-144880000D01*
X139326252Y-143410000D02*
X138803748Y-143410000D01*
X114915836Y-154284000D02*
X114700164Y-154284000D01*
X114915836Y-153564000D02*
X114700164Y-153564000D01*
X132942359Y-136272000D02*
X133249641Y-136272000D01*
X132942359Y-137032000D02*
X133249641Y-137032000D01*
D14*
X111975900Y-150253700D02*
X110382103Y-150253700D01*
X111975900Y-150848060D02*
X111975900Y-150253700D01*
X110020100Y-151269941D02*
X110020100Y-151498059D01*
X111975900Y-152514300D02*
X111975900Y-151919940D01*
X110382103Y-152514300D02*
X111975900Y-152514300D01*
X110020100Y-149110700D02*
G75*
G03*
X110020100Y-149110700I-127000J0D01*
G01*
D12*
X132480164Y-131847000D02*
X132695836Y-131847000D01*
X132480164Y-132567000D02*
X132695836Y-132567000D01*
X110389641Y-140715000D02*
X110082359Y-140715000D01*
X110389641Y-139955000D02*
X110082359Y-139955000D01*
X133496164Y-142769000D02*
X133711836Y-142769000D01*
X133496164Y-143489000D02*
X133711836Y-143489000D01*
X122909359Y-149734000D02*
X123216641Y-149734000D01*
X122909359Y-150494000D02*
X123216641Y-150494000D01*
X115571000Y-133374641D02*
X115571000Y-133067359D01*
X116331000Y-133374641D02*
X116331000Y-133067359D01*
X124252500Y-142286500D02*
X124252500Y-142569000D01*
X124252500Y-142569000D02*
X122600000Y-142569000D01*
X124252500Y-147781500D02*
X124252500Y-147499000D01*
X127000000Y-142286500D02*
X124252500Y-142286500D01*
X127000000Y-142286500D02*
X129747500Y-142286500D01*
X127000000Y-147781500D02*
X124252500Y-147781500D01*
X127000000Y-147781500D02*
X129747500Y-147781500D01*
X129747500Y-142286500D02*
X129747500Y-142569000D01*
X129747500Y-147781500D02*
X129747500Y-147499000D01*
X114682000Y-145187641D02*
X114682000Y-144880359D01*
X115442000Y-145187641D02*
X115442000Y-144880359D01*
X114961641Y-155447000D02*
X114654359Y-155447000D01*
X114961641Y-154687000D02*
X114654359Y-154687000D01*
X113727000Y-117408000D02*
X113727000Y-116078000D01*
X115057000Y-117408000D02*
X113727000Y-117408000D01*
X116327000Y-117408000D02*
X118927000Y-117408000D01*
X116327000Y-117408000D02*
X116327000Y-114748000D01*
X118927000Y-117408000D02*
X118927000Y-114748000D01*
X116327000Y-114748000D02*
X118927000Y-114748000D01*
X112014000Y-121376000D02*
X110339000Y-121376000D01*
X112014000Y-121376000D02*
X112664000Y-121376000D01*
X112014000Y-124496000D02*
X111364000Y-124496000D01*
X112014000Y-124496000D02*
X112664000Y-124496000D01*
X121235000Y-117408000D02*
X121235000Y-116078000D01*
X122565000Y-117408000D02*
X121235000Y-117408000D01*
X123835000Y-117408000D02*
X131515000Y-117408000D01*
X123835000Y-117408000D02*
X123835000Y-114748000D01*
X131515000Y-117408000D02*
X131515000Y-114748000D01*
X123835000Y-114748000D02*
X131515000Y-114748000D01*
X129132359Y-124842000D02*
X129439641Y-124842000D01*
X129132359Y-125602000D02*
X129439641Y-125602000D01*
X129178164Y-122573000D02*
X129393836Y-122573000D01*
X129178164Y-123293000D02*
X129393836Y-123293000D01*
X131799359Y-150877000D02*
X132106641Y-150877000D01*
X131799359Y-151637000D02*
X132106641Y-151637000D01*
X110740359Y-125350000D02*
X111047641Y-125350000D01*
X110740359Y-126110000D02*
X111047641Y-126110000D01*
X112548641Y-148589000D02*
X112241359Y-148589000D01*
X112548641Y-147829000D02*
X112241359Y-147829000D01*
X110133959Y-142495000D02*
X110441241Y-142495000D01*
X110133959Y-143255000D02*
X110441241Y-143255000D01*
D14*
X140550900Y-152714960D02*
X140550900Y-151676100D01*
X140550900Y-151676100D02*
X140550900Y-154387664D01*
X140550900Y-151676100D02*
X137839336Y-151676100D01*
X139020664Y-155917900D02*
X136309100Y-155917900D01*
X137839336Y-151676100D02*
X140550900Y-151676100D01*
X136309100Y-155917900D02*
X139020664Y-155917900D01*
X136309100Y-155917900D02*
X136309100Y-153206336D01*
X136309100Y-154879040D02*
X136309100Y-155917900D01*
D15*
X142709900Y-153797000D02*
G75*
G03*
X142709900Y-153797000I-381000J0D01*
G01*
D12*
X119762000Y-146330641D02*
X119762000Y-146023359D01*
X120522000Y-146330641D02*
X120522000Y-146023359D01*
G36*
X126173192Y-139283100D02*
G01*
X126230195Y-139302534D01*
X126308708Y-139332316D01*
X126377146Y-139359566D01*
X126460148Y-139392866D01*
X126522410Y-139418456D01*
X126566193Y-139438919D01*
X126593755Y-139456839D01*
X126607358Y-139474798D01*
X126609261Y-139495381D01*
X126601726Y-139521169D01*
X126587011Y-139554747D01*
X126573683Y-139584193D01*
X126551069Y-139627935D01*
X126531381Y-139649133D01*
X126520483Y-139651966D01*
X126501917Y-139647014D01*
X126464257Y-139633933D01*
X126411674Y-139614278D01*
X126348335Y-139589604D01*
X126284270Y-139563857D01*
X126215498Y-139535456D01*
X126154617Y-139509617D01*
X126105569Y-139488067D01*
X126072297Y-139472537D01*
X126058955Y-139465002D01*
X126057159Y-139448182D01*
X126063266Y-139415691D01*
X126074900Y-139374863D01*
X126089683Y-139333032D01*
X126105241Y-139297535D01*
X126119196Y-139275706D01*
X126120733Y-139274285D01*
X126136953Y-139273767D01*
X126173192Y-139283100D01*
G37*
G36*
X126035571Y-137656857D02*
G01*
X126070264Y-137667896D01*
X126119175Y-137685516D01*
X126177962Y-137707949D01*
X126242279Y-137733429D01*
X126307782Y-137760188D01*
X126370125Y-137786460D01*
X126424966Y-137810476D01*
X126467959Y-137830470D01*
X126494758Y-137844675D01*
X126501570Y-137850264D01*
X126499472Y-137868027D01*
X126489669Y-137902132D01*
X126474185Y-137945679D01*
X126471631Y-137952259D01*
X126448316Y-138004881D01*
X126429041Y-138033342D01*
X126417006Y-138039218D01*
X126399453Y-138034281D01*
X126362614Y-138021232D01*
X126310493Y-138001580D01*
X126247092Y-137976835D01*
X126176416Y-137948509D01*
X126174028Y-137947539D01*
X126104021Y-137918858D01*
X126042134Y-137893028D01*
X125992135Y-137871660D01*
X125957793Y-137856366D01*
X125942874Y-137848757D01*
X125942701Y-137848602D01*
X125942717Y-137833376D01*
X125951067Y-137802443D01*
X125965017Y-137762733D01*
X125981830Y-137721176D01*
X125998773Y-137684702D01*
X126013109Y-137660241D01*
X126019444Y-137654165D01*
X126035571Y-137656857D01*
G37*
G36*
X127117643Y-138320703D02*
G01*
X127157465Y-138334912D01*
X127198818Y-138352497D01*
X127234891Y-138370615D01*
X127258875Y-138386422D01*
X127264823Y-138395184D01*
X127259438Y-138416291D01*
X127246357Y-138454636D01*
X127227295Y-138506019D01*
X127203965Y-138566239D01*
X127178079Y-138631097D01*
X127151351Y-138696391D01*
X127125494Y-138757922D01*
X127102221Y-138811490D01*
X127083246Y-138852895D01*
X127070281Y-138877935D01*
X127065655Y-138883476D01*
X127047900Y-138878332D01*
X127014254Y-138865823D01*
X126971932Y-138848634D01*
X126971077Y-138848274D01*
X126930011Y-138829330D01*
X126899312Y-138812112D01*
X126885440Y-138800254D01*
X126885346Y-138800005D01*
X126888386Y-138784860D01*
X126899189Y-138750736D01*
X126916093Y-138702021D01*
X126937430Y-138643104D01*
X126961535Y-138578373D01*
X126986745Y-138512216D01*
X127011393Y-138449022D01*
X127033814Y-138393179D01*
X127052344Y-138349076D01*
X127065317Y-138321102D01*
X127069836Y-138313785D01*
X127086164Y-138312713D01*
X127117643Y-138320703D01*
G37*
G36*
X125491004Y-138442587D02*
G01*
X125524273Y-138451608D01*
X125567791Y-138467105D01*
X125579818Y-138471897D01*
X125626375Y-138491668D01*
X125653447Y-138506117D01*
X125665254Y-138518459D01*
X125666021Y-138531909D01*
X125664752Y-138536566D01*
X125657638Y-138556375D01*
X125642886Y-138595440D01*
X125622102Y-138649573D01*
X125596893Y-138714590D01*
X125568868Y-138786304D01*
X125568646Y-138786868D01*
X125535367Y-138870147D01*
X125509218Y-138931795D01*
X125489128Y-138974007D01*
X125474025Y-138998979D01*
X125462840Y-139008908D01*
X125460160Y-139009286D01*
X125438320Y-139004070D01*
X125401554Y-138991633D01*
X125360663Y-138975801D01*
X125320987Y-138957661D01*
X125292675Y-138941123D01*
X125281859Y-138929773D01*
X125286292Y-138912436D01*
X125298503Y-138876652D01*
X125316776Y-138826772D01*
X125339392Y-138767147D01*
X125364635Y-138702128D01*
X125390788Y-138636067D01*
X125416133Y-138573316D01*
X125438954Y-138518225D01*
X125457532Y-138475147D01*
X125470152Y-138448432D01*
X125474397Y-138441867D01*
X125491004Y-138442587D01*
G37*
G36*
X127199611Y-140210050D02*
G01*
X127268547Y-140237698D01*
X127325968Y-140281981D01*
X127340911Y-140299522D01*
X127382063Y-140372076D01*
X127408803Y-140459765D01*
X127419939Y-140556274D01*
X127414281Y-140655287D01*
X127411354Y-140673064D01*
X127385478Y-140767953D01*
X127345994Y-140841976D01*
X127292419Y-140895776D01*
X127224271Y-140929997D01*
X127217103Y-140932229D01*
X127148817Y-140947194D01*
X127087298Y-140946850D01*
X127019885Y-140931332D01*
X126950035Y-140898340D01*
X126895971Y-140846985D01*
X126857412Y-140776745D01*
X126834080Y-140687094D01*
X126825696Y-140577508D01*
X126825665Y-140566506D01*
X126825722Y-140565452D01*
X127009236Y-140565452D01*
X127010573Y-140627225D01*
X127013688Y-140654956D01*
X127030112Y-140708085D01*
X127058697Y-140747517D01*
X127095031Y-140770789D01*
X127134701Y-140775438D01*
X127173293Y-140759002D01*
X127183733Y-140749859D01*
X127208471Y-140710340D01*
X127224802Y-140654236D01*
X127232252Y-140588880D01*
X127230351Y-140521606D01*
X127218623Y-140459744D01*
X127204726Y-140424379D01*
X127174542Y-140389517D01*
X127134344Y-140373152D01*
X127091440Y-140375695D01*
X127053140Y-140397554D01*
X127038513Y-140415066D01*
X127024054Y-140451177D01*
X127014013Y-140504038D01*
X127009236Y-140565452D01*
X126825722Y-140565452D01*
X126830684Y-140473277D01*
X126846410Y-140398066D01*
X126874699Y-140335300D01*
X126917409Y-140279404D01*
X126923426Y-140273065D01*
X126981068Y-140230542D01*
X127050137Y-140206108D01*
X127124896Y-140199398D01*
X127199611Y-140210050D01*
G37*
G36*
X128554050Y-140203672D02*
G01*
X128629402Y-140230690D01*
X128698813Y-140279922D01*
X128699416Y-140280485D01*
X128736505Y-140329760D01*
X128765277Y-140397187D01*
X128784419Y-140476715D01*
X128792616Y-140562290D01*
X128788554Y-140647860D01*
X128784668Y-140673064D01*
X128758792Y-140767953D01*
X128719307Y-140841976D01*
X128665732Y-140895776D01*
X128597584Y-140929997D01*
X128590416Y-140932229D01*
X128521971Y-140947211D01*
X128460435Y-140946824D01*
X128393922Y-140931389D01*
X128330873Y-140901975D01*
X128280031Y-140855198D01*
X128237802Y-140787600D01*
X128232028Y-140775534D01*
X128216756Y-140739477D01*
X128207075Y-140705912D01*
X128201755Y-140667239D01*
X128199566Y-140615857D01*
X128199242Y-140572806D01*
X128199574Y-140546792D01*
X128383149Y-140546792D01*
X128383231Y-140608898D01*
X128391887Y-140667911D01*
X128409425Y-140718372D01*
X128436153Y-140754825D01*
X128440838Y-140758644D01*
X128478364Y-140772933D01*
X128521022Y-140769837D01*
X128556624Y-140750279D01*
X128557047Y-140749859D01*
X128582820Y-140709176D01*
X128599713Y-140650885D01*
X128606245Y-140581465D01*
X128604872Y-140540739D01*
X128592433Y-140464699D01*
X128568974Y-140411304D01*
X128534471Y-140380527D01*
X128488900Y-140372340D01*
X128462402Y-140376597D01*
X128431268Y-140396496D01*
X128407476Y-140435133D01*
X128391334Y-140487051D01*
X128383149Y-140546792D01*
X128199574Y-140546792D01*
X128200069Y-140508023D01*
X128203436Y-140460881D01*
X128210466Y-140423863D01*
X128222286Y-140389452D01*
X128229015Y-140373820D01*
X128273709Y-140301754D01*
X128332584Y-140247907D01*
X128401616Y-140213079D01*
X128476779Y-140198067D01*
X128554050Y-140203672D01*
G37*
G36*
X125582502Y-140418919D02*
G01*
X125608873Y-140430189D01*
X125620809Y-140442103D01*
X125642507Y-140468891D01*
X125678222Y-140442875D01*
X125724092Y-140423167D01*
X125781722Y-140418028D01*
X125842324Y-140427435D01*
X125883092Y-140443324D01*
X125919586Y-140469101D01*
X125956013Y-140505386D01*
X125968575Y-140521420D01*
X125983707Y-140543578D01*
X125994142Y-140563233D01*
X126000752Y-140585581D01*
X126004411Y-140615813D01*
X126005990Y-140659123D01*
X126006365Y-140720704D01*
X126006372Y-140746243D01*
X126006372Y-140917603D01*
X125965425Y-140928253D01*
X125922618Y-140932665D01*
X125883530Y-140928338D01*
X125842583Y-140917772D01*
X125836283Y-140775660D01*
X125833107Y-140713184D01*
X125829419Y-140670778D01*
X125824108Y-140643319D01*
X125816063Y-140625688D01*
X125804173Y-140612761D01*
X125800239Y-140609477D01*
X125757480Y-140588239D01*
X125712422Y-140587286D01*
X125672932Y-140606103D01*
X125660808Y-140618602D01*
X125648362Y-140637910D01*
X125640560Y-140661470D01*
X125636386Y-140695366D01*
X125634820Y-140745678D01*
X125634696Y-140774550D01*
X125633367Y-140839802D01*
X125629144Y-140882874D01*
X125621667Y-140906657D01*
X125617746Y-140911367D01*
X125587107Y-140925339D01*
X125544086Y-140932211D01*
X125500953Y-140930100D01*
X125498575Y-140929636D01*
X125471707Y-140913322D01*
X125456818Y-140890171D01*
X125451939Y-140864200D01*
X125448771Y-140820104D01*
X125447200Y-140763041D01*
X125447107Y-140698171D01*
X125448377Y-140630653D01*
X125450893Y-140565645D01*
X125454537Y-140508307D01*
X125459193Y-140463797D01*
X125464745Y-140437274D01*
X125467164Y-140432883D01*
X125488253Y-140423499D01*
X125523745Y-140417488D01*
X125540716Y-140416538D01*
X125582502Y-140418919D01*
G37*
G36*
X127882430Y-140415538D02*
G01*
X127942480Y-140416449D01*
X127985046Y-140418418D01*
X128013982Y-140421812D01*
X128033144Y-140427000D01*
X128046388Y-140434350D01*
X128052403Y-140439317D01*
X128073283Y-140471383D01*
X128078942Y-140498898D01*
X128075835Y-140516522D01*
X128064592Y-140536499D01*
X128042332Y-140562136D01*
X128006173Y-140596741D01*
X127953232Y-140643621D01*
X127951661Y-140644986D01*
X127824380Y-140755494D01*
X127942212Y-140761794D01*
X127995503Y-140765597D01*
X128039960Y-140770529D01*
X128069047Y-140775785D01*
X128075792Y-140778287D01*
X128085485Y-140796767D01*
X128090933Y-140832337D01*
X128091541Y-140851044D01*
X128090011Y-140889451D01*
X128083151Y-140910621D01*
X128067556Y-140922440D01*
X128059223Y-140925896D01*
X128033705Y-140930600D01*
X127988816Y-140934030D01*
X127929811Y-140936220D01*
X127861943Y-140937203D01*
X127790465Y-140937013D01*
X127720632Y-140935686D01*
X127657697Y-140933254D01*
X127606915Y-140929753D01*
X127573539Y-140925216D01*
X127565250Y-140922684D01*
X127537583Y-140896525D01*
X127525906Y-140856774D01*
X127529612Y-140821640D01*
X127542645Y-140802242D01*
X127572785Y-140770840D01*
X127616814Y-140730324D01*
X127671514Y-140683585D01*
X127733666Y-140633513D01*
X127772044Y-140603943D01*
X127781008Y-140595194D01*
X127777144Y-140589842D01*
X127756810Y-140587043D01*
X127716368Y-140585953D01*
X127693924Y-140585806D01*
X127629260Y-140583440D01*
X127585815Y-140575462D01*
X127559836Y-140559640D01*
X127547573Y-140533746D01*
X127545218Y-140497431D01*
X127549451Y-140460864D01*
X127558303Y-140434349D01*
X127561403Y-140430136D01*
X127578367Y-140424030D01*
X127616175Y-140419597D01*
X127676092Y-140416759D01*
X127759381Y-140415438D01*
X127801039Y-140415316D01*
X127882430Y-140415538D01*
G37*
G36*
X125163356Y-140416659D02*
G01*
X125228791Y-140439278D01*
X125280031Y-140478865D01*
X125303594Y-140508715D01*
X125326137Y-140558104D01*
X125333445Y-140611366D01*
X125325536Y-140660442D01*
X125303154Y-140696602D01*
X125288394Y-140708445D01*
X125270689Y-140716298D01*
X125244860Y-140720968D01*
X125205729Y-140723257D01*
X125148116Y-140723970D01*
X125126766Y-140723996D01*
X125062380Y-140724509D01*
X125019331Y-140726368D01*
X124993768Y-140730061D01*
X124981845Y-140736073D01*
X124979537Y-140742572D01*
X124990693Y-140762078D01*
X125018821Y-140780801D01*
X125055914Y-140794655D01*
X125091343Y-140799592D01*
X125125807Y-140796703D01*
X125171094Y-140789361D01*
X125194373Y-140784457D01*
X125233115Y-140776416D01*
X125255937Y-140776045D01*
X125271306Y-140784671D01*
X125283528Y-140798452D01*
X125305933Y-140839330D01*
X125304279Y-140875347D01*
X125279447Y-140905235D01*
X125232317Y-140927731D01*
X125186015Y-140938487D01*
X125118533Y-140947447D01*
X125064573Y-140948684D01*
X125013591Y-140941935D01*
X124977630Y-140933296D01*
X124899273Y-140901437D01*
X124840221Y-140853493D01*
X124800836Y-140789896D01*
X124781483Y-140711079D01*
X124780403Y-140698994D01*
X124781658Y-140633216D01*
X124972455Y-140633216D01*
X124973272Y-140635858D01*
X124990983Y-140644394D01*
X125024606Y-140648072D01*
X125065386Y-140647193D01*
X125104568Y-140642053D01*
X125133399Y-140632953D01*
X125137769Y-140630240D01*
X125154046Y-140608389D01*
X125148215Y-140587349D01*
X125123198Y-140570836D01*
X125084687Y-140562754D01*
X125043595Y-140564745D01*
X125011401Y-140581496D01*
X125000217Y-140591158D01*
X124979651Y-140614915D01*
X124972455Y-140633216D01*
X124781658Y-140633216D01*
X124781871Y-140622030D01*
X124799993Y-140559557D01*
X124836650Y-140505653D01*
X124844379Y-140497410D01*
X124899352Y-140451950D01*
X124961477Y-140423897D01*
X125036832Y-140410985D01*
X125080331Y-140409500D01*
X125163356Y-140416659D01*
G37*
G36*
X126637670Y-140169872D02*
G01*
X126658823Y-140172349D01*
X126675058Y-140179699D01*
X126687026Y-140194557D01*
X126695376Y-140219559D01*
X126700759Y-140257340D01*
X126703827Y-140310536D01*
X126705228Y-140381781D01*
X126705614Y-140473713D01*
X126705628Y-140553264D01*
X126705612Y-140660461D01*
X126705108Y-140745117D01*
X126703432Y-140809890D01*
X126699899Y-140857438D01*
X126693825Y-140890418D01*
X126684526Y-140911487D01*
X126671318Y-140923304D01*
X126653516Y-140928525D01*
X126630437Y-140929807D01*
X126608679Y-140929784D01*
X126564375Y-140925586D01*
X126538315Y-140911824D01*
X126534149Y-140906915D01*
X126517847Y-140891729D01*
X126500910Y-140897817D01*
X126498492Y-140899762D01*
X126461181Y-140918164D01*
X126409995Y-140927458D01*
X126355152Y-140925923D01*
X126348953Y-140924954D01*
X126288581Y-140903662D01*
X126230560Y-140864171D01*
X126183206Y-140812767D01*
X126167979Y-140788161D01*
X126142630Y-140715356D01*
X126141686Y-140673600D01*
X126327652Y-140673600D01*
X126338283Y-140714696D01*
X126365828Y-140744051D01*
X126403770Y-140759182D01*
X126445589Y-140757612D01*
X126484766Y-140736859D01*
X126487480Y-140734399D01*
X126512172Y-140697420D01*
X126512291Y-140657862D01*
X126487880Y-140618543D01*
X126485715Y-140616331D01*
X126447363Y-140592206D01*
X126406027Y-140587775D01*
X126368069Y-140600732D01*
X126339851Y-140628772D01*
X126327735Y-140669591D01*
X126327652Y-140673600D01*
X126141686Y-140673600D01*
X126140967Y-140641821D01*
X126161913Y-140571481D01*
X126204391Y-140508261D01*
X126257349Y-140462563D01*
X126299684Y-140437251D01*
X126337415Y-140425024D01*
X126384230Y-140421632D01*
X126389268Y-140421616D01*
X126443471Y-140425844D01*
X126482462Y-140437533D01*
X126488638Y-140441229D01*
X126516640Y-140460842D01*
X126516640Y-140343239D01*
X126518444Y-140273104D01*
X126525171Y-140224358D01*
X126538799Y-140193363D01*
X126561302Y-140176481D01*
X126594657Y-140170076D01*
X126610949Y-140169631D01*
X126637670Y-140169872D01*
G37*
G36*
X127159225Y-137629566D02*
G01*
X127180738Y-137639174D01*
X127236882Y-137678278D01*
X127270514Y-137728386D01*
X127282406Y-137790867D01*
X127281427Y-137817668D01*
X127266229Y-137882980D01*
X127232028Y-137932932D01*
X127176460Y-137970972D01*
X127176262Y-137971070D01*
X127125339Y-137996268D01*
X126962731Y-138410219D01*
X126924901Y-138506537D01*
X126890023Y-138595371D01*
X126859161Y-138674010D01*
X126833378Y-138739740D01*
X126813739Y-138789850D01*
X126801306Y-138821628D01*
X126797165Y-138832292D01*
X126806840Y-138840005D01*
X126835311Y-138854509D01*
X126877861Y-138873543D01*
X126916858Y-138889704D01*
X126969428Y-138911358D01*
X127014006Y-138930699D01*
X127044866Y-138945186D01*
X127055256Y-138951093D01*
X127069339Y-138977536D01*
X127065985Y-139021171D01*
X127046254Y-139078755D01*
X127028012Y-139114982D01*
X127010771Y-139131967D01*
X126992708Y-139135166D01*
X126971880Y-139129983D01*
X126932402Y-139116475D01*
X126878755Y-139096310D01*
X126815420Y-139071159D01*
X126764479Y-139050121D01*
X126698241Y-139021495D01*
X126640108Y-138994815D01*
X126594124Y-138972064D01*
X126564337Y-138955222D01*
X126554973Y-138947508D01*
X126552228Y-138940693D01*
X126551273Y-138931635D01*
X126552834Y-138918292D01*
X126557634Y-138898619D01*
X126566397Y-138870573D01*
X126579848Y-138832110D01*
X126598712Y-138781187D01*
X126623712Y-138715760D01*
X126655573Y-138633786D01*
X126695020Y-138533219D01*
X126742776Y-138412018D01*
X126762309Y-138362515D01*
X126936009Y-137922413D01*
X126920779Y-137862988D01*
X126916984Y-137827479D01*
X126999834Y-137827479D01*
X127024835Y-137869593D01*
X127033525Y-137878831D01*
X127073129Y-137906023D01*
X127112733Y-137908103D01*
X127152736Y-137885043D01*
X127168649Y-137869099D01*
X127192926Y-137827317D01*
X127192030Y-137784601D01*
X127167493Y-137742887D01*
X127128663Y-137714096D01*
X127085401Y-137708293D01*
X127043598Y-137725478D01*
X127024914Y-137742887D01*
X126999885Y-137785634D01*
X126999834Y-137827479D01*
X126916984Y-137827479D01*
X126913047Y-137790650D01*
X126928657Y-137726775D01*
X126967266Y-137672603D01*
X126975668Y-137664820D01*
X127033464Y-137628102D01*
X127094700Y-137616345D01*
X127159225Y-137629566D01*
G37*
G36*
X125994507Y-138933404D02*
G01*
X126020773Y-138939042D01*
X126058714Y-138950332D01*
X126110218Y-138967923D01*
X126177174Y-138992466D01*
X126261472Y-139024608D01*
X126365000Y-139065000D01*
X126489648Y-139114292D01*
X126509446Y-139122160D01*
X126987321Y-139312183D01*
X127076410Y-139304945D01*
X127125581Y-139301988D01*
X127158503Y-139303889D01*
X127183895Y-139312130D01*
X127209596Y-139327596D01*
X127259589Y-139374679D01*
X127288280Y-139430743D01*
X127295684Y-139491332D01*
X127281817Y-139551992D01*
X127246693Y-139608266D01*
X127208506Y-139643379D01*
X127164254Y-139664234D01*
X127110470Y-139673447D01*
X127059761Y-139669357D01*
X127045807Y-139664787D01*
X126997835Y-139634465D01*
X126956550Y-139590327D01*
X126931921Y-139544476D01*
X126924810Y-139527143D01*
X126913751Y-139512799D01*
X126894718Y-139499031D01*
X126872427Y-139487824D01*
X127008410Y-139487824D01*
X127020388Y-139533363D01*
X127055382Y-139569093D01*
X127064706Y-139574850D01*
X127101006Y-139588534D01*
X127135952Y-139582420D01*
X127150578Y-139575411D01*
X127190585Y-139542481D01*
X127208275Y-139500851D01*
X127202683Y-139455023D01*
X127183484Y-139421678D01*
X127148786Y-139394664D01*
X127108048Y-139387259D01*
X127067546Y-139397091D01*
X127033559Y-139421788D01*
X127012366Y-139458978D01*
X127008410Y-139487824D01*
X126872427Y-139487824D01*
X126863685Y-139483429D01*
X126816625Y-139463581D01*
X126758390Y-139440545D01*
X126695272Y-139415825D01*
X126615591Y-139384554D01*
X126526224Y-139349433D01*
X126434045Y-139313164D01*
X126345931Y-139278450D01*
X126344285Y-139277801D01*
X126090035Y-139177553D01*
X126037555Y-139305065D01*
X126010159Y-139370825D01*
X125989093Y-139416200D01*
X125971066Y-139444093D01*
X125952788Y-139457408D01*
X125930968Y-139459051D01*
X125902317Y-139451924D01*
X125879703Y-139444384D01*
X125839490Y-139427974D01*
X125809089Y-139410553D01*
X125797574Y-139399377D01*
X125796625Y-139382812D01*
X125804148Y-139350509D01*
X125820747Y-139300619D01*
X125847024Y-139231292D01*
X125875725Y-139159847D01*
X125904019Y-139090904D01*
X125929094Y-139030382D01*
X125949392Y-138982000D01*
X125963352Y-138949471D01*
X125969416Y-138936513D01*
X125969441Y-138936484D01*
X125978026Y-138932768D01*
X125994507Y-138933404D01*
G37*
G36*
X124590971Y-140213220D02*
G01*
X124623956Y-140227042D01*
X124632581Y-140233723D01*
X124639224Y-140242237D01*
X124644144Y-140255676D01*
X124647599Y-140277133D01*
X124649848Y-140309702D01*
X124651149Y-140356475D01*
X124651762Y-140420546D01*
X124651946Y-140505007D01*
X124651958Y-140561750D01*
X124651445Y-140660838D01*
X124649974Y-140746448D01*
X124647645Y-140815909D01*
X124644559Y-140866554D01*
X124640816Y-140895711D01*
X124639205Y-140900671D01*
X124615064Y-140922025D01*
X124576727Y-140933119D01*
X124533668Y-140932341D01*
X124504989Y-140923492D01*
X124469269Y-140906400D01*
X124462969Y-140711255D01*
X124456670Y-140516110D01*
X124374775Y-140619122D01*
X124336913Y-140664060D01*
X124300753Y-140702305D01*
X124271334Y-140728754D01*
X124258232Y-140737193D01*
X124227115Y-140745017D01*
X124196130Y-140739109D01*
X124162089Y-140717443D01*
X124121805Y-140677995D01*
X124072394Y-140619122D01*
X123990499Y-140516110D01*
X123984200Y-140711053D01*
X123981686Y-140784998D01*
X123979219Y-140837758D01*
X123976078Y-140873338D01*
X123971548Y-140895740D01*
X123964910Y-140908966D01*
X123955448Y-140917020D01*
X123946402Y-140921904D01*
X123913070Y-140934315D01*
X123878621Y-140934561D01*
X123851908Y-140929359D01*
X123835228Y-140924288D01*
X123822180Y-140915902D01*
X123812319Y-140901346D01*
X123805201Y-140877766D01*
X123800383Y-140842305D01*
X123797420Y-140792108D01*
X123795868Y-140724320D01*
X123795283Y-140636086D01*
X123795212Y-140564813D01*
X123795267Y-140467191D01*
X123795604Y-140391691D01*
X123796477Y-140335237D01*
X123798141Y-140294752D01*
X123800852Y-140267161D01*
X123804864Y-140249386D01*
X123810432Y-140238353D01*
X123817812Y-140230984D01*
X123823213Y-140227042D01*
X123867994Y-140209750D01*
X123919574Y-140211264D01*
X123948959Y-140221185D01*
X123967073Y-140235565D01*
X123997213Y-140265754D01*
X124035722Y-140307838D01*
X124078939Y-140357906D01*
X124096218Y-140378675D01*
X124138394Y-140429209D01*
X124175180Y-140471968D01*
X124203546Y-140503529D01*
X124220459Y-140520468D01*
X124223530Y-140522409D01*
X124234279Y-140513209D01*
X124257976Y-140487843D01*
X124291632Y-140449668D01*
X124332260Y-140402039D01*
X124355382Y-140374368D01*
X124399552Y-140322180D01*
X124439504Y-140276892D01*
X124471903Y-140242140D01*
X124493413Y-140221564D01*
X124498953Y-140217764D01*
X124543508Y-140208822D01*
X124590971Y-140213220D01*
G37*
G36*
X125507553Y-137636881D02*
G01*
X125546302Y-137654715D01*
X125584546Y-137684059D01*
X125615671Y-137718400D01*
X125633063Y-137751227D01*
X125634696Y-137762079D01*
X125642635Y-137788756D01*
X125650445Y-137798261D01*
X125668004Y-137807899D01*
X125704895Y-137824751D01*
X125757850Y-137847526D01*
X125823601Y-137874936D01*
X125898879Y-137905690D01*
X125980417Y-137938499D01*
X126064947Y-137972073D01*
X126149200Y-138005123D01*
X126229909Y-138036359D01*
X126303806Y-138064491D01*
X126367622Y-138088230D01*
X126418090Y-138106286D01*
X126451941Y-138117369D01*
X126465908Y-138120190D01*
X126466013Y-138120105D01*
X126474503Y-138104584D01*
X126489828Y-138071236D01*
X126509488Y-138025638D01*
X126522945Y-137993200D01*
X126544997Y-137942034D01*
X126565618Y-137899056D01*
X126581875Y-137870147D01*
X126588358Y-137861966D01*
X126610363Y-137857132D01*
X126646342Y-137861280D01*
X126687750Y-137872089D01*
X126726042Y-137887235D01*
X126752670Y-137904397D01*
X126755439Y-137907367D01*
X126758840Y-137918498D01*
X126756274Y-137939130D01*
X126746834Y-137972107D01*
X126729610Y-138020271D01*
X126703695Y-138086464D01*
X126677992Y-138149689D01*
X126645611Y-138227924D01*
X126620799Y-138285783D01*
X126601883Y-138326335D01*
X126587194Y-138352647D01*
X126575061Y-138367787D01*
X126563812Y-138374822D01*
X126554370Y-138376674D01*
X126522203Y-138375681D01*
X126504041Y-138371609D01*
X126488471Y-138365290D01*
X126452246Y-138350514D01*
X126398030Y-138328368D01*
X126328487Y-138299943D01*
X126246282Y-138266328D01*
X126154079Y-138228611D01*
X126054542Y-138187881D01*
X126037870Y-138181058D01*
X125590598Y-137998003D01*
X125481397Y-137997135D01*
X125426996Y-137996000D01*
X125391075Y-137992629D01*
X125366930Y-137985504D01*
X125347854Y-137973105D01*
X125338459Y-137964770D01*
X125293003Y-137908641D01*
X125271494Y-137846712D01*
X125269549Y-137819879D01*
X125357513Y-137819879D01*
X125367640Y-137868458D01*
X125394314Y-137902687D01*
X125431975Y-137920311D01*
X125475062Y-137919072D01*
X125518015Y-137896714D01*
X125526972Y-137888661D01*
X125545707Y-137855098D01*
X125551144Y-137811946D01*
X125542658Y-137771354D01*
X125533790Y-137756748D01*
X125494755Y-137727728D01*
X125447200Y-137721211D01*
X125420715Y-137727202D01*
X125380582Y-137751414D01*
X125360518Y-137790141D01*
X125357513Y-137819879D01*
X125269549Y-137819879D01*
X125269366Y-137817355D01*
X125278578Y-137767744D01*
X125302178Y-137715876D01*
X125334242Y-137673873D01*
X125343359Y-137665966D01*
X125391982Y-137641757D01*
X125450902Y-137631403D01*
X125507553Y-137636881D01*
G37*
G36*
X125577651Y-138183811D02*
G01*
X125616512Y-138197045D01*
X125668335Y-138216667D01*
X125728389Y-138240685D01*
X125791941Y-138267106D01*
X125854257Y-138293937D01*
X125910605Y-138319187D01*
X125956252Y-138340863D01*
X125986466Y-138356973D01*
X125995973Y-138363964D01*
X126000143Y-138368948D01*
X126003263Y-138373956D01*
X126004610Y-138381049D01*
X126003461Y-138392288D01*
X125999093Y-138409731D01*
X125990785Y-138435440D01*
X125977812Y-138471474D01*
X125959454Y-138519894D01*
X125934985Y-138582760D01*
X125903685Y-138662131D01*
X125864831Y-138760069D01*
X125817698Y-138878634D01*
X125798402Y-138927174D01*
X125752825Y-139041945D01*
X125715812Y-139135655D01*
X125686598Y-139210649D01*
X125664416Y-139269271D01*
X125648501Y-139313868D01*
X125638086Y-139346784D01*
X125632405Y-139370366D01*
X125630692Y-139386957D01*
X125632180Y-139398904D01*
X125636103Y-139408552D01*
X125639291Y-139414187D01*
X125658096Y-139468428D01*
X125658840Y-139529697D01*
X125643285Y-139590150D01*
X125613188Y-139641945D01*
X125581750Y-139670641D01*
X125543799Y-139686464D01*
X125494324Y-139696239D01*
X125446689Y-139697886D01*
X125426809Y-139694766D01*
X125368142Y-139666946D01*
X125325787Y-139621461D01*
X125301652Y-139561324D01*
X125299880Y-139530920D01*
X125382413Y-139530920D01*
X125397777Y-139570111D01*
X125415909Y-139589153D01*
X125460090Y-139612045D01*
X125503459Y-139609903D01*
X125531894Y-139595096D01*
X125564188Y-139560023D01*
X125576523Y-139518897D01*
X125570700Y-139477772D01*
X125548519Y-139442697D01*
X125511781Y-139419724D01*
X125478018Y-139414080D01*
X125435186Y-139424257D01*
X125403432Y-139451471D01*
X125385070Y-139489199D01*
X125382413Y-139530920D01*
X125299880Y-139530920D01*
X125297541Y-139490779D01*
X125302221Y-139451507D01*
X125311529Y-139423639D01*
X125330298Y-139398250D01*
X125363362Y-139366415D01*
X125366355Y-139363698D01*
X125383493Y-139347763D01*
X125398418Y-139332041D01*
X125412414Y-139313882D01*
X125426767Y-139290635D01*
X125442760Y-139259650D01*
X125461677Y-139218278D01*
X125484803Y-139163869D01*
X125513422Y-139093773D01*
X125548818Y-139005340D01*
X125588727Y-138904864D01*
X125626293Y-138809730D01*
X125660704Y-138721740D01*
X125690887Y-138643705D01*
X125715768Y-138578438D01*
X125734273Y-138528751D01*
X125745328Y-138497454D01*
X125748088Y-138487620D01*
X125737182Y-138476721D01*
X125707604Y-138459013D01*
X125664061Y-138437079D01*
X125618947Y-138416766D01*
X125561478Y-138391464D01*
X125523484Y-138372526D01*
X125500914Y-138357287D01*
X125489716Y-138343082D01*
X125486054Y-138329339D01*
X125488526Y-138294843D01*
X125500414Y-138254965D01*
X125518161Y-138217299D01*
X125538212Y-138189435D01*
X125556487Y-138178957D01*
X125577651Y-138183811D01*
G37*
X132434359Y-132843000D02*
X132741641Y-132843000D01*
X132434359Y-133603000D02*
X132741641Y-133603000D01*
X139326252Y-127989000D02*
X138803748Y-127989000D01*
X139326252Y-126519000D02*
X138803748Y-126519000D01*
X133757641Y-144779000D02*
X133450359Y-144779000D01*
X133757641Y-144019000D02*
X133450359Y-144019000D01*
X122682000Y-128387000D02*
X126132000Y-128387000D01*
X122682000Y-128387000D02*
X120732000Y-128387000D01*
X122682000Y-119517000D02*
X124632000Y-119517000D01*
X122682000Y-119517000D02*
X120732000Y-119517000D01*
X110389641Y-148589000D02*
X110082359Y-148589000D01*
X110389641Y-147829000D02*
X110082359Y-147829000D01*
X140767000Y-130413000D02*
X140767000Y-128413000D01*
X140767000Y-130413000D02*
X136907000Y-130413000D01*
X140767000Y-128413000D02*
X136907000Y-128413000D01*
X113539000Y-145187641D02*
X113539000Y-144880359D01*
X114299000Y-145187641D02*
X114299000Y-144880359D01*
X110082359Y-135129000D02*
X110389641Y-135129000D01*
X110082359Y-135889000D02*
X110389641Y-135889000D01*
X131775000Y-122063000D02*
X131775000Y-124063000D01*
X131775000Y-122063000D02*
X135635000Y-122063000D01*
X131775000Y-124063000D02*
X135635000Y-124063000D01*
X136347000Y-122063000D02*
X136347000Y-124063000D01*
X136347000Y-122063000D02*
X140207000Y-122063000D01*
X136347000Y-124063000D02*
X140207000Y-124063000D01*
X139326252Y-134339000D02*
X138803748Y-134339000D01*
X139326252Y-132869000D02*
X138803748Y-132869000D01*
X122605000Y-159376000D02*
X123025000Y-159376000D01*
X122605000Y-161356000D02*
X122605000Y-159376000D01*
X122605000Y-163726000D02*
X122605000Y-163326000D01*
X124605000Y-159146000D02*
X124605000Y-158696000D01*
X125055000Y-158696000D02*
X124605000Y-158696000D01*
X130125000Y-159376000D02*
X129705000Y-159376000D01*
X130125000Y-161356000D02*
X130125000Y-159376000D01*
X130125000Y-163326000D02*
X130125000Y-163726000D01*
X107270000Y-149240000D02*
X106000000Y-149240000D01*
X107270000Y-147970000D02*
X107270000Y-149240000D01*
X104957071Y-145810000D02*
X104560000Y-145810000D01*
X104957071Y-145050000D02*
X104560000Y-145050000D01*
X104957071Y-143270000D02*
X104560000Y-143270000D01*
X104957071Y-142510000D02*
X104560000Y-142510000D01*
X104957071Y-140730000D02*
X104560000Y-140730000D01*
X104957071Y-139970000D02*
X104560000Y-139970000D01*
X104957071Y-138190000D02*
X104560000Y-138190000D01*
X104957071Y-137430000D02*
X104560000Y-137430000D01*
X104957071Y-135650000D02*
X104560000Y-135650000D01*
X104957071Y-134890000D02*
X104560000Y-134890000D01*
X104957071Y-133110000D02*
X104560000Y-133110000D01*
X104957071Y-132350000D02*
X104560000Y-132350000D01*
X104957071Y-130570000D02*
X104560000Y-130570000D01*
X104957071Y-129810000D02*
X104560000Y-129810000D01*
X104890000Y-148350000D02*
X104560000Y-148350000D01*
X104890000Y-147590000D02*
X104560000Y-147590000D01*
X104560000Y-149300000D02*
X104560000Y-128860000D01*
X104560000Y-146700000D02*
X101900000Y-146700000D01*
X104560000Y-144160000D02*
X101900000Y-144160000D01*
X104560000Y-141620000D02*
X101900000Y-141620000D01*
X104560000Y-139080000D02*
X101900000Y-139080000D01*
X104560000Y-136540000D02*
X101900000Y-136540000D01*
X104560000Y-134000000D02*
X101900000Y-134000000D01*
X104560000Y-131460000D02*
X101900000Y-131460000D01*
X104560000Y-128860000D02*
X101900000Y-128860000D01*
X101900000Y-149300000D02*
X104560000Y-149300000D01*
X101900000Y-148350000D02*
X95900000Y-148350000D01*
X101900000Y-148290000D02*
X95900000Y-148290000D01*
X101900000Y-148170000D02*
X95900000Y-148170000D01*
X101900000Y-148050000D02*
X95900000Y-148050000D01*
X101900000Y-147930000D02*
X95900000Y-147930000D01*
X101900000Y-147810000D02*
X95900000Y-147810000D01*
X101900000Y-147690000D02*
X95900000Y-147690000D01*
X101900000Y-145810000D02*
X95900000Y-145810000D01*
X101900000Y-143270000D02*
X95900000Y-143270000D01*
X101900000Y-140730000D02*
X95900000Y-140730000D01*
X101900000Y-138190000D02*
X95900000Y-138190000D01*
X101900000Y-135650000D02*
X95900000Y-135650000D01*
X101900000Y-133110000D02*
X95900000Y-133110000D01*
X101900000Y-130570000D02*
X95900000Y-130570000D01*
X101900000Y-128860000D02*
X101900000Y-149300000D01*
X95900000Y-148350000D02*
X95900000Y-147590000D01*
X95900000Y-147590000D02*
X101900000Y-147590000D01*
X95900000Y-145810000D02*
X95900000Y-145050000D01*
X95900000Y-145050000D02*
X101900000Y-145050000D01*
X95900000Y-143270000D02*
X95900000Y-142510000D01*
X95900000Y-142510000D02*
X101900000Y-142510000D01*
X95900000Y-140730000D02*
X95900000Y-139970000D01*
X95900000Y-139970000D02*
X101900000Y-139970000D01*
X95900000Y-138190000D02*
X95900000Y-137430000D01*
X95900000Y-137430000D02*
X101900000Y-137430000D01*
X95900000Y-135650000D02*
X95900000Y-134890000D01*
X95900000Y-134890000D02*
X101900000Y-134890000D01*
X95900000Y-133110000D02*
X95900000Y-132350000D01*
X95900000Y-132350000D02*
X101900000Y-132350000D01*
X95900000Y-130570000D02*
X95900000Y-129810000D01*
X95900000Y-129810000D02*
X101900000Y-129810000D01*
D13*
X128268000Y-126231000D02*
G75*
G03*
X128268000Y-126231000I-50000J0D01*
G01*
D12*
X139648000Y-164500500D02*
X139648000Y-160600500D01*
X139648000Y-164500500D02*
X131928000Y-164500500D01*
X139648000Y-158000500D02*
X139648000Y-157490500D01*
X139648000Y-157490500D02*
X139128000Y-157490500D01*
X139128000Y-160830500D02*
X139128000Y-160600500D01*
X139128000Y-160830500D02*
X138588000Y-160830500D01*
X139128000Y-158000500D02*
X139128000Y-157490500D01*
X137488000Y-160830500D02*
X134088000Y-160830500D01*
X132988000Y-160830500D02*
X132448000Y-160830500D01*
X132448000Y-160830500D02*
X132448000Y-160600500D01*
X132448000Y-158000500D02*
X132448000Y-157490500D01*
X132448000Y-157490500D02*
X131928000Y-157490500D01*
X131928000Y-164500500D02*
X131928000Y-160600500D01*
X131928000Y-158000500D02*
X131928000Y-157490500D01*
X132106641Y-155447000D02*
X131799359Y-155447000D01*
X132106641Y-154687000D02*
X131799359Y-154687000D01*
X138684000Y-150785000D02*
X140359000Y-150785000D01*
X138684000Y-150785000D02*
X138034000Y-150785000D01*
X138684000Y-147665000D02*
X139334000Y-147665000D01*
X138684000Y-147665000D02*
X138034000Y-147665000D01*
X139326252Y-141578000D02*
X138803748Y-141578000D01*
X139326252Y-140108000D02*
X138803748Y-140108000D01*
X139003000Y-114875000D02*
X139003000Y-116205000D01*
X137673000Y-114875000D02*
X139003000Y-114875000D01*
X136403000Y-114875000D02*
X133803000Y-114875000D01*
X136403000Y-114875000D02*
X136403000Y-117535000D01*
X133803000Y-114875000D02*
X133803000Y-117535000D01*
X136403000Y-117535000D02*
X133803000Y-117535000D01*
X134184748Y-124533000D02*
X134707252Y-124533000D01*
X134184748Y-126003000D02*
X134707252Y-126003000D01*
X110717359Y-115825000D02*
X111024641Y-115825000D01*
X110717359Y-116585000D02*
X111024641Y-116585000D01*
X142012641Y-116585000D02*
X141705359Y-116585000D01*
X142012641Y-115825000D02*
X141705359Y-115825000D01*
X110736748Y-153824000D02*
X111259252Y-153824000D01*
X110736748Y-155294000D02*
X111259252Y-155294000D01*
X122562252Y-152754000D02*
X122039748Y-152754000D01*
X122562252Y-151284000D02*
X122039748Y-151284000D01*
X110147047Y-145035000D02*
X110454329Y-145035000D01*
X110147047Y-145795000D02*
X110454329Y-145795000D01*
X139326252Y-121639000D02*
X138803748Y-121639000D01*
X139326252Y-120169000D02*
X138803748Y-120169000D01*
X113976000Y-139065000D02*
X113976000Y-142665000D01*
X113976000Y-139065000D02*
X113976000Y-136865000D01*
X119196000Y-139065000D02*
X119196000Y-141265000D01*
X119196000Y-139065000D02*
X119196000Y-136865000D01*
X129894064Y-130529000D02*
X129439936Y-130529000D01*
X129894064Y-129059000D02*
X129439936Y-129059000D01*
X104715000Y-151192000D02*
X106045000Y-151192000D01*
X104715000Y-152522000D02*
X104715000Y-151192000D01*
X104715000Y-153792000D02*
X104715000Y-156392000D01*
X104715000Y-153792000D02*
X107375000Y-153792000D01*
X104715000Y-156392000D02*
X107375000Y-156392000D01*
X107375000Y-153792000D02*
X107375000Y-156392000D01*
X126111000Y-131502000D02*
X122511000Y-131502000D01*
X126111000Y-131502000D02*
X128311000Y-131502000D01*
X126111000Y-136722000D02*
X123911000Y-136722000D01*
X126111000Y-136722000D02*
X128311000Y-136722000D01*
X131799359Y-149607000D02*
X132106641Y-149607000D01*
X131799359Y-150367000D02*
X132106641Y-150367000D01*
X129178164Y-126894000D02*
X129393836Y-126894000D01*
X129178164Y-127614000D02*
X129393836Y-127614000D01*
X110389641Y-137032000D02*
X110082359Y-137032000D01*
X110389641Y-136272000D02*
X110082359Y-136272000D01*
X133249641Y-138048000D02*
X132942359Y-138048000D01*
X133249641Y-137288000D02*
X132942359Y-137288000D01*
X129178164Y-127910000D02*
X129393836Y-127910000D01*
X129178164Y-128630000D02*
X129393836Y-128630000D01*
X126939000Y-149697000D02*
X125139000Y-149697000D01*
X126939000Y-149697000D02*
X127739000Y-149697000D01*
X126939000Y-152817000D02*
X126139000Y-152817000D01*
X126939000Y-152817000D02*
X127739000Y-152817000D01*
X110082359Y-138812000D02*
X110389641Y-138812000D01*
X110082359Y-139572000D02*
X110389641Y-139572000D01*
X129439641Y-124332000D02*
X129132359Y-124332000D01*
X129439641Y-123572000D02*
X129132359Y-123572000D01*
X124368779Y-155323000D02*
X124043221Y-155323000D01*
X124368779Y-154303000D02*
X124043221Y-154303000D01*
X132060836Y-154284000D02*
X131845164Y-154284000D01*
X132060836Y-153564000D02*
X131845164Y-153564000D01*
X139326252Y-125957000D02*
X138803748Y-125957000D01*
X139326252Y-124487000D02*
X138803748Y-124487000D01*
X110763164Y-119909000D02*
X110978836Y-119909000D01*
X110763164Y-120629000D02*
X110978836Y-120629000D01*
M02*
