M48
; DRILL file {KiCad 7.0.9} date Mon Dec 18 09:55:48 2023
; FORMAT={-:-/ absolute / metric / decimal}
; #@! TF.CreationDate,2023-12-18T09:55:48-05:00
; #@! TF.GenerationSoftware,Kicad,Pcbnew,7.0.9
; #@! TF.FileFunction,MixedPlating,1,2
FMAT,2
METRIC
; #@! TA.AperFunction,Plated,PTH,ViaDrill
T1C0.400
; #@! TA.AperFunction,Plated,PTH,ComponentDrill
T2C0.500
; #@! TA.AperFunction,Plated,PTH,ComponentDrill
T3C0.550
; #@! TA.AperFunction,Plated,PTH,ComponentDrill
T4C0.990
; #@! TA.AperFunction,Plated,PTH,ComponentDrill
T5C1.000
; #@! TA.AperFunction,Plated,PTH,ComponentDrill
T6C1.300
; #@! TA.AperFunction,Plated,PTH,ComponentDrill
T7C2.700
%
G90
G05
T1
X105.664Y-126.238
X108.204Y-126.238
X108.495Y-124.841
X108.589Y-140.339
X108.712Y-148.209
X108.801Y-136.652
X108.966Y-137.922
X108.966Y-141.605
X108.966Y-144.145
X108.966Y-146.685
X109.22Y-120.269
X112.014Y-136.017
X112.014Y-156.21
X112.522Y-120.269
X112.522Y-125.73
X113.411Y-141.859
X113.411Y-150.368
X113.411Y-151.384
X113.538Y-133.731
X113.919Y-146.558
X114.3Y-152.781
X114.3Y-156.21
X114.427Y-150.368
X114.427Y-151.384
X114.681Y-130.937
X115.062Y-146.558
X115.189Y-122.936
X115.951Y-130.937
X116.332Y-153.924
X116.586Y-143.637
X116.84Y-146.558
X117.221Y-137.795
X117.348Y-151.638
X117.856Y-131.445
X118.364Y-122.682
X118.364Y-127.762
X118.491Y-147.701
X118.61Y-143.555
X119.38Y-129.667
X119.38Y-134.112
X119.634Y-154.813
X120.015Y-152.019
X120.142Y-142.621
X120.142Y-147.701
X121.285Y-133.223
X121.398Y-136.121
X121.539Y-146.939
X124.46Y-151.257
X125.05Y-136.062
X126.999Y-119.125
X127.127Y-124.841
X127.665Y-156.972
X127.893Y-126.242
X128.143Y-153.67
X130.429Y-153.924
X130.429Y-155.067
X130.937Y-122.936
X130.937Y-123.952
X130.937Y-127.254
X130.937Y-128.27
X130.937Y-132.112
X130.937Y-133.111
X131.304Y-135.927
X131.953Y-129.794
X132.108Y-134.112
X132.334Y-118.618
X132.461Y-141.732
X132.588Y-121.285
X132.588Y-138.811
X132.588Y-145.669
X133.477Y-149.987
X133.477Y-151.257
X134.112Y-132.207
X134.112Y-141.986
X134.112Y-145.542
X134.62Y-137.668
X136.525Y-131.572
X136.525Y-133.604
X136.525Y-135.636
X136.54Y-137.653
X136.652Y-139.573
X136.652Y-140.843
X136.652Y-144.145
X136.652Y-146.177
X136.779Y-120.904
X136.779Y-125.222
X136.779Y-127.254
X138.049Y-142.494
X141.415Y-136.843
X142.621Y-138.815
X142.621Y-139.827
X142.621Y-140.827
X143.51Y-131.318
X146.255Y-139.315
X146.304Y-138.315
X146.304Y-141.351
X146.31Y-140.313
T4
X114.742Y-161.8
X119.242Y-161.8
X133.538Y-161.8
X138.038Y-161.8
T5
X106.0Y-130.19
X106.0Y-132.73
X106.0Y-135.27
X106.0Y-137.81
X106.0Y-140.35
X106.0Y-142.89
X106.0Y-145.43
X106.0Y-147.97
X106.045Y-152.522
X106.045Y-155.062
X115.057Y-116.078
X117.597Y-116.078
X122.565Y-116.078
X125.105Y-116.078
X127.645Y-116.078
X130.185Y-116.078
X135.133Y-116.205
X137.673Y-116.205
T6
X113.482Y-159.31
X120.492Y-159.31
X132.278Y-159.31
X139.288Y-159.31
T7
X104.14Y-116.84
X104.14Y-161.29
X148.59Y-116.84
X148.59Y-161.29
T2
X122.865Y-162.011G85X122.865Y-162.661
G05
X129.865Y-162.011G85X129.865Y-162.661
G05
T3
X123.715Y-159.636G85X124.015Y-159.636
G05
X128.715Y-159.636G85X129.015Y-159.636
G05
T0
M30
